<?xml version="1.0" encoding="UTF-8"?>
<svg id="uuid-38c85da9-667e-4351-88cb-f8485c16fa2f" data-name="Layer 2" xmlns="http://www.w3.org/2000/svg" width="59" height="59" viewBox="0 0 59 59">
  <defs>
    <style>
      .uuid-66f44c1e-043e-40db-86b2-0ab89897ac82 {
        fill: #fff;
      }
    </style>
  </defs>
  <g id="uuid-710364c6-b19c-4bea-9ce4-68f0b4f10d99" data-name="Capa 1">
    <g>
      <path class="uuid-66f44c1e-043e-40db-86b2-0ab89897ac82" d="M36.9,1c.3,.1,.7,.2,1,.3,0,0,.1,0,.2,0l.3,.2h.3c0,.1,0,.1,.1,.1,.5,.2,1,.4,1.5,.6h.3c.4,.3,.8,.5,1.2,.7,.7,.3,1.3,.6,2,1h0l2.5,1.6h0l1.6,1.2h.1l.2,.3c1,1,2,1.9,3,2.9,.4,.4,.8,.9,1.2,1.3,.4,.6,.9,1.2,1.3,1.8,.4,.6,.7,1.1,1.1,1.7,.3,.4,.5,.8,.7,1.2v.2l1,1.9s0,0,0,0l.4,1.1h0s0,.1,0,.2c.2,.4,.3,.8,.5,1.3,.2,.6,.4,1.3,.5,2,0,.4,.1,.8,.2,1.2,.2,.9,.4,1.8,.5,2.8,0,.9,.2,1.7,.2,2.6,0,1,0,1.9-.1,2.9,0,.9-.2,1.7-.3,2.6-.2,1.1-.4,2.1-.7,3.2-.3,1.1-.8,2.2-1.2,3.4-.7,2-1.8,3.8-3,5.6-.4,.6-.8,1.1-1.3,1.7l-.3,.4s0,0-.1,.1c-.6,.6-1.1,1.3-1.7,1.9-.4,.4-.8,.8-1.2,1.2h-.1l-.6,.6-.3,.3-.8,.6-.3,.3-.2,.2-.3,.2h0l-1.2,.9h-.1l-.5,.4-.3,.2h-.2l-1.1,.7h-.2l-.6,.4-1.3,.6h-.1s0,0,0,0h-.2c0,0,0,0,0,0l-1.4,.5h0l-.6,.2h-.2c-.4,.2-.7,.2-1.1,.3-.5,.1-1,.3-1.6,.4-.7,.1-1.5,.3-2.2,.3-.6,0-1.2,.1-1.8,.2-.2,0-.5,0-.7,0h-2.5l-2-.2h-.3l-.9-.2h-.5l-.8-.2h-.3l-1.5-.5h-.2l-.5-.2h-.1c-.5-.2-1-.3-1.5-.5-.4-.2-.9-.4-1.3-.6-.9-.4-1.7-.8-2.5-1.2-.8-.4-1.5-.9-2.3-1.4-1-.7-1.9-1.5-2.8-2.2,0,0,0,0-.1-.1h0l-2.8-2.9-.7-.8-.3-.3-.3-.4-.4-.5-.8-1.2-.3-.5-.2-.4-.3-.6-.5-.8c-.9-1.8-1.7-3.6-2.2-5.6v-.2l-.2-.6v-.3l-.3-.9v-.2l-.2-.9v-.2c-.1-.5-.2-1-.3-1.5C0,31.3,0,29.8,0,28.3c0-.6,0-1.3,.2-1.9,0-.6,.1-1.2,.2-1.8,.2-1.1,.5-2.2,.8-3.3,.5-2,1.3-3.9,2.3-5.6,1.8-3.1,3.9-6,6.7-8.3h0l.5-.5h.2l.7-.7h0l.4-.3h0l.3-.3h.2v-.2h.2l1-.8h0l.2-.2h0l.5-.3h0l.8-.5h.2v-.2c1-.4,2-.9,3-1.3,.8-.3,1.6-.6,2.4-.8,1.1-.3,2.2-.5,3.2-.7,.6-.1,1.2-.2,1.9-.3v.2l.2-.2c.2,0,.5,0,.7-.1,.4,0,.7,0,1.1,0h2.5c.9,.2,1.7,.3,2.6,.3,1.1,0,2.1,.4,3.2,.6h.1ZM14.2,8.7s0,0,0,0h0v.2l-.5,.3-.6,.5h-.2v.2l-.5,.4-.5,.4h-.1l-1.4,1.6h0l-.8,1s0,0,0,0l-.3,.4h0l-.4,.6-1.1,1.6h0l-.3,.5h0c0,0,0,.1,0,.2-1.1,1.9-1.9,3.9-2.5,6-.1,.4-.2,.8-.2,1.1l-.3,1.4v.2l-.2,1.7v1.6c-.2,0-.2,.2-.2,.2,0,.2,0,.3,.1,.5v3.1l.2,.2c.1,.7,.2,1.4,.3,2.1,.3,1.3,.6,2.6,1.1,3.9,.5,1.4,1.1,2.7,1.8,3.9,.7,1.2,1.5,2.4,2.5,3.4h.1l.2,.4h0l.2,.2c.1,.2,.2,.3,.4,.5,1.5,1.6,3.2,3.1,5.1,4.3,.3,.2,.6,.4,1,.6,.3,.2,.6,.3,.9,.5,.5,.3,1.1,.5,1.6,.7h.1l.8,.4,.9,.3h.3v.2h.1c0,0,.1,0,.2,0,.5,.1,1.1,.3,1.7,.4h.1c.2,.1,.5,.2,.7,.2,.4,0,.8,.1,1.2,.2h.7l.8,.2h6.2l1.2-.3h.2l.9-.2h.4c.6-.3,1.1-.4,1.7-.6,1.5-.5,3-1.1,4.5-1.9h0l.9-.5h.2v-.2l.5-.2h.1l.4-.3h.2v-.2h.2l.7-.7h0v-.2l.3-.2h.2c.4-.5,.9-.8,1.3-1.2,.9-.9,1.8-1.7,2.6-2.7,.5-.7,1.1-1.3,1.6-2.1,.9-1.3,1.6-2.8,2.3-4.3,.1-.3,.2-.6,.3-.9h0c.8-2.2,1.3-4.4,1.5-6.6h0v-1.6c0-.6,0-1.1,.1-1.7,0,0,0-.1,0-.2v-.4h0v-.5l-.2-1.9v-.2l-.2-1v-.2l-.5-1.7v-.3l-.5-1.3v-.2l-.2-.4v-.2l-.5-1v-.2l-.2-.2v-.2l-.5-.8-.2-.3-.3-.5v-.2l-.3-.3v-.2l-.5-.6-.7-1-.3-.3v-.2c-.8-.8-1.5-1.7-2.2-2.5-.5-.5-1.1-1-1.6-1.5h-.2l-.2-.3-.2-.2-.5-.4h-.2l-.5-.6h-.2l-.2-.3-.6-.4h-.2l-.4-.4h0l-.3-.3h-.2l-.3-.3-.6-.3-.3-.2h-.2c-.3-.3-.6-.4-1-.6-.7-.3-1.3-.5-2-.8h-.5v-.2h-.6l-.3-.2h-.2l-.5-.3h-.9c-.2-.2-.4-.3-.7-.3-.7-.1-1.3-.2-2-.3,0,0,0,0-.1,0-.4,0-.9,0-1.3,0,0,0-.2-.1-.3-.1-.2,0-.5,0-.7,0h-3.5l-.5,.2h-.9l-.7,.2h-.6l-.7,.3h-.6l-.2,.2h-.3c-.1,.1-.2,.2-.4,.2-.5,.1-1,.3-1.5,.4h-.2l-.5,.3-1.2,.5-1,.4h-.3l-1.2,.8h-.2v.2c0,0,0,0,0,0h-.1v.2h-.2l-.4,.4h0l-.4,.3h-.1l-.2,.3h-.2c0,.1,0,.1,0,.1Z"/>
      <path class="uuid-66f44c1e-043e-40db-86b2-0ab89897ac82" d="M26.6,.2v.2l-.2-.2h.2Z"/>
      <path class="uuid-66f44c1e-043e-40db-86b2-0ab89897ac82" d="M10.9,6.6h0Z"/>
      <path class="uuid-66f44c1e-043e-40db-86b2-0ab89897ac82" d="M36.9,1h0Z"/>
      <path class="uuid-66f44c1e-043e-40db-86b2-0ab89897ac82" d="M10,51.6h0Z"/>
      <path class="uuid-66f44c1e-043e-40db-86b2-0ab89897ac82" d="M12.7,5.3h0Z"/>
      <path class="uuid-66f44c1e-043e-40db-86b2-0ab89897ac82" d="M12.9,5.1h0Z"/>
      <path class="uuid-66f44c1e-043e-40db-86b2-0ab89897ac82" d="M12.6,5.4h0Z"/>
      <path class="uuid-66f44c1e-043e-40db-86b2-0ab89897ac82" d="M15.9,3.3h0Z"/>
      <path class="uuid-66f44c1e-043e-40db-86b2-0ab89897ac82" d="M15.8,3.4h0Z"/>
      <path class="uuid-66f44c1e-043e-40db-86b2-0ab89897ac82" d="M13.9,4.5h0Z"/>
      <path class="uuid-66f44c1e-043e-40db-86b2-0ab89897ac82" d="M14.2,4.3h0Z"/>
      <path class="uuid-66f44c1e-043e-40db-86b2-0ab89897ac82" d="M15.7,3.4h0Z"/>
      <path class="uuid-66f44c1e-043e-40db-86b2-0ab89897ac82" d="M10.2,7.2h0Z"/>
      <path class="uuid-66f44c1e-043e-40db-86b2-0ab89897ac82" d="M14.8,3.9h0Z"/>
      <path class="uuid-66f44c1e-043e-40db-86b2-0ab89897ac82" d="M11.7,6h0Z"/>
      <path class="uuid-66f44c1e-043e-40db-86b2-0ab89897ac82" d="M12.2,5.7h0Z"/>
      <path class="uuid-66f44c1e-043e-40db-86b2-0ab89897ac82" d="M40.4,2.1c.2-.1,.2,0,.3,.1h-.3Z"/>
      <path class="uuid-66f44c1e-043e-40db-86b2-0ab89897ac82" d="M45.5,9.3h0Z"/>
      <path class="uuid-66f44c1e-043e-40db-86b2-0ab89897ac82" d="M16,7.5h0Z"/>
      <path class="uuid-66f44c1e-043e-40db-86b2-0ab89897ac82" d="M37.6,5.1v-.2h.1v.2Z"/>
      <path class="uuid-66f44c1e-043e-40db-86b2-0ab89897ac82" d="M38.4,1.4h0Z"/>
      <path class="uuid-66f44c1e-043e-40db-86b2-0ab89897ac82" d="M19.1,53.1h0Z"/>
      <path class="uuid-66f44c1e-043e-40db-86b2-0ab89897ac82" d="M21.3,53.9h0Z"/>
      <path class="uuid-66f44c1e-043e-40db-86b2-0ab89897ac82" d="M23.2,54.5h0Z"/>
      <path class="uuid-66f44c1e-043e-40db-86b2-0ab89897ac82" d="M42.6,7.2h0Z"/>
      <path class="uuid-66f44c1e-043e-40db-86b2-0ab89897ac82" d="M14.1,8.8h0Z"/>
      <path class="uuid-66f44c1e-043e-40db-86b2-0ab89897ac82" d="M44.8,8.7h0Z"/>
      <path class="uuid-66f44c1e-043e-40db-86b2-0ab89897ac82" d="M42.9,51.6h0Z"/>
      <path class="uuid-66f44c1e-043e-40db-86b2-0ab89897ac82" d="M12.8,9.9h0Z"/>
      <path class="uuid-66f44c1e-043e-40db-86b2-0ab89897ac82" d="M10.2,12.3h0Z"/>
      <path class="uuid-66f44c1e-043e-40db-86b2-0ab89897ac82" d="M9.4,13.3h0s0,0,0,0Z"/>
      <path class="uuid-66f44c1e-043e-40db-86b2-0ab89897ac82" d="M21,53.9h0Z"/>
      <path class="uuid-66f44c1e-043e-40db-86b2-0ab89897ac82" d="M7.5,16h0Z"/>
      <path class="uuid-66f44c1e-043e-40db-86b2-0ab89897ac82" d="M7.5,16.1h0Z"/>
      <path class="uuid-66f44c1e-043e-40db-86b2-0ab89897ac82" d="M14.2,8.7h0s0,0,0,0Z"/>
      <path class="uuid-66f44c1e-043e-40db-86b2-0ab89897ac82" d="M7.2,16.4h0Z"/>
      <path class="uuid-66f44c1e-043e-40db-86b2-0ab89897ac82" d="M56.6,17.8h0s0,0,0,0Z"/>
      <path class="uuid-66f44c1e-043e-40db-86b2-0ab89897ac82" d="M41.8,52.2h0Z"/>
      <path class="uuid-66f44c1e-043e-40db-86b2-0ab89897ac82" d="M42.7,51.7h0Z"/>
      <path class="uuid-66f44c1e-043e-40db-86b2-0ab89897ac82" d="M57,18.9h0Z"/>
      <path class="uuid-66f44c1e-043e-40db-86b2-0ab89897ac82" d="M43.4,51.3s0,0,0,0h0Z"/>
      <path class="uuid-66f44c1e-043e-40db-86b2-0ab89897ac82" d="M43.9,50.9h0Z"/>
      <path class="uuid-66f44c1e-043e-40db-86b2-0ab89897ac82" d="M44.1,50.8h0Z"/>
      <path class="uuid-66f44c1e-043e-40db-86b2-0ab89897ac82" d="M14.7,8.4h0Z"/>
      <path class="uuid-66f44c1e-043e-40db-86b2-0ab89897ac82" d="M44.2,50.7h0Z"/>
      <path class="uuid-66f44c1e-043e-40db-86b2-0ab89897ac82" d="M45,50.1h0Z"/>
      <path class="uuid-66f44c1e-043e-40db-86b2-0ab89897ac82" d="M45.5,49.7h0Z"/>
      <path class="uuid-66f44c1e-043e-40db-86b2-0ab89897ac82" d="M55.1,32h0Z"/>
      <path class="uuid-66f44c1e-043e-40db-86b2-0ab89897ac82" d="M48.1,6.6h0Z"/>
      <path class="uuid-66f44c1e-043e-40db-86b2-0ab89897ac82" d="M17.5,6.6s0,0,0,0h0Z"/>
      <path class="uuid-66f44c1e-043e-40db-86b2-0ab89897ac82" d="M53.7,38.6h0Z"/>
      <path class="uuid-66f44c1e-043e-40db-86b2-0ab89897ac82" d="M43.8,3.7h0Z"/>
      <path class="uuid-66f44c1e-043e-40db-86b2-0ab89897ac82" d="M46.4,5.3h0Z"/>
      <path class="uuid-66f44c1e-043e-40db-86b2-0ab89897ac82" d="M41.1,36.6v.2l.2,.2v.2l1,1.4h0l.7,1.7v.3l.3,.7v.5l.2,.2,.2,.6h0v1l.2,1.5c-.1,.9-.7,1.6-1.7,1.7,0,0,0,0,0,0-8.2,0-16.4,0-24.6,0-.5,0-.9,0-1.4-.3-.4-.2-.6-.5-.7-.9,0-.3-.1-.5-.2-.8h0v-1.4l.2-.6c0,0,0-.1,0-.2,.2-.7,.3-1.5,.5-2.2,.4-1.3,1-2.5,1.7-3.6,.3-.5,.7-.9,1.1-1.4l1.5-1.5h0l.6-.5h0c.3-.2,.6-.4,.8-.6,.1,0,.3-.2,.4-.3l.8-.4c.1,0,.2,0,.3,0,.5-.2,1.1-.5,1.6-.6,.5-.2,1-.4,1.6-.5,.9-.1,1.9-.3,2.8-.3,.5,0,1,0,1.5,0,.4,0,.8,0,1.2,.2,.5,.1,1.1,.2,1.6,.4h.4v.2l.7,.2h0l.5,.2h.2c.1,.2,.3,.2,.4,.3,.4,.2,.8,.3,1.1,.5,.6,.4,1.2,.9,1.9,1.4l.6,.6,.2,.2,.7,.7,.3,.3h0l.6,.8Zm-5.8-.5h0l-.5-.3-.6-.3-.4-.2-1.8-.6c-.4,0-.8-.2-1.2-.2-.3,0-.6,0-.9,0-.3,0-.7,0-1,0-.7,0-1.4,.1-2,.3-1.7,.4-3.3,1.2-4.5,2.5l-.2,.2c0,0-.2,.1-.2,.2-1.1,1.1-1.9,2.4-2.5,3.9,0,.3-.2,.6-.2,.8v.2l-.2,.5h.8c0,0,.1,0,.2,0,4.5,0,9,0,13.4,0,1.9,0,3.9,0,5.8,0h.2c.1,0,.3,0,.4,0,.1,0,.2,0,.1-.2v-.3l-.2-.2v-.4h-.1l-.2-.6v-.2l-.8-1.5h0l-1.1-1.6-1-1h-.1l-1.1-.9h-.2Z"/>
      <path class="uuid-66f44c1e-043e-40db-86b2-0ab89897ac82" d="M22.9,23l-.3-.3-.4-.4h-.2l-.2,.2c0,0-.2,.2-.3,.3-.7,.7-1.4,1.4-2,2-.2,.1-.3,.2-.5,.3-.1,0-.3,0-.4,0-.5,.2-1.5-.2-1.8-.8-.1-.2-.2-.5-.3-.8v-.8c.1,0,.2-.1,.2-.2-.1-.2,0-.3,.2-.4,.1-.1,.3-.3,.4-.4,1.2-1.2,2.4-2.3,3.5-3.5,.5-.5,1.1-.5,1.7-.4,.4,0,.7,.3,1,.6,1.1,1.2,2.3,2.3,3.5,3.5l.5,.6,.2,.6h0c0,.6-.1,1.1-.5,1.5l-.8,.5h-.8l-.7-.2-1.2-1.2-.3-.3h-.1v-.2h-.2v-.2Z"/>
      <path class="uuid-66f44c1e-043e-40db-86b2-0ab89897ac82" d="M38.1,46h0Z"/>
      <path class="uuid-66f44c1e-043e-40db-86b2-0ab89897ac82" d="M38.8,45.5h0Z"/>
      <path class="uuid-66f44c1e-043e-40db-86b2-0ab89897ac82" d="M22.2,22.3h0Z"/>
      <path class="uuid-66f44c1e-043e-40db-86b2-0ab89897ac82" d="M41.1,25.2h-.8c-.7-.2-1.2-.8-1.8-1.3l-1.5-1.5h-.2l-.2,.2c-.7,.7-1.4,1.4-2.1,2-.2,.2-.4,.3-.6,.4h-.3c-.5,.2-1,.2-1.4-.1h-.1l-.3-.3-.4-.8v-.9l.2-.2c.1-.2,.2-.4,.4-.5,1.3-1.3,2.5-2.5,3.8-3.8,0,0,0,0,0,0h0c.6-.5,1.7-.5,2.3,.1,1.3,1.3,2.5,2.6,3.8,3.8,.6,.7,.7,2-.3,2.7l-.7,.3Z"/>
      <path class="uuid-66f44c1e-043e-40db-86b2-0ab89897ac82" d="M31.6,22.6v0Z"/>
      <path class="uuid-66f44c1e-043e-40db-86b2-0ab89897ac82" d="M32.1,24.8h0Z"/>
      <path class="uuid-66f44c1e-043e-40db-86b2-0ab89897ac82" d="M35.9,18.2h0Z"/>
      <path class="uuid-66f44c1e-043e-40db-86b2-0ab89897ac82" d="M33.7,25.1h0Z"/>
      <polygon class="uuid-66f44c1e-043e-40db-86b2-0ab89897ac82" points="19.2 36.5 19.2 36.5 19.2 36.5 19.2 36.5"/>
      <path class="uuid-66f44c1e-043e-40db-86b2-0ab89897ac82" d="M37.1,22.3h0Z"/>
    </g>
  </g>
</svg>