<?xml version="1.0" encoding="UTF-8"?>
<svg id="uuid-5c916b1e-2f31-4c11-bc8a-45dd4a85b00c" data-name="Layer 2" xmlns="http://www.w3.org/2000/svg" width="63.7" height="44" viewBox="0 0 63.7 44">
  <defs>
    <style>
      .uuid-ec8095e4-ffce-44f9-a43f-8e4dc9a7cf7a {
        fill: #fff;
      }
    </style>
  </defs>
  <g id="uuid-c47cc59b-1197-4639-9592-5e66cd34e2c6" data-name="Capa 1">
    <g>
      <path class="uuid-ec8095e4-ffce-44f9-a43f-8e4dc9a7cf7a" d="M9.9,12.5H4.5l2.6-8h0l2.7,8Zm2,6h-2.6v.4h7.7v-.4h-2.2L8.5,0h-.3L2.5,17c-.5,1.5-.8,1.6-1.7,1.6H0v.4H5.4v-.4h-1.4c-.8,0-1.2-.3-1.2-.7s.2-1.1,.4-1.6l1.1-3.3h5.6l1.9,5.6Z"/>
      <path class="uuid-ec8095e4-ffce-44f9-a43f-8e4dc9a7cf7a" d="M19.8,.8h-2.6V.4h7.9v.4h-2.6V18.5h3.3c5.1,0,6.6-.7,6.6-5.6h.4v6.1h-15.7v-.4h2.6V.8Z"/>
      <path class="uuid-ec8095e4-ffce-44f9-a43f-8e4dc9a7cf7a" d="M37.2,.8h-.5c-4.7,0-5.7,.7-5.7,5h-.4V.4h16.1V5.9h-.4c0-4.3-1-5-5.7-5h-.6V18.5h2.7v.4h-8.1v-.4h2.7V.8Z"/>
      <path class="uuid-ec8095e4-ffce-44f9-a43f-8e4dc9a7cf7a" d="M50,9.7c0-3.4,.6-9.3,5.3-9.3s5.3,5.8,5.3,9.3-.6,9.3-5.3,9.3-5.3-5.8-5.3-9.3m-3,0c0,5.4,3.9,9.7,8.3,9.7s8.3-4.3,8.3-9.7S59.8,0,55.3,0s-8.3,4.3-8.3,9.7"/>
      <path class="uuid-ec8095e4-ffce-44f9-a43f-8e4dc9a7cf7a" d="M10.3,26.1h0v15.5c0,1.3,.4,1.5,1.6,1.5h1.1v.4H7.3v-.4h.9c1.2,0,1.6-.2,1.6-1.5V25.3h-2.5v-.4h5.6l10,13.9h0v-12c0-1.1-.2-1.4-1.4-1.4h-1.2v-.4h5.6v.4h-1.2c-1.2,0-1.4,.3-1.4,1.4v17h-.3L10.3,26.1Z"/>
      <path class="uuid-ec8095e4-ffce-44f9-a43f-8e4dc9a7cf7a" d="M28.4,34.2c0-3.5,.6-9.3,5.4-9.3s5.4,5.9,5.4,9.3-.6,9.3-5.4,9.3-5.4-5.9-5.4-9.3m-3,0c0,5.4,3.9,9.8,8.4,9.8s8.4-4.3,8.4-9.8-3.9-9.8-8.4-9.8-8.4,4.3-8.4,9.8"/>
      <path class="uuid-ec8095e4-ffce-44f9-a43f-8e4dc9a7cf7a" d="M50.4,37.1h-5.4l2.6-8h0l2.7,8Zm2.1,6.1h-2.6v.4h7.8v-.4h-2.2l-6.5-18.7h-.3l-5.7,17.1c-.5,1.5-.8,1.6-1.7,1.6h-.9v.4h5.5v-.4h-1.4c-.8,0-1.2-.3-1.2-.7s.2-1.1,.4-1.6l1.1-3.3h5.7l1.9,5.6Z"/>
    </g>
  </g>
</svg>