<?xml version="1.0" encoding="UTF-8"?>
<svg id="uuid-dc21f89e-b697-4994-8ab6-16d47521dd2d" data-name="Layer 2" xmlns="http://www.w3.org/2000/svg" width="89.6" height="26.1" viewBox="0 0 89.6 26.1">
  <defs>
    <style>
      .uuid-e3eb60db-12e8-4b09-a26a-5e1108f811a0 {
        fill: #162954;
      }
    </style>
  </defs>
  <g id="uuid-1e560334-676b-4065-8c3f-2a312a893f66" data-name="Capa 1">
    <g>
      <path class="uuid-e3eb60db-12e8-4b09-a26a-5e1108f811a0" d="M85.8,19.2c.2,0,.4,.1,.5,.2,.9,.3,1.5,.9,1.6,1.9,0,.4,0,.8,0,1.2,0,.5,0,1,0,1.6,0,.2,0,.3,0,.5,.1,.3,.4,.4,.7,.1,0,0,.1-.2,.2-.3,0-.1,.1-.2,.2-.4h.4c0,.1,0,.2,0,.2-.1,.8-.6,1.3-1.4,1.6-1,.4-2,.3-3-.3-.5-.3-.8-.8-.8-1.4,0-1,0-2,0-3,0-.2,0-.5,0-.7,0-.4-.3-.7-.7-.8-.5-.2-1-.2-1.6-.2-.1,.4-.1,5.4,0,6h.6v.4c-.3,.1-4.4,.1-5,0v-.3s.2,0,.3-.1c.1,0,.2,0,.3,0,0-.5,.1-11.4,0-11.9h-.6c-.2-.2-.2-.3,0-.5,0,0,.1,0,.2,0,1.4,0,2.8,0,4.3,0,.9,0,1.8,0,2.7,0,.7,0,1.4,.2,2,.4,.7,.3,1.2,.8,1.4,1.6,.2,.8,.2,1.6,0,2.3-.2,.7-.7,1.2-1.4,1.5-.2,0-.5,.1-.8,.2,0,0-.1,0-.3,.1Zm-3.7-5.8c0,.5,0,1,0,1.4,0,.4,0,.9,0,1.3,0,.4,0,.9,0,1.3,0,.4,0,.9,0,1.4,.4,0,.7,0,1,0,.8,0,1.3-.5,1.3-1.3,0-.9,0-1.8,0-2.7,0-.7-.5-1.2-1.1-1.3-.4,0-.8,0-1.3,0Z"/>
      <path class="uuid-e3eb60db-12e8-4b09-a26a-5e1108f811a0" d="M25,19.2c0,1.2-.2,2.3-.6,3.4-.6,1.6-1.8,2.6-3.4,3-1.5,.4-3,.4-4.4,0-1.8-.5-3-1.7-3.5-3.6-.3-1.1-.4-2.3-.3-3.5,0-.8,.2-1.6,.4-2.4,.4-1,.9-1.9,1.8-2.5,.7-.5,1.4-.8,2.3-.9,1.2-.2,2.5-.2,3.7,.1,2,.5,3.2,1.8,3.7,3.7,.3,.9,.3,1.8,.3,2.7Zm-8.4,0c0,.4,0,.8,0,1.3,0,.4,0,.9,0,1.3,0,.7,0,1.5,.3,2.2,.2,.8,.8,1.4,1.7,1.4,1,0,1.6-.2,2-.9,0-.1,.1-.3,.2-.4,.3-.7,.3-1.4,.3-2.2,0-2.1,.1-4.2,0-6.3,0-.5-.2-1-.3-1.4-.2-.4-.5-.8-.9-.9-.6-.2-1.1-.2-1.7,0-.7,.2-1,.8-1.2,1.5-.2,.7-.2,1.3-.2,2,0,.8,0,1.6,0,2.5Z"/>
      <path class="uuid-e3eb60db-12e8-4b09-a26a-5e1108f811a0" d="M31.3,20.5v4.7h1v.4s-.1,0-.2,0c-1.7,0-3.3,0-5,0,0,0-.2,0-.3,0v-.3h.6c.1-.6,.2-11.5,0-12h-.6c-.2-.2-.2-.3,0-.5,.1,0,.3,0,.4,0,1.6,0,3.3,0,4.9,0,1,0,2,.1,2.9,.5,1.2,.4,2.1,1.2,2.1,2.9,0,.6,0,1.2-.2,1.7-.3,.9-.8,1.5-1.7,1.9-.9,.4-1.9,.6-2.9,.6-.3,0-.6,0-.9,0-.1,0-.2,0-.4,0Zm0-.6c.4,0,.6,0,.9,0,.6-.1,1-.5,1.1-1.1,0-.3,.1-.6,.1-.9,0-.8,0-1.7,0-2.5,0-.3,0-.6,0-.8-.2-1-1.1-1.4-2.1-1.1v6.6Z"/>
      <path class="uuid-e3eb60db-12e8-4b09-a26a-5e1108f811a0" d="M4.4,20.4c0,1.6,0,3.1,0,4.7,.2,0,.4,0,.6,0,.2,0,.4,0,.6,.2v.2H0v-.4H.7c0-.5,.1-11.4,0-12H.1v-.4c0,0,0-.1,0-.1,.1,0,.3,0,.4,0,1.6,0,3.3,0,4.9,0,1,0,2,.1,3,.5,.4,.1,.7,.3,1,.6,.4,.3,.7,.7,.8,1.2,.3,1,.3,2.1,0,3.1-.3,.7-.7,1.2-1.4,1.5-1,.5-2.1,.7-3.2,.8-.4,0-.8,0-1.2,0Zm0-.5c.4,.1,.7,0,1,0,.5,0,.8-.4,1-.8,.1-.3,.2-.7,.2-1,0-.9,0-1.9,0-2.8,0-.2,0-.4,0-.5-.1-1.1-1.1-1.7-2.1-1.3v6.6Z"/>
      <path class="uuid-e3eb60db-12e8-4b09-a26a-5e1108f811a0" d="M40,13.4h-.5v-.5c.4,0,4.1-.1,4.8,0,.2,.1,.1,.3,0,.4h-.5c0,.2,0,.3,0,.4,0,2.2,0,4.4,0,6.6,0,.9,0,1.8,.3,2.6,.4,1.6,1.3,2.5,3.2,2.2,.6-.1,1.1-.4,1.4-1,.2-.4,.3-.8,.4-1.2,.2-.9,.3-1.7,.3-2.6,0-2.1,0-4.2,0-6.3,0-.2,0-.4,0-.6h-.6c-.2-.2-.2-.3,0-.5,.5,0,1.6,0,2,0v.3h-.5c0,.2,0,.3,0,.3,0,.7,0,1.4,0,2.2,0,1.9,0,3.8,0,5.7,0,.8-.1,1.6-.4,2.3-.4,1.1-1.2,1.7-2.2,2-1.5,.4-3,.4-4.5,0-.5-.1-1-.4-1.5-.7-.6-.4-1-1-1.3-1.7-.2-.7-.3-1.4-.3-2.1,0-2.4,0-4.8,0-7.3v-.5Z"/>
      <path class="uuid-e3eb60db-12e8-4b09-a26a-5e1108f811a0" d="M53.1,13.5h-.6c0-.2,0-.3,0-.3,0,0,0-.1,0-.2,.4,0,3.5-.1,5.1,0,.1,0,.2,0,.4,0v.4h-1.2c0,.2,0,.4,0,.6,0,2.1,0,4.1,0,6.2,0,1.6,0,3.1,0,4.7,0,.1,0,.3,0,.4,1.2,0,2.3-.1,3.1-1.1,.6-.6,1-1.3,1.4-2.1,.1-.2,.2-.4,.3-.7h.4c.1,.2-.2,3.8-.3,4.3-.1,0-.2,0-.4,0-2.8,0-5.5,0-8.3,0-.2,0-.4,0-.6,0v-.4h.5c.1-.3,0-.5,0-.7,0-2.5,0-5.1,0-7.6,0-1,0-2,0-3v-.6Z"/>
      <path class="uuid-e3eb60db-12e8-4b09-a26a-5e1108f811a0" d="M75.4,25.3c0,0,.1,0,.2,0,0,0,.1,0,.2,.1v.3c-.6,.1-4.8,0-5.1,0v-.3h.7c0-.2,0-.3,0-.4-.6-1.8-1.2-3.6-1.8-5.4-.3-.9-.6-1.8-.9-2.7,0,0,0-.2-.1-.4-1.1,3-2.1,5.9-3.2,8.8,.3,.2,.7,0,.9,.3v.3h-2.2v-.3l.4-.2,4.7-12.4c.6,0,1.2,0,1.8,0,1.5,4.2,3,8.3,4.5,12.5Z"/>
      <path class="uuid-e3eb60db-12e8-4b09-a26a-5e1108f811a0" d="M3.5,0c.5,.1,.8,.3,1.1,.5,1,.7,1.6,1.7,1.9,2.9,.2,1,.1,2-.3,2.9-.2,.5-.4,1-.5,1.6-.1,1.1,0,2.2,.7,3.2,0,0,0,.1,.1,.3-.1,0-.2,0-.3,0-1.5-.7-2.3-1.9-2.6-3.5-.2-1,0-1.9,.4-2.8,.1-.4,.3-.7,.4-1.1,.4-1.3,.1-2.6-.6-3.7,0,0,0-.1-.2-.3Z"/>
      <path class="uuid-e3eb60db-12e8-4b09-a26a-5e1108f811a0" d="M47.1,7.7c0-.3,0-.6,0-.9,0-.1,0-.3,0-.4,0-.3,.2-.4,.6-.2,0,0,0,.1,0,.2,0,.6,0,1.2,0,1.7-.1,.3-.4,.3-.6,.3-1.1,0-2.1,0-3.2,0-.2,0-.3,0-.5,0-.2,0-.3,0-.4-.3,.1-.5,.6-.2,1-.4,.1-.4,0-.9,0-1.3,0-.4,0-.9,0-1.4,0-.4,0-.9,0-1.4-.2,0-.4,0-.6,0-.3,0-.3,0-.4-.5,.1,0,.2-.1,.3-.1,1.3,0,2.7,0,4.1,0,0,.1,.2,.2,.2,.3,0,.6,0,1.1,0,1.7l-.4,.2c-.4-.5,0-1.1-.2-1.6-.3-.1-1.8-.1-2.3,0v1.4c.3,.2,.7,0,1.1,0v-.9c.4-.2,.5-.1,.6,.1,0,0,0,.1,0,.2,0,.6,0,1.2,0,1.8,0,0,0,.1,0,.1,0,.3-.2,.4-.6,.2v-.8h-1.1c-.1,.4-.1,1.5,0,1.9h2.3Z"/>
      <path class="uuid-e3eb60db-12e8-4b09-a26a-5e1108f811a0" d="M54.3,7.8c.5,0,.6-.1,.6-.5,0-.2,0-.4,0-.5,0-.2,0-.3,0-.5q.3-.1,.5,0c.1,.5,.1,1,0,1.5-.1,.5-.5,.7-1,.7-.4,0-.8-.4-.9-.8,0-.2,0-.5,0-.7,0-.2,0-.4,0-.6-.6-.5-1.3-.3-2-.3,0,.6,0,1.2,0,1.8,.3,.2,.8-.1,1,.4,0,.2-.2,.3-.4,.3-.6,0-1.3,0-1.9,0-.2,0-.3,0-.4-.3l.2-.3h.9V3.7h-.9v-.6c.2,0,.3,0,.5,0,.9,0,1.8,0,2.7,0,.7,0,1.2,.3,1.4,.9,.2,.6,0,1.1-.5,1.5,0,0-.1,.1-.2,.2,0,0,0,.1,0,.1,.2,.3,.3,.6,.3,1,0,.2,0,.4,0,.5,0,.2,0,.3,.1,.5Zm-2.8-2.5c.6,0,1.1,0,1.7,0,.5,0,.7-.4,.7-.9,0-.4-.3-.7-.8-.7-.4,0-.9,0-1.3,0,0,0-.2,0-.3,0v1.5Z"/>
      <path class="uuid-e3eb60db-12e8-4b09-a26a-5e1108f811a0" d="M68.3,8.2c0,.2-.2,.3-.4,.3-.6,0-1.3,0-1.9,0-.2,0-.3,0-.4-.3,.2-.5,.7-.2,1.1-.4,0-.4-.2-.8-.4-1.2h-1.9c-.2,.4-.3,.8-.4,1.2,.3,.2,.8-.1,1.1,.2,0,.3,0,.4-.3,.4,0,0-.2,0-.3,0-.6,0-1.1,0-1.7,0-.3,0-.4,0-.4-.4,.2-.3,.6-.1,.9-.2,.1-.3,.2-.6,.3-.9,.4-1,.7-2,1.1-3.1,0-.2,.1-.3,.2-.5,0-.2,.3-.3,.5-.3,.2,0,.4,.2,.4,.3,0,.1,0,.3,.1,.4,.4,1.2,.8,2.5,1.3,3.7,0,.1,0,.2,.1,.4,.3,.2,.8-.1,.9,.4Zm-2.9-4.3h-.1c-.2,.7-.5,1.3-.7,2,.5,0,.9,0,1.4,0,0-.1,0-.2,0-.3-.2-.6-.4-1.1-.6-1.7Z"/>
      <path class="uuid-e3eb60db-12e8-4b09-a26a-5e1108f811a0" d="M40.1,3.6h-2.5c-.2,.5,0,1-.1,1.5h-.4c0,0-.1,0-.1-.2,0-.6,0-1.3,0-1.9,.4-.1,3-.1,3.9,0,.2,.2,.2,.4,0,.6-.2,.3-.5,.6-.7,.9-.7,.9-1.4,1.8-2,2.7-.1,.1-.2,.3-.3,.4,.4,.1,1.9,.1,2.5,0,.1-.2,0-.5,0-.7,0-.2,0-.5,0-.7,.1,0,.2,0,.3-.1,0,0,.1,0,.2,0,.2,.7,0,1.4,0,2.1-.2,0-.3,0-.4,0-1.1,0-2.2,0-3.3,0-.2,0-.4,0-.5-.3,.5-.7,1.1-1.4,1.6-2.1,.5-.7,1.1-1.4,1.7-2.2Z"/>
      <path class="uuid-e3eb60db-12e8-4b09-a26a-5e1108f811a0" d="M31.3,3.7v1.5h-.4c-.2-.1-.2-1.4,0-2.1,0,0,.1,0,.2,0,1.2,0,2.4,0,3.6,0,.2,.1,.2,.3,.1,.5,0,0-.1,.2-.2,.3-.9,1.1-1.7,2.3-2.6,3.4,0,.1-.2,.3-.3,.4,.3,.1,1.7,.2,2.5,0,.1-.2,0-.5,0-.8,0-.2,0-.5,.1-.8h.4c0,0,.1,.1,.1,.2,0,.7,.1,1.3,0,2-.1,0-.2,0-.3,0-1.1,0-2.2,0-3.3,0-.2,0-.4,0-.5-.3,0-.1,.2-.3,.3-.5,.9-1.1,1.7-2.3,2.6-3.4,0-.1,.2-.3,.3-.4-.3-.1-1.9-.2-2.4,0Z"/>
      <path class="uuid-e3eb60db-12e8-4b09-a26a-5e1108f811a0" d="M20.6,6v1.6c.3,.2,.8-.1,1,.4l-.2,.3c-.7,0-1.4,0-2.1,0-.2,0-.3,0-.4-.3,.2-.6,.7-.2,1-.4,0-.4,.1-3.4,0-4-.2,0-.4,0-.7,0-.3,0-.4-.2-.2-.6,0,0,.1,0,.2,0,1,0,2,0,3,0,.8,0,1.4,.7,1.4,1.5,0,.8-.6,1.5-1.4,1.5-.3,0-.7,0-1.1,0-.2,0-.3,0-.5,0Zm0-.6c.6,0,1.1,0,1.7,0,.4,0,.7-.5,.7-.9,0-.4-.3-.8-.7-.9-.6,0-1.1,0-1.7,0,0,.6,0,1.2,0,1.8Z"/>
      <path class="uuid-e3eb60db-12e8-4b09-a26a-5e1108f811a0" d="M59.3,7.7c.4,.2,.8,0,1,.3,0,.3,0,.4-.3,.4-.7,0-1.4,0-2.1,0-.2-.1-.3-.3-.2-.5,.3-.3,.6,0,1-.2,0-1.3,0-2.6,0-4-.2,0-.5,0-.7,0-.3,0-.4-.2-.2-.6h2.3c.2,.1,.2,.3,.1,.5-.3,.3-.6,0-1,.2,0,1.3,0,2.6,0,4Z"/>
      <path class="uuid-e3eb60db-12e8-4b09-a26a-5e1108f811a0" d="M25.9,3h2.4c.2,.4,.1,.5-.2,.6-.2,0-.4,0-.6,0,0,1.3,0,2.7,0,4,.2,.1,.4,0,.7,0,.3,0,.4,.2,.2,.6-.8,0-1.5,0-2.3,0,0,0-.1,0-.2-.1,0,0,0-.1,0-.2,.2-.5,.7-.2,1-.3,0-.4,.1-3.5,0-4-.2,0-.4,0-.6,0-.3,0-.4-.2-.2-.6Z"/>
      <path class="uuid-e3eb60db-12e8-4b09-a26a-5e1108f811a0" d="M58.1,2.7c0-.2,0-.3,.2-.4,.5-.2,.9-.7,1.5-.7,.3,.4,.3,.5,0,.7-.4,.2-.8,.4-1.2,.5-.1,0-.3,0-.4,0Z"/>
    </g>
  </g>
</svg>