<?xml version="1.0" encoding="UTF-8"?>
<svg id="uuid-209580b3-e96d-4f22-9712-9807f7556664" data-name="Layer 2" xmlns="http://www.w3.org/2000/svg" width="73.4" height="30.9" viewBox="0 0 73.4 30.9">
  <defs>
    <style>
      .uuid-7a39864f-2c5d-4558-914f-d385172ccdd4 {
        fill: #162954;
      }
    </style>
  </defs>
  <g id="uuid-75645c2a-5f05-4186-95f6-456744d6b171" data-name="Capa 1">
    <g>
      <path class="uuid-7a39864f-2c5d-4558-914f-d385172ccdd4" d="M37.5,22.2c0,.7,0,1.4,.3,2.1,0,0,0,.2,0,.3,0,.6,.3,1.2,.6,1.7,.3,.5,.6,1,1,1.4,.2,.2,.5,.4,.8,.6,0,0,.2,.1,.3,.1,.5,.1,1,.2,1.6,0,.1,0,.2,0,.3,0,0,0,.2,0,.3,0,.6-.3,1.2-.7,1.6-1.2,.3-.4,.5-.7,.5-1.2,0-.2,0-.3,.1-.4,.2-.4,.2-.8,.2-1.2,0-.4,0-.9,0-1.3,0-.5,.1-.9,.3-1.4,.2-.5,.4-.9,.7-1.4,.3-.5,.7-.9,1.1-1.3,.5-.4,1.1-.7,1.7-1,.4-.2,.8-.2,1.2-.4,.2,0,.5-.1,.7-.1,.6,0,1.3-.1,2-.2,.4,0,.9,0,1.3,0,.3,0,.6,0,.9,.1,.1,0,.3,0,.4,.1,.4,.1,.8,.3,1.2,.4,.4,.1,.8,.4,1.2,.6,.9,.6,1.6,1.4,2.2,2.3,.5,.8,.8,1.8,1,2.7,.2,.7,.1,1.4,0,2.1,0,.1,0,.3,0,.4-.3,1.3-1,2.3-2,3.1-.6,.5-1.2,.8-1.9,1-.5,.2-.9,.4-1.4,.4-.2,0-.4,0-.6,.1-.2,0-.4,.1-.7,.1-1.1,.1-2.2,.1-3.3-.2-.2,0-.3,0-.5-.1-.6,0-1.1-.3-1.6-.6-.4-.2-.9-.5-1.3-.8-.5-.4-1-.9-1.4-1.4,0,0-.1-.1-.2-.2,0,0-.2,0-.3,0,0,0,0,0,0,.1-.3,.7-.8,1.2-1.4,1.6-.6,.4-1.2,.7-1.8,.9-.6,.2-1.2,.3-1.8,.5-.2,0-.3,0-.5,0-.6,0-1.3,0-1.9,0-.4,0-.7-.1-1.1-.2-.2,0-.4-.1-.6-.2-.3-.1-.5-.2-.8-.3-1-.5-1.8-1.2-2.3-2.2-.4-.7-.7-1.4-.8-2.3,0-.2,0-.4,0-.7-.1-.7,0-1.3,0-2,.1-.7,.4-1.4,.8-2.1,.2-.4,.5-.8,.8-1.1,.5-.5,1.1-1,1.7-1.4,.6-.4,1.3-.7,2-.9,0,0,.2,0,.3,0,.3-.1,.7-.2,1-.2,.2,0,.4,0,.6,0,.5,0,1,0,1.5,0,.3,0,.6,0,1,.1,.5,0,1,.2,1.4,.4,.2,0,.4,.2,.5,.4,.1,.1,.1,.3,.1,.4,0,.3,0,.6,0,.9,0,.6-.1,1.2-.2,1.8,0,.2,0,.4,0,.6,0,.3-.2,.5-.4,.6-.3,.2-.7,0-.9-.3,0-.3-.2-.5-.2-.8,0-.4-.2-.8-.4-1.2-.3-.6-.7-.9-1.3-1.1-.3-.1-.7-.1-1,0-.1,0-.2,0-.3,0-.5,0-.9,.2-1.3,.6-.4,.3-.6,.8-.7,1.3-.1,.5-.2,1-.2,1.6Zm19,4.1c0-.4,0-.7,0-1.1,0-.5-.2-1-.3-1.5-.2-.5-.4-1.1-.6-1.6-.4-.9-.9-1.7-1.5-2.3-.7-.7-1.4-.9-2.3-.7-.7,.1-1.2,.5-1.4,1.2-.2,.6-.4,1.3-.3,2,.1,1,.3,2,.7,3,0,.1,0,.2,.1,.4,.3,.6,.6,1.3,1.1,1.8,.2,.2,.4,.4,.7,.7,.7,.7,1.6,.8,2.5,.6,0,0,.2,0,.2,0,.5-.2,.9-.5,1-1.1,0,0,0,0,0,0,.2-.4,.3-.8,.2-1.2Z"/>
      <path class="uuid-7a39864f-2c5d-4558-914f-d385172ccdd4" d="M41.8,12.8c0,0-.2,.1-.2,.2-.3,.5-.8,.8-1.2,1.1-.5,.4-1,.7-1.6,.9-.5,.2-1,.3-1.5,.4-.3,0-.5,0-.8,.1-.8,.1-1.5,.1-2.3,0,0,0-.2,0-.2,0-.5,0-1.1-.2-1.6-.4-.2,0-.4-.2-.6-.3-.9-.4-1.6-1-2.2-1.7-.3-.4-.6-.8-.9-1.3-.3-.7-.5-1.3-.6-2.1,0-.8,0-1.5,.1-2.3,0-.3,.2-.6,.3-.8,.1-.3,.2-.6,.4-.9,.3-.7,.8-1.2,1.3-1.7,.5-.5,1-.9,1.7-1.2,.4-.2,.8-.4,1.2-.5,.4,0,.7-.2,1.1-.3,.8,0,1.6,0,2.5,0,.5,0,.9,.2,1.3,.4,.3,.1,.7,.3,1,.5,1,.7,1.8,1.5,2.3,2.6,0,0,0,0,0,.1,0,0,.2,0,.2,0,0,0,.2-.1,.2-.2,.4-.8,1.1-1.4,1.7-1.9,.4-.4,1-.7,1.5-.9,.3-.1,.6-.2,1-.4,.6-.2,1.1-.2,1.7-.2,.4,0,.9,0,1.3,0,.3,0,.6,0,.8,.1,.5,.1,1,.3,1.5,.6,.5,.2,.9,.6,1.3,1,.8,.8,1.4,1.7,1.8,2.8,.2,.5,.1,.7-.4,.8-.4,.1-.8,.4-1.3,.4,0,0,0,0-.1,0-.8,.3-1.5,.6-2.3,.8-.4,.1-.8,.2-1.2,.4,0,0-.2,0-.3,0-.4,.2-.9,.3-1.4,.5-.3,0-.6,.2-.9,.3-.3,.2-.4,.2-.2,.5,.4,.9,1.1,1.7,1.9,2.2,0,0,.2,0,.2,.1,.2,0,.5,.2,.7,.2,.4,.1,.8,.2,1.3,.1,.6-.1,1.1-.3,1.6-.5,.4-.2,.9-.5,1.2-.8,.1-.1,.3-.3,.5-.4,.3-.2,.5-.2,.8,0,0,0,0,0,0,0,.2,.2,.2,.4,0,.6-.2,.3-.3,.7-.6,.9-.6,.7-1.4,1.3-2.3,1.7-.3,.1-.7,.3-1.1,.4-.3,0-.7,.2-1,.2-.1,0-.3,0-.4,0-.6,.1-1.2,.2-1.9,.1-.4,0-.7-.1-1-.2-.1,0-.3,0-.4,0-.3,0-.5,0-.7-.2-.6-.2-1.1-.4-1.6-.7-.4-.2-.8-.5-1.1-.8-.2-.2-.4-.5-.7-.7,0,0-.1-.1-.2-.2Zm-1.2-5.2s-.1,0-.2,0c-.1,0-.2,.1-.4,.2-.5,.2-1,.3-1.5,.5-.4,.2-.9,.3-1.3,.4-.2,0-.3,.1-.5,.2,0,0-.2,0-.3,.1-.2,0-.4,.1-.6,.2-.2,0-.3,.1-.5,.2-.5,.2-1.1,.3-1.6,.5-.2,.1-.3,.2-.2,.4,0,.2,.2,.3,.2,.5,.4,.8,1.1,1.4,1.8,1.9,0,0,.1,0,.2,0,.3,0,.5,.2,.8,.3,.3,0,.6,.2,.9,.1,.6,0,1.2-.2,1.8-.5,.4-.2,.7-.4,1.1-.6,.2-.1,.3-.2,.5-.4,.3-.2,.3-.3,.1-.6,0-.2-.1-.3-.2-.5-.2-.8-.2-1.5-.1-2.3,0-.2,0-.3,0-.5,0,0,0-.2-.1-.2Zm-7.9-1.2c0,.4,0,.9,.2,1.3,0,0,0,.1,0,.2,0,.1,.2,.2,.3,.2,.2,0,.3,0,.5-.1,.4-.1,.7-.3,1.1-.4,.6-.2,1.1-.4,1.7-.6,0,0,.1,0,.2,0,.2-.1,.3-.3,.3-.5,0,0,0-.1,0-.2,0-.2-.1-.4-.2-.5-.3-.7-.7-1.2-1.3-1.6-.1,0-.3-.1-.4-.2-.4,0-.7,0-1.1,0,0,0-.1,0-.2,0-.4,.2-.6,.5-.8,.9-.2,.5-.3,.9-.3,1.4Zm12.7,0c0,0,0,.1,0,.2,0,.4,0,.8,.2,1.2,0,.4,.2,.4,.6,.4,.2,0,.4-.1,.6-.2,.1,0,.3-.1,.4-.2,.4-.1,.9-.3,1.3-.4,.2,0,.4-.2,.7-.2,0,0,.1,0,.2,0,.2-.1,.4-.4,.3-.6-.1-.3-.2-.5-.3-.8-.2-.6-.6-1.1-1.2-1.4-.5-.3-1-.3-1.5-.2,0,0,0,0-.1,0-.4,.3-.7,.6-.9,1.1-.1,.4-.2,.8-.2,1.3Z"/>
      <path class="uuid-7a39864f-2c5d-4558-914f-d385172ccdd4" d="M9.6,15c.7,0,1.5,0,2.2,0,.4,0,.9,0,1.3,.1,0,0,0,0,0,0,.6,0,1,.2,1.5,.5,.8,.4,1.5,1,1.8,1.8,.2,.5,.2,1,.2,1.5,0,.6-.3,1.1-.7,1.5-.2,.3-.6,.6-.9,.8-.6,.4-1.2,.7-1.8,.9-.5,.2-1.1,.3-1.6,.5,0,0-.2,0-.3,0-.6,0-1.2,.1-1.8,.2-.5,0-1,.1-1.5,.1-.8,0-1.5,0-2.3,0-.4,0-.8,0-1.2-.2-.4,0-.8-.1-1.2-.2-.2,0-.3,0-.5-.1-.4-.1-.9-.3-1.3-.5-.3-.2-.5-.3-.8-.5-.2-.1-.4-.3-.5-.6,0,0,0-.1,0-.2-.1-.5-.2-1.1,0-1.6,0-.2,.2-.4,.4-.5,.4-.3,.8-.6,1.2-.8,0,0,.1,0,.2,0,.2-.1,.3-.4,0-.5-.3-.2-.4-.4-.6-.7-.2-.3-.3-.7-.2-1,0-.5,.3-1,.5-1.4,.4-.6,.9-1.1,1.4-1.6,.2-.2,.5-.4,.7-.6,0,0,0,0,.1-.1,.1-.1,0-.2,0-.3-.3-.2-.7-.4-1-.6-.8-.5-1.4-1.1-1.8-2-.2-.4-.4-.9-.3-1.4,0-.4,.1-.8,.2-1.2,0-.1,0-.2,.1-.3,.4-.7,.9-1.3,1.6-1.8,.3-.2,.7-.4,1.1-.6,.4-.1,.9-.3,1.4-.4,.3,0,.5-.1,.8-.2,.2,0,.5,0,.7-.1,.7,0,1.3-.1,2,0,0,0,.1,0,.2,0,.3,0,.5,0,.7-.4,.1-.3,.2-.5,.4-.7,.3-.8,.9-1.3,1.6-1.7,0,0,.2,0,.2-.1,.3-.2,.6-.2,1-.2,.3,0,.5,0,.8,0,.3,0,.5,0,.7,.2,.1,0,.2,.1,.3,.2,.4,.2,.7,.6,.8,1,.1,.4,0,.9-.4,1.1-.6,.4-1.1,.4-1.7,.2-.4-.2-.8-.2-1.1-.3-.3,0-.6,0-.9,.3-.2,.2-.2,.4,0,.5,.2,0,.3,.2,.5,.2,.4,0,.8,.3,1.2,.4,.3,.1,.5,.3,.8,.4,.8,.5,1.5,1.1,1.9,2,.3,.7,.4,1.4,.2,2.2-.3,1.2-.9,2.1-2,2.7-.5,.3-1.1,.6-1.7,.8,0,0-.1,0-.2,0-.4,0-.8,.2-1.1,.3-.3,0-.6,.1-.9,.1-1,0-2.1,0-3.1,0-.2,0-.3,0-.5,0-.2,0-.4,0-.6,.2-.3,.4-.6,.8-.8,1.2-.1,.3,0,.5,.1,.8,.1,.2,.3,.3,.5,.3,.4,.1,.8,.2,1.2,.2,.8,0,1.6,0,2.4,0,0,0,.2,0,.3,0h0Zm-3.7-7.3h0c0,.1,0,.2,0,.4,0,.5,0,1,.3,1.5,.3,.5,.6,.9,1.2,1,.3,0,.5,.1,.8,.1,.6,0,1-.2,1.5-.5,.6-.5,.8-1.1,.8-1.8,0-.7,0-1.4-.2-2.1-.1-.3-.3-.6-.5-.9-.1-.2-.3-.3-.4-.4-.4-.2-.8-.3-1.2-.3-.3,0-.6,0-.9,.1-.5,.2-.9,.5-1.1,1-.2,.5-.4,.9-.4,1.5,0,.1,0,.3,0,.4Zm1.6,13.2h0c.2,0,.4,0,.7,0,.7,0,1.4,0,2.1-.2,0,0,0,0,0,0,.4,0,.7-.2,1-.4,.4-.3,.6-.6,.6-1.1,0-.4-.2-.6-.5-.8-.3-.1-.5-.2-.8-.2-.3,0-.6,0-.9,0-1.6,0-3.2,0-4.8-.1-.2,0-.4,0-.5,0-.3,.2-.6,.5-.8,.8,0,.2-.1,.4,0,.6,.1,.3,.2,.5,.5,.7,.3,.2,.6,.4,.9,.4,0,0,.1,0,.2,0,.3,0,.6,.1,.9,.2,.5,0,1,0,1.6,0Z"/>
      <path class="uuid-7a39864f-2c5d-4558-914f-d385172ccdd4" d="M69.3,15.4c-1.1,0-2.1,0-3.2,0-.2,0-.4,0-.6-.1-.2-.1-.4-.3-.4-.6,0-.2,0-.3,.1-.4,.1-.1,.3-.2,.4-.3,.1,0,.3-.1,.4-.2,.2-.1,.3-.3,.3-.6,0-.1,0-.2,0-.4,0-.5,0-1-.2-1.5,0-.2,0-.4-.1-.7-.1-.6-.2-1.2-.3-1.8,0-.5-.2-1-.3-1.5-.1-.4-.3-.8-.6-1.2-.2-.2-.4-.3-.6-.3-.2,0-.5,0-.7,0-.4,0-.7,.2-1,.5-.3,.3-.5,.7-.6,1.1,0,.3-.1,.7-.1,1,0,1.4,0,2.7,0,4.1,0,.2,0,.4,.1,.6,0,.2,.2,.3,.3,.4,.2,.1,.4,.2,.6,.3,.2,0,.4,.1,.5,.3,.3,.4,.1,.8-.3,1-.2,0-.4,0-.5,0-.5,0-1,0-1.5,0-1.2,0-2.3,0-3.5,0-.5,0-1,0-1.5,0-.2,0-.4,0-.6-.1-.3-.1-.3-.4-.3-.6,0-.3,.1-.4,.4-.5,.3,0,.5-.2,.7-.3,.3-.2,.5-.5,.5-.8,0-.1,0-.3,0-.4,0-1.8,0-3.6,0-5.5,0-.2,0-.4-.1-.6,0-.3-.3-.5-.6-.7-.2-.1-.4-.2-.6-.3-.2-.1-.3-.3-.2-.6,0-.3,.2-.5,.5-.6,.5-.1,.9-.3,1.4-.5,.7-.2,1.4-.5,2-.7,.3-.1,.6-.2,.9-.3,.3-.1,.6-.2,.8-.3,.1,0,.2,0,.4-.1,.2,0,.4,0,.4,.3,0,0,0,.2,0,.3,0,.5,0,1,0,1.6,0,0,0,.2,0,.2,0,.1,.1,.2,.2,.1,0,0,.2-.1,.2-.2,.2-.2,.4-.4,.5-.6,.3-.3,.6-.6,1-.9,.3-.2,.6-.3,1-.4,.2,0,.4-.1,.6-.2,.3,0,.6-.1,.9,0,.4,0,.7,0,1.1,.2,.4,0,.7,.3,1,.4,.2,.1,.4,.3,.5,.5,.3,.3,.5,.7,.7,1.1,.2,.4,.3,.8,.5,1.2,0,0,0,.2,0,.3,0,.4,.2,.8,.3,1.3,.1,.4,.2,.9,.3,1.3,0,.2,0,.4,.1,.6,.2,.7,.3,1.5,.5,2.2,0,0,0,.1,0,.2,0,.4,.2,.8,.3,1.2,.1,.6,.5,.9,1,1.1,0,0,.2,0,.3,0,.5,.2,.7,.8,.3,1.2-.1,.1-.3,.2-.5,.2-.3,0-.5,0-.8,0-.9,0-1.8,0-2.6,0h0Z"/>
      <path class="uuid-7a39864f-2c5d-4558-914f-d385172ccdd4" d="M24.7,22.9c0,.2,.1,.2,.2,.3,.5,.6,1,1.2,1.6,1.9,0,.1,.2,.2,.3,.3,0,0,.2,.2,.3,.2,0,0,.1-.1,.2-.2,.5-.5,.8-1.1,1.2-1.8,.2-.4,.4-.7,.5-1.1,.2-.6,.3-1.3,0-1.9-.2-.4-.2-.8-.2-1.2,0-.6,.7-1,1.3-.8,.4,.2,.7,.4,.9,.9,0,0,0,.2,.1,.3,0,.1,.1,.3,.1,.5,0,.5,0,.9-.2,1.4,0,.1,0,.2,0,.3,0,.4-.2,.8-.4,1.2-.5,1.2-1.2,2.3-2.1,3.3,0,.1-.2,.2-.3,.3,0,.1,0,.3,0,.4,0,0,.1,.2,.2,.3,.3,.3,.6,.7,1,1,.3,.3,.6,.5,.9,.8,.2,.2,.5,.3,.8,.4,.2,0,.3,.2,.3,.4,0,.3-.1,.4-.4,.5-.1,0-.2,0-.3,0-1.4,0-2.9,0-4.3,0,0,0,0,0,0,0-.3,0-.5,0-.7-.3-.1-.1-.2-.2-.3-.3-.2-.2-.3-.2-.6,0-.1,0-.3,.1-.4,.2-.4,.2-.9,.4-1.3,.5-.1,0-.3,0-.4,.1-.3,.1-.7,.2-1,.2-.5,0-1,0-1.5,0-.5-.1-.9-.2-1.4-.4-.5-.2-.9-.5-1.3-.9-.8-.8-1.1-1.8-1-2.9,0-.5,.2-.9,.4-1.3,.3-.6,.9-1,1.4-1.4,.2-.1,.4-.3,.6-.4,.1,0,.2-.1,.3-.2,.3-.2,.3-.3,.1-.6-.3-.4-.5-.9-.7-1.4,0-.1,0-.3-.1-.5,0-.5,0-.9,0-1.4,0-.3,.2-.6,.4-.9,.4-.6,.9-1.1,1.5-1.4,.4-.2,.8-.4,1.3-.5,.1,0,.3,0,.5-.1,.6,0,1.3-.2,1.9,0,.2,0,.4,0,.6,0,.1,0,.3,0,.4,0,.6,.2,1.2,.5,1.6,1,.1,.2,.3,.3,.3,.5,0,0,0,.1,0,.2,.2,.4,.2,.9,.2,1.4,0,.3-.1,.6-.3,.9-.3,.6-.7,1.1-1.2,1.5-.4,.3-.7,.5-1.1,.7,0,0-.2,0-.2,.2Zm-4.5,3.2c0,.4,0,.8,.3,1.2,.2,.3,.4,.5,.7,.8,.4,.4,.9,.5,1.4,.5,.1,0,.3,0,.4,0,.2,0,.4-.1,.6-.3,.1-.1,.1-.3,0-.4,0,0,0,0,0,0-.3-.3-.6-.6-.9-1-.5-.6-.9-1.2-1.4-1.8,0,0-.1-.1-.2-.2-.1-.1-.3-.1-.4,0-.3,.4-.6,.8-.5,1.3Zm3.1-4.9c0,0,.2,0,.2,0,.5-.3,.9-.8,1.1-1.4,0-.4,0-.8-.1-1.1-.2-.3-.4-.5-.8-.6,0,0-.2,0-.3,0-.5,.1-.8,.4-.9,1,0,.4,0,.7,0,1,0,.4,.3,.8,.6,1.1,0,0,.1,.1,.2,.2Z"/>
      <path class="uuid-7a39864f-2c5d-4558-914f-d385172ccdd4" d="M20.8,15c-1.1,0-2.2,0-3.3,0-.2,0-.4,0-.6,0-.3,0-.5-.4-.4-.8,0-.3,.2-.4,.5-.5,.3,0,.5-.2,.7-.3,.4-.2,.5-.6,.5-1,0-1.6,0-3.2,0-4.8,0-.4,0-.8,0-1.2,0-.4-.2-.6-.5-.8-.2-.1-.4-.2-.6-.3-.3-.1-.3-.4-.3-.7,0-.2,.2-.5,.5-.6,.6-.2,1.1-.4,1.7-.6,.3-.1,.6-.2,1-.3,.2,0,.5-.2,.7-.3,.4-.1,.7-.3,1.1-.4,.2,0,.5-.2,.7-.3,.1,0,.3,0,.4-.1,.2,0,.3,0,.4,.3,0,0,0,.2,0,.3,0,.4,0,.9,0,1.3,0,0,0,.2,0,.3,0,0,.1,.1,.2,0,0,0,0,0,.1-.1,0,0,.1-.2,.2-.3,.4-.7,1-1.2,1.7-1.5,.5-.2,1-.3,1.5-.3,.2,0,.3,0,.5,0,.4,0,.7,.2,1,.4,.2,.1,.2,.2,.1,.4-.1,.3-.3,.6-.4,.9,0,0,0,.2-.1,.3-.1,.4-.3,.9-.4,1.3,0,.1,0,.2-.1,.4,0,.2-.2,.4-.2,.6,0,.2,0,.3-.2,.5-.4,.3-.8,.2-1-.3,0-.2-.1-.4-.3-.6-.3-.4-.8-.6-1.3-.4-.3,0-.6,.2-.8,.5,0,0,0,.1-.1,.2-.2,.5-.3,1-.3,1.5,0,.7,0,1.5,0,2.2,0,.8,0,1.6,0,2.4,0,.1,0,.2,0,.4,0,.4,.2,.7,.6,.8,.2,0,.5,.2,.7,.3,.3,0,.4,.3,.5,.6,0,.4-.1,.6-.4,.7-.2,0-.4,.1-.7,.1-1.1,0-2.2,0-3.3,0Z"/>
    </g>
  </g>
</svg>