<?xml version="1.0" encoding="UTF-8"?>
<svg id="uuid-408bd4be-4f4c-4eff-b88f-c89684a09b6e" data-name="Layer 2" xmlns="http://www.w3.org/2000/svg" width="86" height="47.3" viewBox="0 0 86 47.3">
  <defs>
    <style>
      .uuid-8e283b67-69ce-43e2-9421-b10a25323aea {
        fill: #162954;
        fill-rule: evenodd;
      }
    </style>
  </defs>
  <g id="uuid-f1311291-6d86-496a-9ad5-135dd4ec52d0" data-name="Capa 1">
    <g>
      <path class="uuid-8e283b67-69ce-43e2-9421-b10a25323aea" d="M43.1,47.3c-7.4,0-14.7-.9-21.8-3.1-4.6-1.4-8.9-3.4-12.8-6.2-2.8-2-5.2-4.4-6.8-7.5C.4,28.1-.2,25.5,0,22.7c.2-2.7,1.2-5.1,2.8-7.3,2-2.8,4.5-5,7.3-6.8,4.3-2.8,9-4.7,13.9-6,3.5-1,7.1-1.6,10.7-2C38.6,0,42.4,0,46.2,0c7.2,.3,14.3,1.4,21.1,4,3.9,1.5,7.6,3.3,10.9,5.9,2.5,1.9,4.7,4.2,6.1,7,2.6,5.1,2.2,10.1-1,14.9-1.9,2.8-4.4,5-7.2,6.9-4.1,2.7-8.7,4.6-13.4,6-3.4,1-6.8,1.6-10.3,2.1-3.1,.4-6.1,.6-9.2,.6Zm0-.6c2.8,0,5.6-.2,8.4-.5,4-.5,7.9-1.2,11.7-2.4,4.5-1.4,8.7-3.2,12.6-5.8,2.7-1.8,5.1-4,6.9-6.8,2.6-4.1,3.2-8.4,1.3-13-1.1-2.5-2.8-4.6-4.8-6.4-3.1-2.8-6.6-4.8-10.5-6.4-7.2-3-14.8-4.4-22.6-4.7-3.9-.2-7.7,0-11.6,.4-4,.4-7.9,1.2-11.7,2.3-4.7,1.4-9.1,3.3-13.2,6-2.6,1.8-4.9,3.8-6.6,6.4-3.4,5-3.4,10.6,0,15.6,1.5,2.2,3.4,4.1,5.5,5.6,3.7,2.8,7.8,4.7,12.2,6.1,7.2,2.4,14.7,3.4,22.4,3.3Z"/>
      <path class="uuid-8e283b67-69ce-43e2-9421-b10a25323aea" d="M43.2,46.3c-7.6,0-14.9-.9-22-3.3-4.3-1.4-8.3-3.3-12-6-2.1-1.6-3.9-3.4-5.4-5.5-3.3-5-3.3-10.4,0-15.4,1.7-2.6,4-4.6,6.5-6.3,4-2.7,8.4-4.6,13-5.9,3.8-1.1,7.6-1.9,11.5-2.3,3.8-.4,7.6-.6,11.4-.4,7.7,.3,15.1,1.7,22.2,4.6,3.8,1.6,7.3,3.6,10.3,6.3,2,1.8,3.6,3.8,4.7,6.3,1.9,4.5,1.3,8.7-1.3,12.7-1.8,2.7-4.2,4.9-6.8,6.7-3.8,2.6-8,4.4-12.4,5.7-3.8,1.1-7.6,1.9-11.5,2.4-2.8,.3-5.6,.5-8.3,.5Zm-.3-43.3s0,0,0,0c-2.6,.2-5.2,.3-7.8,.6-3.9,.4-7.8,1.1-11.6,2.3-4.3,1.3-8.4,3-12.1,5.5-2.4,1.6-4.5,3.5-6.1,6-2.4,3.8-2.7,7.8-.7,11.8,1.1,2.3,2.8,4.1,4.7,5.7,2.8,2.3,6,4,9.4,5.4,6.2,2.5,12.7,3.7,19.3,4.1,4,.2,8,.2,11.9-.2,3.9-.4,7.7-1,11.5-2.1,4.5-1.2,8.8-2.9,12.7-5.5,2.6-1.7,4.8-3.6,6.5-6.2,2.9-4.4,2.8-9.3,0-13.6-1.3-1.9-2.9-3.5-4.8-4.9-3.6-2.7-7.6-4.5-11.8-5.8-6.9-2.2-13.9-3-21.1-3Z"/>
      <path class="uuid-8e283b67-69ce-43e2-9421-b10a25323aea" d="M13.5,35.9c0-.7,0-1.4,0-2.1,0,0,.2-.2,.3-.2,.4,0,.7,0,1.1,0v-8.6h-1.4v-2.4c0,0,.2,0,.3,0,1.7,0,3.4,0,5.2,0,3.3,0,5.3,1.8,5.8,5,.2,1.5,.2,3-.2,4.5-.7,2.3-2.3,3.7-4.6,3.9-2.1,.1-4.2,0-6.3,.1,0,0,0,0-.1,0Zm4-11v8.7c.6,0,1.2,0,1.7,0,1.3,0,2.2-.7,2.6-1.9,.6-1.6,.6-3.2,0-4.8-.4-1-1.1-1.7-2.2-1.8-.7-.1-1.4,0-2.1-.1Z"/>
      <path class="uuid-8e283b67-69ce-43e2-9421-b10a25323aea" d="M59.7,22.4c-.7,.7-1.4,1.4-2.2,2.1,1.5,.6,2.5,1.5,3.1,2.9,.5,1.1,.6,2.2,.6,3.4h-7.4c-.1,1.9,1.9,3.3,3.6,2.6,.7-.3,1.3-.8,1.7-1.4,0-.1,.2-.2,.3-.4,.7,.4,1.4,.7,2.1,1.1-.4,.9-1,1.7-1.8,2.2-2.8,2.1-7.6,1.1-8.5-3.4-.4-2,0-3.9,1.3-5.5,.6-.7,1.4-1.2,2.4-1.6,.2,0,.3-.2,.4-.4,.3-.5,.5-1,.7-1.5,0-.1,.2-.2,.3-.2,1.2,0,2.3,0,3.5,0,0,0,0,0,0,0Zm-1.3,6.2c-.3-1.2-1.3-2-2.4-1.9-.9,0-1.9,1-2,1.9h4.4Z"/>
      <path class="uuid-8e283b67-69ce-43e2-9421-b10a25323aea" d="M74.2,30.7h-7.4c-.2,1.8,1.8,3.2,3.4,2.7,.8-.3,1.4-.8,1.9-1.5,0-.1,.2-.2,.3-.4,.7,.4,1.4,.7,2.1,1.1-.8,1.6-1.9,2.6-3.6,3.1-3.4,.9-6.5-1.4-6.8-4.8-.1-1.5,0-2.9,.9-4.1,1.1-1.6,2.5-2.6,4.5-2.5,2.1,.1,3.6,1.3,4.4,3.3,.4,.9,.5,1.9,.5,2.9,0,0,0,.2,0,.3Zm-7.3-2.2h4.5c-.2-1.1-1.2-1.9-2.2-1.9-1,0-1.9,.7-2.2,1.9Z"/>
      <path class="uuid-8e283b67-69ce-43e2-9421-b10a25323aea" d="M27.4,30.2c0-1.4,.4-2.7,1.3-3.8,2-2.6,5.8-2.6,7.8,0,1.6,2.1,1.7,5.4,.1,7.5-2.2,3-6.6,2.7-8.4-.6-.5-1-.7-2-.8-3.1Zm7.5,0c0-.9-.2-1.8-.6-2.4-.9-1.5-2.7-1.6-3.6,0-.9,1.5-.9,3.2,0,4.7,.9,1.5,2.7,1.4,3.6,0,.4-.7,.5-1.5,.6-2.3Z"/>
      <path class="uuid-8e283b67-69ce-43e2-9421-b10a25323aea" d="M44.5,25.7c.8-1.1,1.9-1.3,3.1-1.3,.9,0,.9,0,.9,.9,0,.5,0,1.1,0,1.6,0,0,0,0,0,.1-.3,0-.7,0-1,0-1.7,0-2.4,.8-2.4,2.2,0,1.4,0,2.8,0,4.2h1.5v2.1c-.1,0-.2,0-.3,0-1.7,0-3.5,0-5.2,0-.3,0-.4,0-.4-.4,0-.6,0-1.1,0-1.7h1.6v-6.7c-.5,0-1,0-1.4,0-.2,0-.3,0-.3-.3,0-.5,0-1.1,0-1.6,0-.2,0-.3,.3-.3,1.2,0,2.3,0,3.4,0,.2,0,.3,0,.3,.3,0,.2,0,.5,0,.8Z"/>
      <path class="uuid-8e283b67-69ce-43e2-9421-b10a25323aea" d="M23,14.1c1.5,.7,2.1,1.9,1.7,3.5-.3,1.2-1.1,2-2.5,2.1-1.4,0-2.8,0-4.2,0v-.6h1.1V9.7h-1.1v-.6c.1,0,.3,0,.4,0,1.1,0,2.2,0,3.3,0,2.2,0,3.4,2.1,2.4,4-.1,.2-.3,.4-.4,.6-.2,.2-.4,.3-.6,.4Zm-2.8,5c.6,0,1.2,0,1.7,0,.8,0,1.4-.5,1.6-1.3,.2-.5,.2-1.1,.1-1.7,0-.7-.5-1.2-1.2-1.4-.7-.2-1.5-.1-2.3-.1v4.5Zm0-5.3c.6,0,1.1,0,1.6,0,.7,0,1.2-.5,1.3-1.2,0-.5,.1-1.1,0-1.6-.3-1.2-1.4-1.4-2.9-1.2v4Z"/>
      <path class="uuid-8e283b67-69ce-43e2-9421-b10a25323aea" d="M55.9,19.5h-2.2v-.6h1.1V9.2h-1.1v-1.1c.7,0,1.3,0,2,0,0,0,.2,.2,.2,.3,0,1.3,0,2.6,0,3.9v.5c.2-.1,.3-.3,.4-.3,.4-.3,.8-.7,1.3-.9,1.4-.6,2.6,.1,2.7,1.7,0,1.3,0,2.5,0,3.8,0,.6,0,1.1,0,1.7h1.1v.6h-2.3v-.4c0-1.6,0-3.2,0-4.8,0-.3,0-.6-.1-.9-.2-.6-.6-.9-1.2-.7-.7,.2-1.3,.6-1.9,1.1,0,0-.1,.3-.1,.4,0,1.7,0,3.3,0,5,0,.1,0,.3,0,.5Z"/>
      <path class="uuid-8e283b67-69ce-43e2-9421-b10a25323aea" d="M68.4,17.4c.2,.1,.5,.3,.7,.4-.6,1-1.5,1.6-2.7,1.8-2.7,.5-4.8-1.5-4.5-4.5,0-1,.4-1.9,1.1-2.6,1.6-1.7,4.1-1.4,5.4,.5,.5,.8,.7,1.6,.7,2.5h-6c-.2,1.1,.5,2.5,1.4,3,1.2,.6,2.4,.3,3.7-1.2Zm-.3-2.6c-.1-1.5-1.2-2.6-2.6-2.6-1.2,0-2.3,1.3-2.3,2.6h4.9Z"/>
      <path class="uuid-8e283b67-69ce-43e2-9421-b10a25323aea" d="M44.5,15.7c0,1.1-.3,2.1-1.1,3-1.3,1.5-3.5,1.5-4.9,.2-1.7-1.6-1.7-4.7,0-6.3,1.6-1.7,4.3-1.2,5.5,.9,.4,.7,.6,1.5,.5,2.3Zm-6.1,0c0,.8,.2,1.6,.6,2.3,.9,1.4,2.7,1.4,3.6,0,.9-1.3,.9-3.4,0-4.7-.9-1.3-2.6-1.2-3.5,0-.5,.7-.6,1.5-.7,2.3Z"/>
      <path class="uuid-8e283b67-69ce-43e2-9421-b10a25323aea" d="M52,17.2c.2,.1,.5,.2,.7,.4-.4,1.4-1.9,2.4-3.4,2.2-1.6-.2-2.7-1.3-3.1-3-.3-1.6,0-3,1-4.3,1.2-1.3,3.2-1.3,4.2-.1,0,0,0,0,.2,.1v-.8c.3,0,.5,0,.7,0,0,0,.2,.1,.2,.2,0,.7,0,1.5,0,2.2,0,0-.1,.2-.2,.2-.1,0-.2,0-.4,0-.2,0-.3,0-.4-.3-.1-.3-.3-.7-.5-1-.8-1-2.1-1-3,0-.5,.6-.7,1.2-.8,2,0,1,0,2,.6,2.8,.8,1.4,2.5,1.5,3.6,.2,.2-.3,.4-.6,.6-.9Z"/>
      <path class="uuid-8e283b67-69ce-43e2-9421-b10a25323aea" d="M28.5,11.9v1.4c.6-1.2,1.4-1.8,2.8-1.6v1c-.1,0-.2,0-.3,0-1.8,0-2.4,1.1-2.5,2.3,0,1.3,0,2.6,0,4,.3,0,.6,0,1,0,0,0,.2,.2,.2,.3,0,.1,0,.3-.2,.3-1.2,0-2.3,0-3.5,0v-.6h1.3v-6.5c-.4,0-.7,0-1.1,0-.3,0-.3-.2-.3-.4,0-.2,0-.3,.3-.3,.7,0,1.5,0,2.3,0Z"/>
      <path class="uuid-8e283b67-69ce-43e2-9421-b10a25323aea" d="M33.1,12.7v-.8h2.2v7.1c.3,0,.6,0,.8,0,.2,0,.3,.1,.3,.3,0,.2,0,.3-.3,.3-1,0-2,0-3,0v-.6h1v-6.4h-1.1Z"/>
      <path class="uuid-8e283b67-69ce-43e2-9421-b10a25323aea" d="M34.1,9c0-.4,.3-.8,.7-.8s.7,.4,.7,.8c0,.4-.3,.8-.7,.8-.4,0-.7-.4-.7-.8Z"/>
      <path class="uuid-8e283b67-69ce-43e2-9421-b10a25323aea" d="M75.8,24.9c0,.4-.3,.7-.7,.7-.4,0-.7-.3-.7-.7,0-.4,.3-.8,.7-.8,.4,0,.7,.3,.7,.7Zm-.1,0c0-.3-.3-.6-.6-.6-.3,0-.5,.3-.5,.6,0,.3,.3,.6,.6,.6,.3,0,.6-.3,.6-.6Z"/>
      <path class="uuid-8e283b67-69ce-43e2-9421-b10a25323aea" d="M75.6,24.9c0,.3-.3,.6-.6,.6-.3,0-.6-.3-.6-.6,0-.3,.2-.6,.5-.6,.3,0,.6,.2,.6,.6Zm-.4,.5c0,0,0-.1,.1-.2,0-.2,0-.3,0-.5,0-.1,0-.3-.2-.3-.1,0-.4,0-.4,0,0,.2,0,.5,0,.7,0,0,0,0,.1,0,0,0,0-.2,.1-.3,0,.1,.1,.3,.2,.4Z"/>
      <path class="uuid-8e283b67-69ce-43e2-9421-b10a25323aea" d="M75.2,25.4c0-.1-.1-.2-.2-.4,0,0,0,.2-.1,.3,0,0,0,0-.1,0,0-.3,0-.5,0-.7,0,0,.3,0,.4,0,0,0,.2,.2,.2,.3,0,.2,0,.3,0,.5,0,0,0,.1-.1,.2Z"/>
    </g>
  </g>
</svg>