<?xml version="1.0" encoding="UTF-8"?>
<svg id="uuid-aa72c46a-32b7-4ef2-8762-40865d9c2037" data-name="Layer 2" xmlns="http://www.w3.org/2000/svg" width="75.3" height="24" viewBox="0 0 75.3 24">
  <defs>
    <style>
      .uuid-484047ff-bd51-4c39-8d32-23da8404487a {
        fill: #fff;
      }
    </style>
  </defs>
  <g id="uuid-fb0feb59-33e9-4420-ac99-df058ad1b20c" data-name="Capa 1">
    <g id="uuid-3366b661-71dc-4884-86a1-ced916659cfa" data-name="ICPzCA">
      <g>
        <path class="uuid-484047ff-bd51-4c39-8d32-23da8404487a" d="M6.3,11.9c-.2,1.9-.5,3.8-.7,5.8-.3,1.9-.5,3.9-.8,5.8H0C1,17.3,1.9,11.1,2.9,4.9H7.9c1.1,3.9,2.3,7.8,3.4,11.6,.4-1.4,.8-2.8,1.2-4.2,.7-2.4,1.4-4.7,2.1-7.1,0-.2,.3-.4,.4-.4,1.6,0,3.1,0,4.8,0,1,6.2,1.9,12.4,2.9,18.6h-4.8c-.5-3.9-1-7.8-1.5-11.6-.2,.8-.5,1.8-.7,2.7-.8,2.8-1.6,5.6-2.4,8.4-.1,.4-.3,.5-.7,.5-.8,0-1.6,0-2.3,0-.4,0-.6-.1-.7-.6-1.1-3.7-2.1-7.4-3.2-11.1Z"/>
        <path class="uuid-484047ff-bd51-4c39-8d32-23da8404487a" d="M44.5,14.3c0,5.4-4.4,9.8-10,9.8-5.5,0-10-4.4-10-9.7,0-5.5,4.4-9.9,9.9-9.9,5.6,0,10,4.3,10,9.8Zm-5.1,0s0,0,0,0c0-1.3-.2-1.8-.6-2.6-.8-1.7-2.1-2.8-4.1-2.8-2.1,0-3.5,.9-4.5,2.7-.7,1.4-.8,2.8-.5,4.3,.7,3.6,4.8,5.2,7.6,2.9,1.4-1.1,2-2.7,2-4.5Z"/>
        <path class="uuid-484047ff-bd51-4c39-8d32-23da8404487a" d="M66.9,14.2c0,5.4-4.4,9.8-10,9.8-5.5,0-10-4.4-10-9.8,0-5.3,4.5-9.8,9.8-9.8,5.8,0,10.2,4.2,10.2,9.8Zm-5,0c0-.8-.2-1.5-.4-2.2-1.2-3.4-5.2-4.4-7.7-2.1-1.6,1.6-1.9,3.5-1.5,5.6,.6,3.4,4.3,5.1,7.1,3.4,1.8-1.1,2.6-2.7,2.5-4.8Z"/>
        <path class="uuid-484047ff-bd51-4c39-8d32-23da8404487a" d="M75.3,23.5h-5.1V4.9h5.1V23.5Z"/>
        <path class="uuid-484047ff-bd51-4c39-8d32-23da8404487a" d="M38.9,1.8c0,1.1-.8,1.8-1.8,1.8-1.1,0-1.9-.8-1.9-1.8C35.2,.8,36,0,37,0c1.1,0,1.8,.8,1.8,1.8Z"/>
        <path class="uuid-484047ff-bd51-4c39-8d32-23da8404487a" d="M33.9,1.8c0,1.1-.7,1.9-1.8,1.9-1.1,0-1.9-.8-1.9-1.9C30.2,.8,31.1,0,32.1,0c1,0,1.8,.8,1.8,1.8Z"/>
      </g>
    </g>
  </g>
</svg>