<?xml version="1.0" encoding="UTF-8"?>
<svg id="uuid-1e0b6469-ab93-4831-a894-7875c425a024" data-name="Layer 2" xmlns="http://www.w3.org/2000/svg" width="74.7" height="64.3" viewBox="0 0 74.7 64.3">
  <defs>
    <style>
      .uuid-ed1a461e-96b3-4ee6-bb1c-b86baff909cf {
        fill: #81aa66;
      }

      .uuid-8e185edb-5930-4fb6-96d5-2811ca5a504b {
        fill: #162954;
      }
    </style>
  </defs>
  <g id="uuid-d55e973a-aeb1-4b6b-97cf-4f49c57b3ce0" data-name="Capa 1">
    <g>
      <path class="uuid-8e185edb-5930-4fb6-96d5-2811ca5a504b" d="M29.9,63.3C12.6,59.1,2,41.7,6.2,24.5S27.9-3.3,45.2,.9c17.3,4.2,28,21.7,23.8,38.9-4.2,17.2-21.7,27.8-39,23.5ZM45,1.5C28-2.7,10.8,7.7,6.7,24.6c-4.1,16.9,6.3,34,23.4,38.2s34.2-6.2,38.4-23.1C72.5,22.8,62.1,5.6,45,1.5Z"/>
      <path class="uuid-8e185edb-5930-4fb6-96d5-2811ca5a504b" d="M30.5,61.1c-16-3.9-25.8-20.1-21.9-36C12.5,9.1,28.7-.7,44.6,3.2s25.8,20.1,21.9,36c-3.9,16-20.1,25.8-36,21.9ZM44.5,3.7C28.8-.1,13,9.5,9.1,25.2c-3.8,15.7,5.8,31.5,21.5,35.4,15.7,3.8,31.5-5.8,35.4-21.5,3.8-15.7-5.8-31.5-21.5-35.4Z"/>
      <polygon class="uuid-8e185edb-5930-4fb6-96d5-2811ca5a504b" points="43 12.4 42.2 11.8 41.2 12.3 41.5 11.2 40.8 10.5 41.8 10.4 42.4 9.5 42.7 10.5 43.8 10.7 43 11.4 43 12.4"/>
      <polygon class="uuid-8e185edb-5930-4fb6-96d5-2811ca5a504b" points="47.6 14.3 46.9 13.5 45.9 13.6 46.5 12.7 46.1 11.7 47.1 12 47.9 11.4 47.9 12.4 48.8 13 47.8 13.3 47.6 14.3"/>
      <polygon class="uuid-8e185edb-5930-4fb6-96d5-2811ca5a504b" points="51.5 17.3 51.1 16.3 50.1 16.1 50.9 15.4 50.8 14.4 51.7 14.9 52.6 14.5 52.4 15.5 53.1 16.3 52.1 16.4 51.5 17.3"/>
      <polygon class="uuid-8e185edb-5930-4fb6-96d5-2811ca5a504b" points="54.3 20.8 54.2 19.7 53.3 19.3 54.2 18.8 54.4 17.8 55.1 18.5 56.1 18.4 55.6 19.3 56.1 20.2 55.1 20 54.3 20.8"/>
      <polygon class="uuid-8e185edb-5930-4fb6-96d5-2811ca5a504b" points="38.1 12 37.1 11.5 36.2 12 36.4 11 35.7 10.3 36.7 10.1 37.1 9.2 37.6 10.1 38.6 10.3 37.9 11 38.1 12"/>
      <polygon class="uuid-8e185edb-5930-4fb6-96d5-2811ca5a504b" points="33.2 12.4 32.2 12.3 31.5 13 31.3 12 30.4 11.6 31.3 11.1 31.4 10.1 32.1 10.8 33.2 10.5 32.7 11.5 33.2 12.4"/>
      <polygon class="uuid-8e185edb-5930-4fb6-96d5-2811ca5a504b" points="28.6 14.2 27.7 14.5 27.4 15.5 26.7 14.7 25.7 14.7 26.3 13.8 26 12.9 27 13.2 27.8 12.6 27.8 13.6 28.6 14.2"/>
      <polygon class="uuid-8e185edb-5930-4fb6-96d5-2811ca5a504b" points="51.8 46.2 51.3 47.1 50.3 47.3 51.1 48 50.9 49 51.8 48.5 52.8 49 52.6 48 53.3 47.2 52.3 47.1 51.8 46.2"/>
      <polygon class="uuid-8e185edb-5930-4fb6-96d5-2811ca5a504b" points="24.9 49.1 23.9 49 23.4 48 23 48.9 21.9 49.1 22.6 49.8 22.4 50.8 23.4 50.4 24.3 50.9 24.1 49.8 24.9 49.1"/>
      <g>
        <g>
          <path class="uuid-8e185edb-5930-4fb6-96d5-2811ca5a504b" d="M34.1,48.9c.7,.1,1.3,.5,1.7,1.2,.4,.7,.5,1.4,.4,2.3-.2,.8-.5,1.5-1.2,2-.6,.5-1.3,.7-2.1,.5-.7-.1-1.3-.5-1.8-1.2-.4-.7-.6-1.4-.4-2.3,.2-.8,.6-1.5,1.2-2,.6-.5,1.3-.7,2.1-.5Zm-.4,1.7c-.3,0-.6,0-.9,.2-.3,.2-.4,.5-.5,.9,0,.4,0,.7,.2,1,.2,.3,.4,.5,.7,.5,.3,0,.6,0,.9-.2,.3-.2,.4-.5,.5-.9s0-.7-.2-1c-.2-.3-.4-.5-.7-.5Z"/>
          <path class="uuid-8e185edb-5930-4fb6-96d5-2811ca5a504b" d="M39.8,48.9c.7-.1,1.4,0,2,.6,.6,.5,1,1.2,1.1,2,.1,.8,0,1.6-.4,2.3-.4,.7-1,1.1-1.8,1.2-.8,.1-1.4,0-2.1-.6-.6-.5-1-1.2-1.2-2-.1-.8,0-1.6,.4-2.3,.4-.7,1-1.1,1.8-1.2Zm.2,1.7c-.3,0-.6,.2-.7,.5-.2,.3-.2,.6-.2,1s.2,.7,.5,.9c.3,.2,.6,.3,.9,.3,.3,0,.6-.2,.7-.5,.2-.3,.2-.6,.2-1,0-.4-.2-.7-.5-.9s-.6-.3-.9-.3Z"/>
          <path class="uuid-8e185edb-5930-4fb6-96d5-2811ca5a504b" d="M45.3,49l2,3.7-1.4,.7-2.8-5.1,1.8-1c.8-.4,1.5-.6,2.2-.4,.8,.2,1.4,.7,1.8,1.5,.4,.8,.5,1.5,.4,2.3-.2,.7-.6,1.3-1.3,1.7,0,0-.2,.1-.4,.2l-.8-1.5h.2c.8-.6,1-1.1,.6-1.9-.4-.7-1-.8-1.8-.4l-.5,.3Z"/>
        </g>
        <path class="uuid-8e185edb-5930-4fb6-96d5-2811ca5a504b" d="M28.5,51.1v1.6h-.5v1.5h-1.6v-3.6c0-.7,.2-1.2,.6-1.7,.4-.5,.9-.7,1.5-.7,.7,0,1.2,.3,1.7,.9l-1.3,1.1c0-.2-.2-.3-.4-.3-.3,0-.4,.2-.4,.6v.7h.5Z"/>
      </g>
      <g>
        <path class="uuid-ed1a461e-96b3-4ee6-bb1c-b86baff909cf" d="M70.2,41.4c-.5,1.9-2.5,3.2-3.9,3L.3,39.9H.3L4.6,22.1c.3-1.4,2.2-2.7,3.8-2.6l66,4.6h0l-4.2,17.3Z"/>
        <path class="uuid-8e185edb-5930-4fb6-96d5-2811ca5a504b" d="M.2,40.1c0,0-.1,0-.2-.1,0,0,0-.1,0-.2L4.4,22c.4-1.6,2.4-2.9,4.1-2.8l66,4.6c0,0,.2,0,.2,.1,0,0,0,.1,0,.2l-4.2,17.3c-.5,2-2.7,3.4-4.2,3.2L.3,40.1s0,0,0,0Zm73.9-15.8L8.4,19.8c-1.5-.2-3.2,1.2-3.5,2.4L.6,39.6l65.7,4.5c1.3,.2,3.2-1,3.6-2.8l4.2-17Z"/>
      </g>
      <path class="uuid-8e185edb-5930-4fb6-96d5-2811ca5a504b" d="M49.9,17.1l-15.2,21.7,8.8-.2-3.5,6.7-18-.2,15.7-20.6s-8.4,1.6-9.9,1.7l1.6-9.6,20.5,.5Z"/>
      <path class="uuid-8e185edb-5930-4fb6-96d5-2811ca5a504b" d="M50.2,23.8c-.5,1.1-.1,1.5,.5,1.2,.6-.3,2.4-3.2,1.2-4.2-1-.9-2.3,.4-2.3,1.3-.1,1.4,.6,1.7,.6,1.7Z"/>
      <polygon class="uuid-8e185edb-5930-4fb6-96d5-2811ca5a504b" points="17.9 29.4 15.9 29.1 15 27.2 14 29 11.9 29.3 13.4 30.8 13 32.8 14.9 31.9 16.7 32.9 16.4 30.8 17.9 29.4"/>
      <polygon class="uuid-8e185edb-5930-4fb6-96d5-2811ca5a504b" points="62.6 32.8 60.6 32.4 59.7 30.5 58.7 32.4 56.6 32.6 58.1 34.1 57.7 36.2 59.6 35.2 61.4 36.3 61.1 34.2 62.6 32.8"/>
    </g>
  </g>
</svg>