<?xml version="1.0" encoding="UTF-8"?>
<svg id="uuid-29b17c11-43db-4ab7-a871-c82a9d2c86bb" data-name="Layer 2" xmlns="http://www.w3.org/2000/svg" width="83.4" height="33.7" viewBox="0 0 83.4 33.7">
  <defs>
    <style>
      .uuid-470bb0ea-1249-4cba-b346-09222c16dec6 {
        fill: #162954;
      }
    </style>
  </defs>
  <g id="uuid-c96872db-b3f3-45ac-b4de-5f3da040ecc1" data-name="Capa 1">
    <g>
      <path class="uuid-470bb0ea-1249-4cba-b346-09222c16dec6" d="M0,4.3c1.1,0,2.1,0,3.2-.1,0,6.8-.1,13.5-.2,20.3,1.3-.3,2.6-.7,4-1,0-6.5,.2-13,.2-19.5,1.1,0,2.1,0,3.2,0V.3c-3.4,0-6.9,0-10.3,0v4Z"/>
      <path class="uuid-470bb0ea-1249-4cba-b346-09222c16dec6" d="M21.9,16.8c0-4.1,.1-8.2,.2-12.3C22.2,1.5,20.5,0,17,0c-3.5,0-5.2,1.5-5.2,4.8,0,4.4-.1,8.9-.2,13.3,0,3.2,1.7,4.5,5.1,3.9,3.5-.6,5.2-2.2,5.3-5.2m-4,.4c0,.8-.4,1.2-1.2,1.3-.8,.1-1.2-.2-1.2-1,0-4.3,.1-8.6,.2-12.9,0-.8,.4-1.2,1.2-1.2,0,0,0,0,0,0,.8,0,1.2,.4,1.2,1.2,0,4.2-.1,8.4-.2,12.6"/>
      <path class="uuid-470bb0ea-1249-4cba-b346-09222c16dec6" d="M29.5,0c-3.4,0-5.2,1.4-5.2,4.3,0,.6,0,1.2,0,1.9,0,1.9,1,3.5,3.2,4.6,2,1.1,3.1,2.1,3,3,0,.7,0,1.5,0,2.2,0,.7-.4,1.1-1.2,1.2-.8,0-1.2-.3-1.2-1v-2.8c-1.3,0-2.6,.2-4,.2,0,1,0,1.9,0,2.9,0,2.9,1.7,4.2,5.2,3.9,3.5-.3,5.2-1.7,5.3-4.5,0-.8,0-1.6,0-2.4,0-1.8-1.1-3.3-3.3-4.5-2-1.2-3.1-2.1-3-2.9v-1.8c0-.7,.4-1.1,1.2-1.1,0,0,0,0,0,0,.8,0,1.2,.4,1.2,1.1,0,.9,0,1.9,0,2.8,1.3,0,2.7,0,4,0,0-.9,0-1.8,0-2.8,0-2.8-1.7-4.2-5.1-4.2"/>
      <path class="uuid-470bb0ea-1249-4cba-b346-09222c16dec6" d="M43.3,3.6c1.1,0,2.1,0,3.2,0V.5c-3.4,0-6.9,0-10.3,0,0,1,0,2.1,0,3.1,1.1,0,2.1,0,3.2,0,0,5.4,0,10.8-.1,16.2,1.3,0,2.7,0,4,0,0-5.4,0-10.8,.1-16.2"/>
      <path class="uuid-470bb0ea-1249-4cba-b346-09222c16dec6" d="M70.7,5.5c0-3.2-1.6-4.8-4.8-4.8-1.8,0-3.7,0-5.5,0,0,6.8,0,13.6,0,20.4,1.8,.2,3.6,.5,5.3,.8,3.3,.6,5-.6,5-3.8,0-4.2,0-8.3,0-12.5m-5.2,12.9c-.4,0-.8-.1-1.2-.2,0-4.8,0-9.5,0-14.3,.4,0,.8,0,1.2,0,.8,0,1.2,.4,1.2,1.3,0,4,0,8.1,0,12.1,0,.8-.4,1.1-1.2,1"/>
      <path class="uuid-470bb0ea-1249-4cba-b346-09222c16dec6" d="M78.3,.4c-3.5,0-5.2,1.6-5.2,4.8,0,4.5,0,9,0,13.5,0,3.2,1.7,5.2,5.1,6.1,3.4,.9,5.1-.4,5.1-4V5.9c.1-3.6-1.6-5.4-5-5.4m0,20.6c-.8-.2-1.2-.7-1.2-1.6V5.5c0-.9,.4-1.3,1.2-1.3h0c.8,0,1.2,.5,1.2,1.4,0,4.8,0,9.6,0,14.4,0,.9-.4,1.3-1.2,1.1"/>
      <path class="uuid-470bb0ea-1249-4cba-b346-09222c16dec6" d="M22,32.5c-.6,0-.6-.6-.6-.9v-2c0-.1,0-.4,.2-.6,.1-.1,.3-.2,.4-.2,.6,0,.6,.6,.6,.8h1.2c0-.4,0-1.1-.5-1.5-.4-.3-.8-.4-1.2-.4-1.2,0-1.9,.7-1.9,1.9v1.6c0,1.1,.3,1.4,.5,1.6,.3,.3,.8,.5,1.4,.5s.8,0,1.2-.3c.4-.4,.5-.7,.6-.9,0-.2,0-.3,0-.7h-1.2c0,.6-.2,1-.6,1"/>
      <path class="uuid-470bb0ea-1249-4cba-b346-09222c16dec6" d="M26.3,28l-1.5,5.3h1.1l.3-1.1h1.6l.3,1.1h1.1l-1.5-5.3h-1.4Zm0,3.4l.6-2.4h0l.6,2.4h-1.2Z"/>
      <polygon class="uuid-470bb0ea-1249-4cba-b346-09222c16dec6" points="34 29.1 34 28.1 30.4 28.1 30.4 33.4 31.6 33.4 31.6 31.2 33.1 31.2 33.2 30.2 31.6 30.2 31.6 29 34 29.1"/>
      <polygon class="uuid-470bb0ea-1249-4cba-b346-09222c16dec6" points="38.9 29.1 38.9 28.1 35.3 28.1 35.2 33.4 39 33.5 39 32.5 36.4 32.4 36.4 31.2 38.1 31.2 38.1 30.2 36.4 30.2 36.4 29.1 38.9 29.1"/>
      <path class="uuid-470bb0ea-1249-4cba-b346-09222c16dec6" d="M46.4,31.7h-1.2c0,.6-.2,1-.6,1s-.6-.6-.6-.9v-2c0-.1,0-.4,.2-.6,.1-.1,.3-.2,.4-.2,.6,0,.6,.6,.6,.8h1.2c0-.4,0-1.1-.5-1.5-.4-.3-.8-.4-1.2-.4-1.2,0-1.9,.7-1.9,1.9v1.6c0,1.1,.3,1.4,.5,1.6,.3,.3,.8,.5,1.4,.5s.8,0,1.2-.3c.4-.4,.5-.7,.6-.9,0-.2,0-.3,0-.7"/>
      <polygon class="uuid-470bb0ea-1249-4cba-b346-09222c16dec6" points="51.5 32.5 49.1 32.5 49.2 28.2 48 28.2 47.9 33.5 51.5 33.5 51.5 32.5"/>
      <path class="uuid-470bb0ea-1249-4cba-b346-09222c16dec6" d="M55.6,31.8c0,1-.5,1-.8,1-.7,0-.7-.7-.7-1v-3.5h-1.2v3.4c0,.5,0,1.1,.5,1.6,.3,.3,.9,.5,1.5,.5s.9-.1,1.3-.4c.5-.4,.6-1.2,.6-1.5v-3.5h-1.2v3.5Z"/>
      <path class="uuid-470bb0ea-1249-4cba-b346-09222c16dec6" d="M61.3,30.8h0c.4-.1,.7-.5,.7-1.2s-.2-.9-.6-1.1c-.3-.2-.7-.2-1.2-.2h-1.8v5.3h1.7c.7,0,1.1,0,1.5-.4,.4-.4,.4-.8,.4-1.1,0-.8-.5-1.2-.8-1.2m-1.7-1.7h.5c.2,0,.7,0,.7,.7s-.3,.7-1.2,.7v-1.4Zm.6,3.7h-.6v-1.5c.4,0,.8,0,1,0,.3,.1,.3,.4,.3,.7,0,.5-.3,.8-.8,.8"/>
      <polygon class="uuid-470bb0ea-1249-4cba-b346-09222c16dec6" points="37.2 27.6 37.8 27.6 38.9 26.3 37.8 26.3 37.2 27.6"/>
      <path class="uuid-470bb0ea-1249-4cba-b346-09222c16dec6" d="M57.6,13.5c-.8-4.4-1.6-8.7-2.4-12.9-1.7,0-3.5,0-5.2,0-.8,4.2-1.7,8.3-2.5,12.4-.4,2.3-.8,4.6-1.2,6.9,1.4,0,2.7,.1,4.1,.2,.2-1.3,.5-2.7,.7-4,1,0,2,.1,3,.2,.2,1.4,.4,2.8,.7,4.2,1.4,.1,2.7,.3,4.1,.4-.4-2.5-.8-4.9-1.1-7.3m-6-.6l1-6.4,.9,6.5h-1.9Z"/>
    </g>
  </g>
</svg>