<?xml version="1.0" encoding="UTF-8"?>
<svg id="uuid-20d26c68-7e25-42d1-b08d-b72c1e5db96e" data-name="Layer 2" xmlns="http://www.w3.org/2000/svg" width="26.8" height="25.1" viewBox="0 0 26.8 25.1">
  <defs>
    <style>
      .uuid-4845e64f-892b-495c-98a6-32ba8d632ea6 {
        fill: #fff;
      }
    </style>
  </defs>
  <g id="uuid-3d1e7753-38f8-492d-870e-726c6b1c928a" data-name="Capa 1">
    <path class="uuid-4845e64f-892b-495c-98a6-32ba8d632ea6" d="M26.7,2.6c0-.5-.2-.9-.5-1.2-.4-.3-.7-.7-1.2-.9-.9-.6-1.8-.8-2.7,.2-1.6,1.7-3.2,3.5-4.9,5.2-1.4,1.5-3,2.9-4.4,4.4-.1,.1-.2,.3-.2,.4-.9-.8-1.6-1.5-2.4-2.1-1.2-1.1-2.3-2.2-3.5-3.3-.6-.6-1.2-1.1-1.8-1.6-.4-.3-.9-.6-1.4-.5l-.6,.2c-.5,.4-1,.7-1.5,1.1-.3,.3-.7,.6-1,.9-.2,.3-.4,.7-.5,1.1-.1,.7,.4,1.3,.8,1.8,.8,1,1.6,1.9,2.4,2.9l.6,.6,3.8,3.5c-.9,.8-1.8,1.5-2.6,2.3-.8,.7-1.7,1.5-2.1,2.5-.2,.4-.4,1-.2,1.4,.3,.8,.8,1.6,1.5,2.1,.5,.4,.9,1,1.7,.9,1-.2,1.9-.5,2.7-1.1,1.3-.9,2.4-2,3.6-3.1,.3-.2,.4-.2,.6,0,.7,.6,1.3,1.3,2,1.9h.1l.5,.5h.1l3.2,2.2c0,.1,.1,.3,.2,.3,.1,0,.2-.1,.4-.2h0c.2,0,.3,0,.5-.1,.3,0,.6-.2,.8-.3,.3-.1,.6-.2,.9-.4,.4-.4,.8-.8,1.2-1.2,.3-.4,.4-.9,.3-1.4-.2-.9-.9-1.4-1.5-2-1.3-1.4-2.6-2.8-3.9-4.2-.1-.1-.2-.2-.4-.4,1-.9,1.9-1.8,2.8-2.7,1-.9,1.9-1.9,2.8-2.9,1-1.1,2-2.3,2.9-3.5,.5-.7,.8-1.5,1.1-2.2,0-.2-.1-.6,0-.9Z"/>
  </g>
</svg>