<?xml version="1.0" encoding="UTF-8"?>
<svg id="uuid-b2d01370-667a-438e-8258-e32873dec025" data-name="Layer 2" xmlns="http://www.w3.org/2000/svg" width="17" height="22" viewBox="0 0 22 22">
  <defs>
    <style>
      .uuid-175ab05a-d6ae-45bc-aa50-098ceccfec46 {
        fill: #287499;
      }
    </style>
  </defs>
  <g id="uuid-914a8668-a2f1-4323-bc3f-fd6e8512f521" data-name="Capa 1">
    <g>
      <path class="uuid-175ab05a-d6ae-45bc-aa50-098ceccfec46" d="M22,4.4v.6c-.1,.6-.5,1.1-.9,1.5-.3,.3-.6,.5-.8,.8-.4,.4-.9,.8-1.3,1.3-.6,.6-1.1,1.1-1.7,1.7-.4,.4-.8,.8-1.2,1.1h0l.2,.2c.2,.2,.3,.3,.5,.5,.3,.4,.6,.7,1,1.1,.7,.7,1.4,1.5,2.1,2.2,.5,.6,1.1,1,1.4,1.7h0v.3c0,.3,.1,.5,0,.8,0,.4-.2,.7-.5,1-.3,.3-.5,.6-.8,.9h0c-.2,.2-.4,.5-.6,.7h0l-.3,.4-.3,.3c-.2,.1-.3,.2-.5,.4l-.4,.2c-.2,0-.4,0-.6,0-.3,0-.6-.1-.8-.3-.4-.3-.8-.7-1.2-1.1-.5-.5-1-1-1.4-1.4-.4-.4-.9-.9-1.3-1.3-.3-.3-.7-.6-1-.9v-.2c-.2-.2-.3-.2-.5-.1h-.2c-.6,.7-1.2,1.3-1.7,1.8-.4,.4-.9,.8-1.3,1.3-.6,.6-1.2,1.2-1.9,1.8-.2,.2-.5,.4-.8,.4-.3,0-.5,0-.8,0h-.3c-.4-.2-.7-.5-.9-.8-.3-.3-.6-.6-.9-1-.3-.4-.7-.8-1-1.2-.6-.8-.5-1.6,0-2.4,.2-.3,.5-.6,.7-.9,.5-.6,1-1.1,1.5-1.6,.7-.8,1.4-1.5,2.1-2.2l.3-.3c0-.1,.2-.2,0-.4-.4-.3-.7-.7-1.1-1-.6-.6-1.2-1.2-1.8-1.8-.5-.5-1-1-1.5-1.5h0c-.5-.5-.9-.9-1.2-1.5h0v-.6c-.1-.3,0-.6,0-.8v-.2l.2-.3h0v-.3l.4-.3c.3-.3,.6-.6,.9-.9l.2-.2,.8-.8,.3-.3,.3-.3h0L4,0h0c.3,0,.7,0,1,0h.4l.3,.3,.3,.2h.1l.2,.4,.3,.3,.7,.8,.3,.3c.2,.3,.5,.5,.7,.8l.3,.3c.2,.3,.5,.5,.7,.8l.3,.4c.3,.3,.5,.5,.8,.8l.3,.3,.2,.2h.2l.2-.3c.4-.5,.9-1,1.3-1.4l.3-.3,1.4-1.5,.3-.3h.1c.4-.6,.9-1,1.3-1.5h.1v-.2l.7-.3h.4c.2,0,.3,0,.5,0h.2c.2,.2,.4,.3,.6,.4h.1l.2,.3,1.1,1.1h.1l.4,.5,.3,.3,.6,.6,.2,.2,.2,.4,.2,.5Z"/>
      <polygon class="uuid-175ab05a-d6ae-45bc-aa50-098ceccfec46" points="16.1 11.3 16.2 11.5 16 11.4 16.1 11.3"/>
      <polygon class="uuid-175ab05a-d6ae-45bc-aa50-098ceccfec46" points=".2 5.3 0 5.3 .2 5.2 .2 5.3"/>
      <path class="uuid-175ab05a-d6ae-45bc-aa50-098ceccfec46" d="M19.9,1.8h0Z"/>
      <path class="uuid-175ab05a-d6ae-45bc-aa50-098ceccfec46" d="M21.1,17.1h0Z"/>
      <path class="uuid-175ab05a-d6ae-45bc-aa50-098ceccfec46" d="M16.1,.5h0Z"/>
      <polygon class="uuid-175ab05a-d6ae-45bc-aa50-098ceccfec46" points="4.1 22 4.1 22 4.1 22 4.1 22"/>
    </g>
  </g>
</svg>