<?xml version="1.0" encoding="UTF-8"?>
<svg id="uuid-411db845-9548-4a16-8923-b80709e640ad" data-name="Layer 2" xmlns="http://www.w3.org/2000/svg" width="122" height="59" viewBox="0 0 122 59">
  <defs>
    <style>
      .uuid-9e06b78b-5eb9-4a1b-b26b-0912ce49cd1b {
        fill: #fff;
      }

      .uuid-8e6be71a-dc07-4bfb-bd82-196e2bd4d5d4 {
        fill: none;
        stroke: #fff;
        stroke-miterlimit: 10;
        stroke-width: 3px;
      }
    </style>
  </defs>
  <g id="uuid-115c8c5a-0b31-4292-83e4-01ddcae65559" data-name="Capa 1">
    <g>
      <g>
        <path class="uuid-9e06b78b-5eb9-4a1b-b26b-0912ce49cd1b" d="M0,22.8V2.5H8.8c1.8,0,3.4,.3,4.7,.9,1.3,.6,2.3,1.4,3,2.5,.7,1.1,1.1,2.4,1.1,3.9s-.4,2.8-1.1,3.9c-.7,1.1-1.7,1.9-3,2.5-1.3,.6-2.9,.9-4.7,.9H2.6l2.1-2.1v7.7H0Zm4.7-7.2l-2.1-2.2h5.9c1.5,0,2.5-.3,3.3-.9,.7-.6,1.1-1.5,1.1-2.6s-.4-2-1.1-2.6c-.7-.6-1.8-.9-3.3-.9H2.6l2.1-2.2V15.6Z"/>
        <path class="uuid-9e06b78b-5eb9-4a1b-b26b-0912ce49cd1b" d="M20.6,22.8V7.2h4.3v4.4l-.6-1.3c.5-1.1,1.2-1.9,2.2-2.5,1-.6,2.3-.9,3.7-.9v4.2c-.2,0-.4,0-.5,0-.2,0-.3,0-.5,0-1.2,0-2.2,.4-3,1.1-.8,.7-1.1,1.8-1.1,3.3v7.4h-4.5Z"/>
        <path class="uuid-9e06b78b-5eb9-4a1b-b26b-0912ce49cd1b" d="M40.6,23.1c-1.8,0-3.3-.3-4.7-1-1.3-.7-2.4-1.6-3.1-2.9-.7-1.2-1.1-2.6-1.1-4.1s.4-3,1.1-4.2c.7-1.2,1.7-2.2,3-2.8,1.3-.7,2.7-1,4.3-1s2.9,.3,4.1,1c1.2,.6,2.2,1.6,2.9,2.8,.7,1.2,1.1,2.7,1.1,4.3s0,.4,0,.6c0,.2,0,.4,0,.6h-12.7v-2.6h10.3l-1.7,.8c0-.8-.2-1.5-.5-2.1-.3-.6-.8-1.1-1.4-1.4-.6-.3-1.3-.5-2-.5s-1.5,.2-2,.5c-.6,.3-1,.8-1.4,1.4-.3,.6-.5,1.3-.5,2.2v.7c0,.9,.2,1.6,.6,2.2,.4,.6,.9,1.1,1.6,1.5,.7,.3,1.5,.5,2.4,.5s1.6-.1,2.2-.4c.6-.3,1.2-.6,1.7-1.1l2.4,2.6c-.7,.8-1.6,1.4-2.7,1.9-1.1,.4-2.3,.7-3.7,.7Z"/>
        <path class="uuid-9e06b78b-5eb9-4a1b-b26b-0912ce49cd1b" d="M71.2,7c1.2,0,2.3,.2,3.3,.7s1.7,1.2,2.3,2.3c.6,1,.8,2.3,.8,3.9v8.9h-4.5V14.6c0-1.3-.3-2.2-.8-2.8-.5-.6-1.3-.9-2.2-.9s-1.2,.2-1.8,.4c-.5,.3-.9,.8-1.2,1.3-.3,.6-.4,1.4-.4,2.3v7.8h-4.5V14.6c0-1.3-.3-2.2-.8-2.8-.5-.6-1.2-.9-2.2-.9s-1.2,.2-1.8,.4c-.5,.3-.9,.8-1.2,1.3-.3,.6-.4,1.4-.4,2.3v7.8h-4.5V7.2h4.3v4.3l-.8-1.2c.5-1.1,1.3-1.9,2.3-2.4,1-.6,2.1-.8,3.4-.8s2.7,.4,3.8,1.1,1.8,1.8,2.1,3.3l-1.6-.4c.5-1.2,1.4-2.2,2.5-2.9,1.2-.7,2.5-1.1,4-1.1Z"/>
        <path class="uuid-9e06b78b-5eb9-4a1b-b26b-0912ce49cd1b" d="M83.9,5c-.8,0-1.5-.2-2-.7-.5-.5-.8-1.1-.8-1.8s.3-1.3,.8-1.8c.5-.5,1.2-.7,2-.7s1.5,.2,2,.7c.5,.5,.8,1,.8,1.8s-.3,1.4-.8,1.9c-.5,.5-1.2,.7-2,.7Zm-2.3,17.8V7.2h4.5v15.6h-4.5Z"/>
        <path class="uuid-9e06b78b-5eb9-4a1b-b26b-0912ce49cd1b" d="M97.8,23.1c-1.7,0-3.1-.3-4.4-1-1.3-.7-2.3-1.6-3-2.9-.7-1.2-1.1-2.6-1.1-4.1s.4-3,1.1-4.2c.7-1.2,1.8-2.2,3-2.8,1.3-.7,2.8-1,4.4-1s3.1,.3,4.4,1c1.3,.7,2.3,1.6,3,2.8,.7,1.2,1.1,2.6,1.1,4.2s-.4,2.9-1.1,4.1c-.7,1.2-1.8,2.2-3,2.9-1.3,.7-2.8,1-4.4,1Zm0-3.7c.8,0,1.4-.2,2-.5,.6-.3,1.1-.8,1.4-1.5,.3-.6,.5-1.4,.5-2.3s-.2-1.7-.5-2.3c-.3-.6-.8-1.1-1.4-1.5-.6-.3-1.3-.5-2-.5s-1.4,.2-2,.5c-.6,.3-1.1,.8-1.4,1.5-.4,.6-.5,1.4-.5,2.3s.2,1.7,.5,2.3c.4,.6,.8,1.1,1.4,1.5,.6,.3,1.3,.5,2,.5Z"/>
        <path class="uuid-9e06b78b-5eb9-4a1b-b26b-0912ce49cd1b" d="M114.6,23.1c-1.3,0-2.6-.2-3.8-.5-1.2-.3-2.2-.7-2.9-1.2l1.5-3.3c.7,.4,1.6,.8,2.5,1.1,1,.3,1.9,.4,2.9,.4s1.8-.1,2.2-.4c.4-.3,.7-.6,.7-1s-.2-.6-.5-.8c-.3-.2-.8-.3-1.3-.4-.6,0-1.2-.2-1.8-.3-.7,0-1.3-.2-2-.4-.7-.2-1.3-.4-1.9-.7-.6-.3-1-.8-1.3-1.3-.3-.6-.5-1.3-.5-2.2s.3-1.9,.9-2.6c.6-.8,1.4-1.3,2.5-1.8,1.1-.4,2.4-.7,3.9-.7s2.1,.1,3.3,.3c1.1,.2,2,.6,2.8,1l-1.5,3.2c-.8-.4-1.5-.7-2.3-.9-.8-.2-1.5-.2-2.2-.2s-1.7,.1-2.2,.4c-.5,.3-.7,.6-.7,1s.2,.7,.5,.9c.3,.2,.8,.3,1.3,.5,.6,.1,1.2,.2,1.8,.3,.7,0,1.3,.2,2,.4,.7,.2,1.3,.4,1.8,.7,.6,.3,1,.8,1.3,1.3,.3,.6,.5,1.3,.5,2.2s-.3,1.8-.9,2.6c-.6,.7-1.4,1.3-2.5,1.8-1.1,.4-2.4,.6-4,.6Z"/>
      </g>
      <g>
        <path class="uuid-9e06b78b-5eb9-4a1b-b26b-0912ce49cd1b" d="M13.3,39.6c-1.1,0-2-.2-2.9-.6-.8-.4-1.5-1-1.9-1.7-.4-.7-.7-1.6-.7-2.5s.2-1.8,.7-2.5c.4-.7,1-1.3,1.8-1.7,.8-.4,1.6-.6,2.6-.6s1.8,.2,2.5,.6c.7,.4,1.3,1,1.8,1.7,.4,.7,.7,1.6,.7,2.6s0,.2,0,.4c0,.1,0,.3,0,.4h-7.7v-1.6h6.3l-1.1,.5c0-.5-.1-.9-.3-1.3-.2-.4-.5-.7-.8-.9-.4-.2-.8-.3-1.2-.3s-.9,.1-1.2,.3c-.4,.2-.6,.5-.8,.9-.2,.4-.3,.8-.3,1.3v.4c0,.5,.1,1,.3,1.4,.2,.4,.6,.7,1,.9,.4,.2,.9,.3,1.5,.3s1,0,1.3-.2c.4-.2,.7-.4,1.1-.7l1.5,1.6c-.4,.5-1,.9-1.6,1.1-.7,.3-1.4,.4-2.3,.4Z"/>
        <path class="uuid-9e06b78b-5eb9-4a1b-b26b-0912ce49cd1b" d="M25.5,29.8c.8,0,1.4,.2,2,.5,.6,.3,1.1,.8,1.4,1.4,.3,.6,.5,1.4,.5,2.4v5.4h-2.8v-5c0-.8-.2-1.3-.5-1.7s-.8-.5-1.4-.5-.8,0-1.2,.3c-.3,.2-.6,.5-.8,.8-.2,.4-.3,.9-.3,1.4v4.7h-2.8v-9.5h2.6v2.6l-.5-.8c.3-.6,.8-1.1,1.5-1.5,.6-.3,1.4-.5,2.2-.5Z"/>
      </g>
      <g>
        <path class="uuid-9e06b78b-5eb9-4a1b-b26b-0912ce49cd1b" d="M40.5,52c-1.4,0-2.6-.2-3.5-.7s-1.7-1.1-2.3-1.9c-.5-.8-.8-1.7-.8-2.7s.3-2,.8-2.8c.5-.8,1.3-1.4,2.4-1.9,1.1-.4,2.6-.7,4.4-.7h4.7v3h-4.1c-1.2,0-2,.2-2.5,.6-.4,.4-.7,.9-.7,1.5s.3,1.2,.8,1.6c.5,.4,1.2,.6,2.1,.6s1.6-.2,2.3-.6c.7-.4,1.2-1,1.5-1.8l.8,2.4c-.4,1.1-1.1,2-2,2.6-1,.6-2.3,.9-3.8,.9Zm5.4-.3v-3.4l-.3-.8v-6.2c0-1.1-.3-1.9-1-2.6-.7-.6-1.7-.9-3.1-.9s-1.9,.1-2.8,.4c-.9,.3-1.7,.7-2.3,1.2l-1.8-3.6c1-.7,2.1-1.2,3.5-1.6,1.4-.4,2.7-.6,4.1-.6,2.7,0,4.8,.6,6.3,1.9,1.5,1.3,2.2,3.3,2.2,5.9v10.1h-4.8Z"/>
        <path class="uuid-9e06b78b-5eb9-4a1b-b26b-0912ce49cd1b" d="M55.3,51.8V27.4h5.1v24.4h-5.1Z"/>
        <path class="uuid-9e06b78b-5eb9-4a1b-b26b-0912ce49cd1b" d="M64.3,38.4v-3.9h12.2v3.9h-12.2Zm9.3,13.6c-2.1,0-3.7-.5-4.9-1.6-1.2-1.1-1.7-2.6-1.7-4.7v-15.5h5.1v15.4c0,.7,.2,1.3,.6,1.7,.4,.4,.9,.6,1.6,.6s1.5-.2,2.1-.7l1.4,3.6c-.5,.4-1.2,.7-1.9,.8-.7,.2-1.5,.3-2.3,.3Z"/>
        <path class="uuid-9e06b78b-5eb9-4a1b-b26b-0912ce49cd1b" d="M88.6,52c-1.9,0-3.6-.4-5-1.2-1.5-.8-2.6-1.9-3.4-3.2-.8-1.4-1.3-2.9-1.3-4.7s.4-3.3,1.3-4.7c.8-1.4,2-2.4,3.4-3.2,1.5-.8,3.1-1.2,5-1.2s3.5,.4,5,1.2c1.5,.8,2.6,1.8,3.4,3.2,.8,1.4,1.2,2.9,1.2,4.7s-.4,3.3-1.2,4.7c-.8,1.4-2,2.4-3.4,3.2-1.5,.8-3.1,1.2-5,1.2Zm0-4.2c.9,0,1.6-.2,2.3-.6,.7-.4,1.2-1,1.6-1.7,.4-.7,.6-1.6,.6-2.6s-.2-1.9-.6-2.6c-.4-.7-.9-1.3-1.6-1.7-.7-.4-1.4-.6-2.3-.6s-1.6,.2-2.3,.6c-.7,.4-1.2,1-1.6,1.7-.4,.7-.6,1.6-.6,2.6s.2,1.9,.6,2.6c.4,.7,.9,1.3,1.6,1.7,.7,.4,1.4,.6,2.3,.6Z"/>
      </g>
      <line class="uuid-8e6be71a-dc07-4bfb-bd82-196e2bd4d5d4" x1="25.6" y1="43.9" x2="9.4" y2="43.9"/>
      <path class="uuid-9e06b78b-5eb9-4a1b-b26b-0912ce49cd1b" d="M98.2,50.3c0-1,.7-1.8,1.7-1.8s1.7,.8,1.7,1.8-.7,1.8-1.7,1.8-1.7-.8-1.7-1.8Zm.7-4.2l-.4-13.9h2.8l-.4,13.9h-2Z"/>
    </g>
  </g>
</svg>