<?xml version="1.0" encoding="UTF-8"?>
<svg id="uuid-1d4d444d-20ef-4b24-a515-3090ffb27280" data-name="Layer 2" xmlns="http://www.w3.org/2000/svg" width="210.5" height="89.8" viewBox="0 0 210.5 89.8">
  <defs>
    <style>
      .uuid-6cf732a1-c77a-42a5-9aa9-1cafc8e020a0 {
        fill: #fff;
      }

      .uuid-58ce86a5-0f98-4b77-93cd-f6edd3bb3589 {
        fill: none;
        stroke: #fff;
        stroke-miterlimit: 10;
        stroke-width: 3px;
      }
    </style>
  </defs>
  <g id="uuid-4138aa8c-d445-4210-bc38-0170645502fa" data-name="Capa 1">
    <g>
      <g>
        <path class="uuid-6cf732a1-c77a-42a5-9aa9-1cafc8e020a0" d="M0,39.4V4.4H15.2c3.1,0,5.8,.5,8.1,1.5,2.3,1,4,2.5,5.3,4.4,1.2,1.9,1.9,4.2,1.9,6.8s-.6,4.9-1.9,6.8c-1.2,1.9-3,3.4-5.3,4.4-2.3,1-5,1.5-8.1,1.5H4.5l3.6-3.7v13.3H0Zm8.1-12.4l-3.6-3.9H14.7c2.5,0,4.4-.5,5.6-1.6,1.2-1.1,1.9-2.6,1.9-4.5s-.6-3.4-1.9-4.5c-1.2-1.1-3.1-1.6-5.6-1.6H4.5l3.6-3.9V27Z"/>
        <path class="uuid-6cf732a1-c77a-42a5-9aa9-1cafc8e020a0" d="M35.6,39.4V12.5h7.5v7.6l-1.1-2.2c.8-1.9,2.1-3.3,3.9-4.3,1.8-1,3.9-1.5,6.5-1.5v7.2c-.3,0-.6,0-.9,0-.3,0-.6,0-.9,0-2.1,0-3.9,.6-5.2,1.8-1.3,1.2-2,3.1-2,5.7v12.7h-7.8Z"/>
        <path class="uuid-6cf732a1-c77a-42a5-9aa9-1cafc8e020a0" d="M70.1,39.8c-3.1,0-5.8-.6-8.1-1.8-2.3-1.2-4.1-2.8-5.4-4.9-1.3-2.1-1.9-4.5-1.9-7.1s.6-5.1,1.9-7.2c1.3-2.1,3-3.7,5.1-4.9,2.2-1.2,4.6-1.8,7.4-1.8s5,.6,7.1,1.7c2.1,1.1,3.8,2.7,5,4.8,1.2,2.1,1.9,4.6,1.9,7.5s0,.6,0,1c0,.4,0,.7-.1,1.1h-21.9v-4.6h17.8l-3,1.4c0-1.4-.3-2.6-.9-3.7-.6-1-1.4-1.8-2.4-2.4-1-.6-2.2-.9-3.5-.9s-2.5,.3-3.5,.9c-1,.6-1.8,1.4-2.4,2.5-.6,1.1-.9,2.3-.9,3.7v1.2c0,1.5,.3,2.8,1,3.9,.7,1.1,1.6,2,2.8,2.6,1.2,.6,2.6,.9,4.2,.9s2.7-.2,3.8-.7c1.1-.4,2.1-1.1,3-2l4.2,4.5c-1.2,1.4-2.8,2.5-4.7,3.2-1.9,.8-4,1.1-6.5,1.1Z"/>
        <path class="uuid-6cf732a1-c77a-42a5-9aa9-1cafc8e020a0" d="M122.8,12.1c2.1,0,4,.4,5.7,1.3s3,2.2,3.9,3.9c1,1.8,1.4,4,1.4,6.7v15.4h-7.8v-14.2c0-2.2-.5-3.8-1.4-4.8-.9-1-2.2-1.6-3.8-1.6s-2.2,.3-3.1,.8c-.9,.5-1.6,1.3-2.1,2.3-.5,1-.8,2.4-.8,4v13.5h-7.8v-14.2c0-2.2-.4-3.8-1.3-4.8-.9-1-2.1-1.6-3.8-1.6s-2.2,.3-3.1,.8c-.9,.5-1.6,1.3-2.1,2.3-.5,1-.8,2.4-.8,4v13.5h-7.8V12.5h7.5v7.4l-1.4-2.2c.9-1.8,2.3-3.2,4-4.2,1.7-1,3.7-1.4,5.9-1.4s4.6,.6,6.5,1.9,3.1,3.2,3.7,5.7l-2.8-.8c.9-2.1,2.3-3.8,4.3-5,2-1.2,4.3-1.9,6.8-1.9Z"/>
        <path class="uuid-6cf732a1-c77a-42a5-9aa9-1cafc8e020a0" d="M144.7,8.7c-1.4,0-2.6-.4-3.5-1.3-.9-.8-1.4-1.9-1.4-3.1s.5-2.3,1.4-3.1c.9-.8,2.1-1.3,3.5-1.3s2.6,.4,3.5,1.2c.9,.8,1.4,1.8,1.4,3s-.4,2.4-1.3,3.2c-.9,.9-2.1,1.3-3.5,1.3Zm-3.9,30.7V12.5h7.8v26.9h-7.8Z"/>
        <path class="uuid-6cf732a1-c77a-42a5-9aa9-1cafc8e020a0" d="M168.7,39.8c-2.9,0-5.4-.6-7.6-1.8-2.2-1.2-4-2.8-5.3-4.9-1.3-2.1-1.9-4.5-1.9-7.1s.6-5.1,1.9-7.2c1.3-2.1,3-3.7,5.3-4.9,2.2-1.2,4.8-1.8,7.6-1.8s5.4,.6,7.6,1.8c2.2,1.2,4,2.8,5.3,4.9,1.3,2.1,1.9,4.5,1.9,7.2s-.6,5-1.9,7.1c-1.3,2.1-3,3.7-5.3,4.9-2.2,1.2-4.8,1.8-7.6,1.8Zm0-6.4c1.3,0,2.5-.3,3.5-.9,1-.6,1.9-1.5,2.5-2.6,.6-1.1,.9-2.4,.9-4s-.3-2.9-.9-4c-.6-1.1-1.4-2-2.5-2.6-1-.6-2.2-.9-3.5-.9s-2.5,.3-3.5,.9c-1,.6-1.9,1.5-2.5,2.6-.6,1.1-.9,2.4-.9,4s.3,2.9,.9,4c.6,1.1,1.4,2,2.5,2.6,1,.6,2.2,.9,3.5,.9Z"/>
        <path class="uuid-6cf732a1-c77a-42a5-9aa9-1cafc8e020a0" d="M197.8,39.8c-2.3,0-4.5-.3-6.6-.8-2.1-.6-3.8-1.2-5-2.1l2.6-5.6c1.2,.8,2.7,1.4,4.4,1.9,1.7,.5,3.3,.7,5,.7s3.1-.2,3.8-.7c.8-.4,1.1-1,1.1-1.8s-.3-1.1-.9-1.4c-.6-.3-1.4-.6-2.3-.7-1-.2-2-.3-3.2-.5-1.2-.2-2.3-.4-3.5-.7-1.2-.3-2.2-.7-3.2-1.3-1-.6-1.7-1.3-2.3-2.3-.6-1-.9-2.2-.9-3.8s.5-3.2,1.5-4.5c1-1.3,2.4-2.3,4.3-3.1,1.9-.8,4.1-1.1,6.7-1.1s3.7,.2,5.6,.6c1.9,.4,3.5,1,4.8,1.8l-2.6,5.6c-1.3-.8-2.6-1.3-3.9-1.6-1.3-.3-2.6-.4-3.8-.4s-3,.2-3.8,.7c-.8,.5-1.2,1.1-1.2,1.8s.3,1.2,.9,1.5c.6,.3,1.4,.6,2.3,.8,1,.2,2,.4,3.2,.5,1.2,.1,2.3,.4,3.5,.7,1.2,.3,2.2,.7,3.2,1.3,1,.6,1.7,1.3,2.3,2.3,.6,1,.9,2.2,.9,3.7s-.5,3.1-1.5,4.4c-1,1.3-2.4,2.3-4.3,3-1.9,.7-4.2,1.1-6.9,1.1Z"/>
      </g>
      <g>
        <path class="uuid-6cf732a1-c77a-42a5-9aa9-1cafc8e020a0" d="M22.9,68.3c-1.9,0-3.5-.4-4.9-1.1-1.4-.7-2.5-1.7-3.3-3-.8-1.3-1.2-2.7-1.2-4.3s.4-3.1,1.1-4.4c.8-1.3,1.8-2.3,3.1-3,1.3-.7,2.8-1.1,4.5-1.1s3.1,.3,4.3,1c1.3,.7,2.3,1.7,3.1,2.9,.8,1.3,1.1,2.8,1.1,4.6s0,.4,0,.6c0,.2,0,.5,0,.7h-13.3v-2.8h10.8l-1.8,.8c0-.9-.2-1.6-.5-2.2-.3-.6-.8-1.1-1.4-1.5-.6-.4-1.3-.5-2.1-.5s-1.5,.2-2.2,.5c-.6,.4-1.1,.9-1.4,1.5-.3,.6-.5,1.4-.5,2.3v.7c0,.9,.2,1.7,.6,2.4,.4,.7,1,1.2,1.7,1.6,.7,.4,1.6,.5,2.5,.5s1.6-.1,2.3-.4c.7-.3,1.3-.7,1.8-1.2l2.5,2.7c-.8,.9-1.7,1.5-2.8,2-1.1,.5-2.5,.7-3.9,.7Z"/>
        <path class="uuid-6cf732a1-c77a-42a5-9aa9-1cafc8e020a0" d="M44,51.4c1.3,0,2.5,.3,3.5,.8,1,.5,1.8,1.3,2.4,2.4,.6,1.1,.9,2.4,.9,4.1v9.4h-4.8v-8.7c0-1.3-.3-2.3-.9-2.9s-1.4-.9-2.5-.9-1.4,.2-2,.5c-.6,.3-1.1,.8-1.4,1.4-.3,.7-.5,1.5-.5,2.5v8.1h-4.8v-16.4h4.5v4.5l-.9-1.4c.6-1.1,1.4-1.9,2.5-2.5,1.1-.6,2.3-.9,3.8-.9Z"/>
      </g>
      <g>
        <path class="uuid-6cf732a1-c77a-42a5-9aa9-1cafc8e020a0" d="M69.8,89.8c-2.4,0-4.4-.4-6.1-1.2s-3-1.9-3.9-3.3c-.9-1.4-1.4-3-1.4-4.7s.4-3.4,1.3-4.8c.9-1.4,2.3-2.4,4.2-3.2,1.9-.8,4.4-1.2,7.5-1.2h8.1v5.2h-7.1c-2.1,0-3.5,.3-4.3,1-.8,.7-1.2,1.5-1.2,2.5s.4,2,1.3,2.7c.9,.7,2.1,1,3.7,1s2.8-.3,4-1c1.2-.7,2-1.7,2.5-3.1l1.4,4.1c-.6,2-1.8,3.5-3.5,4.5-1.7,1-3.9,1.5-6.6,1.5Zm9.3-.5v-5.9l-.6-1.3v-10.6c0-1.9-.6-3.4-1.7-4.4-1.2-1.1-2.9-1.6-5.3-1.6s-3.2,.3-4.8,.8c-1.6,.5-2.9,1.2-4,2.1l-3.2-6.2c1.7-1.2,3.7-2.1,6-2.7,2.3-.6,4.7-1,7.1-1,4.6,0,8.3,1.1,10.8,3.3,2.6,2.2,3.9,5.6,3.9,10.3v17.4h-8.3Z"/>
        <path class="uuid-6cf732a1-c77a-42a5-9aa9-1cafc8e020a0" d="M95.4,89.3V47.3h8.8v42h-8.8Z"/>
        <path class="uuid-6cf732a1-c77a-42a5-9aa9-1cafc8e020a0" d="M111,66.3v-6.8h21.1v6.8h-21.1Zm16.1,23.5c-3.6,0-6.4-.9-8.4-2.7-2-1.8-3-4.6-3-8.2v-26.7h8.8v26.6c0,1.3,.3,2.3,1,3,.7,.7,1.6,1,2.8,1s2.6-.4,3.6-1.1l2.4,6.2c-.9,.6-2,1.1-3.3,1.4-1.3,.3-2.6,.5-3.9,.5Z"/>
        <path class="uuid-6cf732a1-c77a-42a5-9aa9-1cafc8e020a0" d="M152.8,89.8c-3.2,0-6.1-.7-8.6-2-2.5-1.4-4.5-3.2-5.9-5.6-1.5-2.4-2.2-5.1-2.2-8.1s.7-5.8,2.2-8.1c1.5-2.4,3.4-4.2,5.9-5.6,2.5-1.3,5.4-2,8.6-2s6.1,.7,8.6,2c2.5,1.3,4.5,3.2,5.9,5.5,1.4,2.3,2.2,5.1,2.2,8.2s-.7,5.7-2.2,8.1c-1.4,2.4-3.4,4.2-5.9,5.6-2.5,1.4-5.4,2-8.6,2Zm0-7.3c1.5,0,2.8-.3,4-1,1.2-.7,2.1-1.7,2.8-2.9,.7-1.3,1-2.8,1-4.5s-.3-3.3-1-4.5c-.7-1.2-1.6-2.2-2.8-2.9-1.2-.7-2.5-1-4-1s-2.8,.3-4,1c-1.2,.7-2.1,1.6-2.8,2.9-.7,1.2-1,2.8-1,4.5s.3,3.2,1,4.5c.7,1.3,1.6,2.2,2.8,2.9,1.2,.7,2.5,1,4,1Z"/>
      </g>
      <line class="uuid-58ce86a5-0f98-4b77-93cd-f6edd3bb3589" x1="44.1" y1="75.7" x2="16.2" y2="75.7"/>
      <path class="uuid-6cf732a1-c77a-42a5-9aa9-1cafc8e020a0" d="M173.8,89.7c-1.4,0-2.6-.5-3.5-1.4-.9-.9-1.4-2-1.4-3.2s.5-2.3,1.4-3.2c.9-.9,2.1-1.3,3.5-1.3s2.6,.4,3.5,1.3c.9,.9,1.3,1.9,1.3,3.2s-.4,2.3-1.3,3.2c-.9,.9-2,1.4-3.5,1.4Zm-3.1-12.6l-1.6-22.9h9.3l-1.6,22.9h-6.2Z"/>
    </g>
  </g>
</svg>