<?xml version="1.0" encoding="UTF-8"?>
<svg id="uuid-c8b108cc-e4d2-43b1-9523-5426389735d1" data-name="Layer 2" xmlns="http://www.w3.org/2000/svg" width="440" height="440" viewBox="0 0 440 440">
  <defs>
    <style>
      .uuid-539b578d-67c2-48a8-baf1-33b8eb50c7b3 {
        fill: #fff;
      }

      .uuid-37fe945f-e57a-4631-ae3c-facf8b5c7321 {
        fill: #81aa66;
      }

      .uuid-3a76182a-87e0-4fbf-91e1-ea14b6a293d7, .uuid-15a4b540-1387-442a-9908-bcc75e946add {
        fill: #162954;
      }

      .uuid-afcfe556-a87f-44ad-b971-2be8e33bedb1 {
        fill: none;
      }

      .uuid-15a4b540-1387-442a-9908-bcc75e946add {
        fill-rule: evenodd;
      }
    </style>
  </defs>
  <g id="uuid-42a87afd-d6b9-4c9e-ab30-b1609f6e6029" data-name="Capa 1">
    <g>
      <rect class="uuid-afcfe556-a87f-44ad-b971-2be8e33bedb1" width="440" height="440"/>
      <g>
        <g id="uuid-a47115b6-6731-4fd0-b37e-9a9f2c95d3e1" data-name="ICPzCA">
          <g>
            <path class="uuid-539b578d-67c2-48a8-baf1-33b8eb50c7b3" d="M253.4,93.1c1.4,.6,2.8,1.2,4.2,1.7,1.4,.6,2.8,1.2,4.3,1.8l-1,3.6c-4.5-2-9-4-13.6-6l1-3.9c3.2,0,6.4-.1,9.5-.2-1-.6-2-1.2-3-1.8-1.6-1-3.3-2-4.9-3-.1,0-.2-.3-.2-.4,.3-1.2,.6-2.4,1-3.6,4.9,.5,9.8,1.1,14.8,1.6l-1,3.7c-3.1-.4-6.1-.8-9.1-1.2,.6,.3,1.3,.7,1.9,1.1,2,1.2,3.9,2.4,5.9,3.6,.3,.2,.3,.3,.3,.6-.2,.6-.3,1.2-.5,1.8,0,.3-.2,.4-.6,.4-3,0-6,.1-9.1,.2Z"/>
            <path class="uuid-539b578d-67c2-48a8-baf1-33b8eb50c7b3" d="M263,64.5c4.1,1.1,6.5,5.4,5.4,9.6-1.1,4.2-5.4,6.7-9.4,5.6-4.2-1.1-6.6-5.4-5.5-9.6,1.1-4.3,5.3-6.7,9.5-5.6Zm-1.1,3.9s0,0,0,0c-1-.3-1.4-.2-2.1,0-1.5,.2-2.5,1.1-3,2.5-.5,1.5,0,2.9,1.1,3.9,.9,.8,2,1.1,3.2,1.2,2.9,.2,4.9-2.6,3.8-5.2-.6-1.3-1.6-2-3-2.4Z"/>
            <path class="uuid-539b578d-67c2-48a8-baf1-33b8eb50c7b3" d="M267.5,47.5c4.1,1.1,6.5,5.4,5.4,9.6-1.1,4.2-5.4,6.7-9.5,5.6-4-1.1-6.5-5.4-5.5-9.4,1.2-4.4,5.3-6.9,9.5-5.8Zm-1,3.8c-.6-.2-1.2-.1-1.7-.1-2.8,.2-4.4,3-3.1,5.4,.8,1.6,2.3,2.2,4,2.3,2.7,.2,4.8-2.2,4-4.7-.5-1.6-1.5-2.5-3.1-2.9Z"/>
            <path class="uuid-539b578d-67c2-48a8-baf1-33b8eb50c7b3" d="M276.3,43l-1,3.9-14.2-3.8,1-3.9,14.2,3.8Z"/>
            <path class="uuid-539b578d-67c2-48a8-baf1-33b8eb50c7b3" d="M252.4,66.2c.8,.2,1.2,1,1,1.8-.2,.8-1,1.3-1.8,1-.8-.2-1.2-1-1-1.8,.2-.8,1-1.2,1.8-1Z"/>
            <path class="uuid-539b578d-67c2-48a8-baf1-33b8eb50c7b3" d="M251.4,70c.8,.2,1.3,.9,1,1.7-.2,.8-1,1.3-1.8,1.1-.8-.2-1.2-1-1-1.8,.2-.8,1-1.2,1.7-1Z"/>
          </g>
        </g>
        <g id="uuid-6805fbd7-b8c3-47bc-a088-97d8b583fcbf" data-name="ICPzCA">
          <g>
            <path class="uuid-539b578d-67c2-48a8-baf1-33b8eb50c7b3" d="M171.1,397.6c1.4,.6,2.8,1.2,4.2,1.7,1.4,.6,2.8,1.2,4.3,1.8l-1,3.6c-4.5-2-9-4-13.6-6l1-3.9c3.2,0,6.4-.1,9.5-.2-1-.6-2-1.2-3-1.8-1.6-1-3.3-2-4.9-3-.1,0-.2-.3-.2-.4,.3-1.2,.6-2.4,1-3.6,4.9,.5,9.8,1.1,14.8,1.6l-1,3.7c-3.1-.4-6.1-.8-9.1-1.2,.6,.3,1.3,.7,1.9,1.1,2,1.2,3.9,2.4,5.9,3.6,.3,.2,.3,.3,.3,.6-.2,.6-.3,1.2-.5,1.8,0,.3-.2,.4-.6,.4-3,0-6,.1-9.1,.2Z"/>
            <path class="uuid-539b578d-67c2-48a8-baf1-33b8eb50c7b3" d="M180.7,369c4.1,1.1,6.5,5.4,5.4,9.6-1.1,4.2-5.4,6.7-9.4,5.6-4.2-1.1-6.6-5.4-5.5-9.6,1.1-4.3,5.3-6.7,9.5-5.6Zm-1.1,3.9s0,0,0,0c-1-.3-1.4-.2-2.1,0-1.5,.2-2.5,1.1-3,2.5-.5,1.5,0,2.9,1.1,3.9,.9,.8,2,1.1,3.2,1.2,2.9,.2,4.9-2.6,3.8-5.2-.6-1.3-1.6-2-3-2.4Z"/>
            <path class="uuid-539b578d-67c2-48a8-baf1-33b8eb50c7b3" d="M185.2,352c4.1,1.1,6.5,5.4,5.4,9.6-1.1,4.2-5.4,6.7-9.5,5.6-4-1.1-6.5-5.4-5.5-9.4,1.2-4.4,5.3-6.9,9.5-5.8Zm-1,3.8c-.6-.2-1.2-.1-1.7-.1-2.8,.2-4.4,3-3.1,5.4,.8,1.6,2.3,2.2,4,2.3,2.7,.2,4.8-2.2,4-4.7-.5-1.6-1.5-2.5-3.1-2.9Z"/>
            <path class="uuid-539b578d-67c2-48a8-baf1-33b8eb50c7b3" d="M194,347.5l-1,3.9-14.2-3.8,1-3.9,14.2,3.8Z"/>
            <path class="uuid-539b578d-67c2-48a8-baf1-33b8eb50c7b3" d="M170.1,370.8c.8,.2,1.2,1,1,1.8-.2,.8-1,1.3-1.8,1-.8-.2-1.2-1-1-1.8,.2-.8,1-1.2,1.8-1Z"/>
            <path class="uuid-539b578d-67c2-48a8-baf1-33b8eb50c7b3" d="M169,374.6c.8,.2,1.3,.9,1,1.7-.2,.8-1,1.3-1.8,1.1-.8-.2-1.2-1-1-1.8,.2-.8,1-1.2,1.7-1Z"/>
          </g>
        </g>
        <g>
          <path class="uuid-15a4b540-1387-442a-9908-bcc75e946add" d="M364.1,276.3c-5.7-1.3-11.1-3.3-16.1-6.3-3.2-1.9-6.2-4.2-8.7-7.1-1.8-2.1-3.2-4.3-3.9-7-.6-2.1-.6-4.2,.1-6.3,.7-2,1.9-3.7,3.4-5.1,2-1.8,4.3-3,6.9-3.9,3.8-1.4,7.7-2,11.7-2.1,2.9-.1,5.7,0,8.6,.4,3,.4,5.9,.9,8.8,1.8,5.5,1.5,10.7,3.7,15.4,6.9,2.7,1.8,5.2,3.9,7.3,6.5,1.6,1.9,2.8,4,3.4,6.5,1.1,4.4-.2,8.1-3.4,11.2-2,1.8-4.3,3.1-6.8,4-3.7,1.4-7.5,2-11.3,2.2-2.8,.1-5.5,0-8.3-.3-2.4-.3-4.8-.7-7.2-1.2Zm.2-.5c2.1,.5,4.3,.9,6.6,1.1,3.1,.4,6.3,.5,9.4,.3,3.7-.2,7.3-.9,10.7-2.2,2.4-.9,4.7-2.1,6.5-3.9,2.8-2.7,4-5.9,3.3-9.7-.4-2.1-1.3-4-2.5-5.7-1.9-2.7-4.2-4.9-6.8-6.8-5-3.6-10.6-6-16.5-7.7-2.9-.8-5.9-1.4-9-1.8-3.1-.4-6.3-.5-9.4-.3-3.8,.2-7.6,.8-11.2,2.2-2.3,.9-4.4,2.1-6.3,3.7-3.5,3.2-4.5,7.5-2.9,12,.7,2,1.8,3.7,3.2,5.3,2.3,2.8,5.1,5,8.2,6.9,5.1,3.2,10.7,5.2,16.6,6.6Z"/>
          <path class="uuid-15a4b540-1387-442a-9908-bcc75e946add" d="M364.3,275.5c-5.8-1.4-11.3-3.4-16.3-6.5-3-1.9-5.8-4-8.1-6.8-1.3-1.6-2.4-3.3-3.1-5.2-1.6-4.4-.6-8.6,2.8-11.8,1.8-1.7,3.9-2.8,6.1-3.7,3.5-1.4,7.2-2,11-2.2,3.1-.2,6.2,0,9.2,.3,3,.4,5.9,.9,8.8,1.8,5.8,1.6,11.3,4,16.2,7.6,2.6,1.9,4.9,4,6.7,6.7,1.2,1.7,2.1,3.6,2.4,5.6,.7,3.8-.6,6.9-3.3,9.5-1.8,1.8-4.1,3-6.4,3.9-3.4,1.3-6.9,1.9-10.5,2.1-3.1,.2-6.2,0-9.2-.3-2.2-.2-4.4-.6-6.5-1.1Zm7.6-33.2s0,0,0,0c-2-.3-4-.7-6.1-1-3.1-.4-6.2-.5-9.3-.4-3.5,.2-7,.8-10.3,2.1-2.1,.8-4.1,1.9-5.7,3.5-2.5,2.5-3.5,5.5-2.7,8.9,.4,1.9,1.4,3.6,2.6,5.2,1.7,2.3,3.9,4.2,6.2,5.8,4.3,3,9,5.1,14,6.6,3,.9,6.1,1.6,9.2,2,3,.4,6.1,.6,9.2,.5,3.7-.1,7.2-.7,10.7-1.9,2.3-.8,4.4-1.9,6.1-3.6,3-2.8,3.8-6.6,2.4-10.4-.6-1.7-1.6-3.2-2.8-4.6-2.3-2.7-5-4.8-8-6.6-4.9-2.9-10.1-4.8-15.6-6.1Z"/>
          <path class="uuid-15a4b540-1387-442a-9908-bcc75e946add" d="M343.5,262.2c.1-.5,.2-1.1,.4-1.6,0,0,.2-.1,.2-.1,.3,0,.6,.1,.8,.2l1.5-6.6-1-.2,.4-1.8c0,0,.2,0,.2,0,1.3,.3,2.6,.6,4,.9,2.5,.6,3.8,2.3,3.6,4.9,0,1.2-.4,2.3-1,3.4-.9,1.6-2.4,2.4-4.2,2.1-1.6-.3-3.2-.7-4.8-1.1,0,0,0,0,0,0Zm5.1-7.7l-1.5,6.7c.4,.1,.9,.2,1.3,.3,1,.2,1.8-.1,2.3-1,.7-1.1,1-2.4,.9-3.7-.1-.8-.5-1.5-1.3-1.8-.5-.2-1.1-.3-1.6-.5Z"/>
          <path class="uuid-15a4b540-1387-442a-9908-bcc75e946add" d="M381.3,260.2c-.7,.4-1.3,.8-2,1.2,1.1,.7,1.6,1.6,1.8,2.8,.2,.9,0,1.8-.2,2.7l-5.7-1.3c-.4,1.4,.9,2.8,2.3,2.6,.6-.1,1.1-.4,1.6-.8,0,0,.2-.2,.3-.3,.5,.4,.9,.8,1.4,1.2-.5,.6-1.1,1.1-1.8,1.4-2.5,1.1-6-.5-5.9-4.1,0-1.6,.7-3,2-3.9,.6-.5,1.3-.7,2.1-.8,.1,0,.3-.1,.4-.2,.3-.3,.6-.7,.8-1,0,0,.2-.2,.3-.1,.9,.2,1.8,.4,2.7,.6,0,0,0,0,0,0Zm-2.1,4.5c0-.9-.6-1.7-1.5-1.9-.7-.1-1.6,.4-1.9,1.1l3.4,.8Z"/>
          <path class="uuid-15a4b540-1387-442a-9908-bcc75e946add" d="M390.9,269.2l-5.7-1.3c-.4,1.3,.8,2.8,2.1,2.6,.7,0,1.2-.4,1.7-.8,0,0,.2-.2,.3-.3,.5,.4,.9,.8,1.4,1.2-.9,1.1-2,1.7-3.3,1.7-2.7,0-4.7-2.2-4.4-4.9,.2-1.2,.6-2.2,1.4-3,1.1-1,2.4-1.5,3.9-1.1,1.6,.5,2.5,1.7,2.8,3.3,.1,.8,0,1.6-.1,2.3,0,0,0,.1,0,.2Zm-5.2-3l3.4,.8c0-.9-.6-1.7-1.4-1.9-.8-.2-1.6,.2-2.1,1.1Z"/>
          <path class="uuid-15a4b540-1387-442a-9908-bcc75e946add" d="M355.1,260.3c.3-1.1,.8-2,1.7-2.7,2-1.6,4.9-.9,6,1.4,.8,1.9,.3,4.4-1.3,5.8-2.2,1.9-5.6,.9-6.3-2-.2-.8-.2-1.7,0-2.5Zm5.8,1.4c.2-.7,.1-1.4,0-1.9-.4-1.3-1.8-1.7-2.7-.7-1,1-1.3,2.3-.9,3.6,.4,1.3,1.8,1.6,2.8,.6,.5-.5,.7-1.1,.8-1.6Z"/>
          <path class="uuid-15a4b540-1387-442a-9908-bcc75e946add" d="M369,260c.8-.7,1.7-.7,2.6-.4,.7,.2,.7,.2,.5,.9,0,.4-.2,.8-.3,1.2,0,0,0,0,0,0-.3,0-.5-.1-.8-.2-1.3-.4-1.9,.2-2.3,1.3-.3,1-.5,2.1-.8,3.2l1.1,.3-.4,1.6c0,0-.2,0-.2,0-1.3-.3-2.7-.6-4-.9-.2,0-.3-.1-.2-.4,.1-.4,.2-.9,.3-1.3l1.2,.3,1.2-5.1c-.4,0-.7-.2-1-.2-.2,0-.2-.1-.2-.3,.1-.4,.2-.8,.3-1.2,0-.2,.1-.2,.3-.2,.9,.2,1.8,.4,2.6,.6,.2,0,.2,.1,.2,.3,0,.2,0,.4-.1,.6Z"/>
          <path class="uuid-15a4b540-1387-442a-9908-bcc75e946add" d="M354.7,247.2c1.1,.8,1.3,1.9,.7,3-.4,.8-1.2,1.3-2.3,1.1-1.1-.2-2.2-.5-3.3-.7v-.5l.9,.2,1.7-7.2-.8-.2v-.5c.2,0,.3,0,.4,0,.9,.2,1.7,.4,2.6,.6,1.7,.4,2.2,2.2,1.1,3.5-.1,.1-.3,.3-.4,.4-.2,0-.3,.1-.5,.2Zm-3,3.3c.5,.1,.9,.2,1.3,.3,.6,0,1.1-.1,1.4-.7,.2-.4,.3-.8,.4-1.2,0-.5-.2-1-.7-1.3-.5-.3-1.1-.4-1.7-.5l-.8,3.5Zm.9-4c.4,0,.8,.2,1.2,.3,.6,0,1-.2,1.2-.7,.2-.4,.3-.8,.3-1.2,0-1-.8-1.4-2-1.4l-.7,3Z"/>
          <path class="uuid-15a4b540-1387-442a-9908-bcc75e946add" d="M378.9,257.3h-.3l-1.4-.4v-.5l.9,.2,1.7-7.5-.8-.2,.2-.8c.5,.1,1,.2,1.5,.4,0,0,0,.2,0,.3-.2,1-.5,2-.7,3v.4c0,0,.2-.1,.3-.2,.4-.2,.8-.4,1.2-.4,1.2-.2,2,.6,1.8,1.8-.2,1-.4,2-.7,2.9,0,.4-.2,.9-.3,1.3l.9,.2v.5l-1.8-.4v-.3c.4-1.2,.6-2.5,.9-3.7,0-.2,0-.5,0-.7,0-.5-.3-.8-.8-.8-.6,0-1.1,.2-1.6,.5,0,0-.1,.2-.2,.3-.3,1.3-.6,2.6-.9,3.9,0,.1,0,.2,0,.4Z"/>
          <path class="uuid-15a4b540-1387-442a-9908-bcc75e946add" d="M388.8,258c.2,.1,.3,.3,.5,.4-.7,.7-1.4,1-2.4,.9-2.1-.1-3.4-2-2.7-4.3,.2-.8,.7-1.4,1.4-1.8,1.5-1,3.4-.3,4,1.4,.2,.7,.2,1.4,0,2.1l-4.6-1.1c-.4,.8,0,2,.6,2.6,.8,.7,1.8,.6,3.1-.2Zm.2-2c.2-1.2-.5-2.2-1.5-2.5-.9-.2-2,.6-2.2,1.6l3.7,.9Z"/>
          <path class="uuid-15a4b540-1387-442a-9908-bcc75e946add" d="M370.9,252.3c-.2,.9-.6,1.6-1.4,2.1-1.3,.9-3,.6-3.8-.7-1-1.5-.4-3.9,1.1-4.8,1.6-1,3.5-.2,4,1.7,.2,.6,.2,1.2,0,1.8Zm-4.6-1.1c-.1,.6-.2,1.3,0,1.9,.5,1.2,1.8,1.5,2.8,.7,.9-.8,1.3-2.5,.8-3.6-.5-1.1-1.8-1.4-2.7-.6-.5,.4-.8,1-.9,1.7Z"/>
          <path class="uuid-15a4b540-1387-442a-9908-bcc75e946add" d="M376.3,254.9c.2,.1,.3,.3,.5,.4-.5,1-1.9,1.5-3,1.1-1.2-.4-1.8-1.4-1.8-2.9,0-1.3,.5-2.3,1.6-3.1,1.2-.8,2.7-.4,3.2,.7,0,0,0,0,.1,.1v-.6c.3,0,.5,0,.7,.1,0,0,.1,.1,.1,.2-.1,.6-.2,1.1-.4,1.7,0,0-.1,.1-.2,.1,0,0-.2,0-.3,0-.2,0-.2-.1-.2-.3,0-.3-.1-.6-.2-.9-.4-.9-1.4-1.2-2.3-.6-.5,.3-.8,.8-1,1.4-.3,.7-.3,1.5,0,2.3,.4,1.2,1.7,1.6,2.7,.8,.2-.2,.4-.4,.6-.6Z"/>
          <path class="uuid-15a4b540-1387-442a-9908-bcc75e946add" d="M359.3,246.5l-.3,1.1c.6-.8,1.4-1.1,2.4-.7l-.2,.8c0,0-.2,0-.3,0-1.4-.4-2,.4-2.3,1.3-.3,1-.5,2-.7,3,.2,0,.5,0,.8,.2,0,0,.1,.2,.1,.2,0,.1,0,.3-.2,.2-.9-.2-1.8-.4-2.7-.6v-.5l1.1,.2,1.1-5c-.3,0-.5-.1-.8-.2-.2,0-.2-.2-.2-.4,0-.2,.1-.3,.3-.2,.6,.1,1.1,.3,1.8,.4Z"/>
          <path class="uuid-15a4b540-1387-442a-9908-bcc75e946add" d="M362.7,247.9v-.6l1.8,.4-1.3,5.5c.2,0,.4,.1,.6,.1,.2,0,.2,.1,.1,.3,0,.1,0,.3-.3,.2-.7-.2-1.5-.3-2.3-.5v-.5l.9,.2,1.1-4.9-.8-.2Z"/>
          <path class="uuid-15a4b540-1387-442a-9908-bcc75e946add" d="M364.1,245.3c0-.3,.4-.5,.7-.5s.5,.4,.4,.7c0,.3-.4,.5-.7,.5-.3,0-.4-.4-.4-.7Z"/>
          <path class="uuid-15a4b540-1387-442a-9908-bcc75e946add" d="M393.1,265c0,.3-.4,.5-.7,.4-.3,0-.5-.4-.4-.7,0-.3,.4-.5,.7-.5,.3,0,.5,.4,.4,.7Zm-.1,0c0-.3-.1-.5-.4-.6-.2,0-.5,.1-.5,.4,0,.2,.1,.5,.3,.6,.2,0,.5-.1,.6-.4Z"/>
          <path class="uuid-15a4b540-1387-442a-9908-bcc75e946add" d="M393,265c0,.3-.3,.4-.6,.4-.2,0-.4-.3-.3-.6,0-.3,.3-.4,.5-.4,.3,0,.4,.3,.4,.6Zm-.4,.3s0,0,.1-.1c0-.1,.1-.2,.1-.3,0,0,0-.2,0-.3-.1,0-.3,0-.3,0,0,.2-.1,.4-.1,.6,0,0,0,0,0,0,0,0,.1-.1,.2-.2,0,.1,0,.2,0,.3Z"/>
          <path class="uuid-15a4b540-1387-442a-9908-bcc75e946add" d="M392.6,265.4c0-.1,0-.2,0-.3,0,0-.1,.1-.2,.2,0,0,0,0,0,0,0-.2,0-.4,.1-.6,0,0,.2,0,.3,0,0,0,0,.2,0,.3,0,.1,0,.2-.1,.3,0,0,0,0-.1,.1Z"/>
        </g>
        <g>
          <path class="uuid-15a4b540-1387-442a-9908-bcc75e946add" d="M63,197.4c-5.7-1.3-11.1-3.3-16.1-6.3-3.2-1.9-6.2-4.2-8.7-7.1-1.8-2.1-3.2-4.3-3.9-7-.6-2.1-.6-4.2,.1-6.3,.7-2,1.9-3.7,3.4-5.1,2-1.8,4.3-3,6.9-3.9,3.8-1.4,7.7-2,11.7-2.1,2.9-.1,5.7,0,8.6,.4,3,.4,5.9,.9,8.8,1.8,5.5,1.5,10.7,3.7,15.4,6.9,2.7,1.8,5.2,3.9,7.3,6.5,1.6,1.9,2.8,4,3.4,6.5,1.1,4.4-.2,8.1-3.4,11.2-2,1.8-4.3,3.1-6.8,4-3.7,1.4-7.5,2-11.3,2.2-2.8,.1-5.5,0-8.3-.3-2.4-.3-4.8-.7-7.2-1.2Zm.2-.5c2.1,.5,4.3,.9,6.6,1.1,3.1,.4,6.3,.5,9.4,.3,3.7-.2,7.3-.9,10.7-2.2,2.4-.9,4.7-2.1,6.5-3.9,2.8-2.7,4-5.9,3.3-9.7-.4-2.1-1.3-4-2.5-5.7-1.9-2.7-4.2-4.9-6.8-6.8-5-3.6-10.6-6-16.5-7.7-2.9-.8-5.9-1.4-9-1.8-3.1-.4-6.3-.5-9.4-.3-3.8,.2-7.6,.8-11.2,2.2-2.3,.9-4.4,2.1-6.3,3.7-3.5,3.2-4.5,7.5-2.9,12,.7,2,1.8,3.7,3.2,5.3,2.3,2.8,5.1,5,8.2,6.9,5.1,3.2,10.7,5.2,16.6,6.6Z"/>
          <path class="uuid-15a4b540-1387-442a-9908-bcc75e946add" d="M63.2,196.6c-5.8-1.4-11.3-3.4-16.3-6.5-3-1.9-5.8-4-8.1-6.8-1.3-1.6-2.4-3.3-3.1-5.2-1.6-4.4-.6-8.6,2.8-11.8,1.8-1.7,3.9-2.8,6.1-3.7,3.5-1.4,7.2-2,11-2.2,3.1-.2,6.2,0,9.2,.3,3,.4,5.9,.9,8.8,1.8,5.8,1.6,11.3,4,16.2,7.6,2.6,1.9,4.9,4,6.7,6.7,1.2,1.7,2.1,3.6,2.4,5.6,.7,3.8-.6,6.9-3.3,9.5-1.8,1.8-4.1,3-6.4,3.9-3.4,1.3-6.9,1.9-10.5,2.1-3.1,.2-6.2,0-9.2-.3-2.2-.2-4.4-.6-6.5-1.1Zm7.6-33.2s0,0,0,0c-2-.3-4-.7-6.1-1-3.1-.4-6.2-.5-9.3-.4-3.5,.2-7,.8-10.3,2.1-2.1,.8-4.1,1.9-5.7,3.5-2.5,2.5-3.5,5.5-2.7,8.9,.4,1.9,1.4,3.6,2.6,5.2,1.7,2.3,3.9,4.2,6.2,5.8,4.3,3,9,5.1,14,6.6,3,.9,6.1,1.6,9.2,2,3,.4,6.1,.6,9.2,.5,3.7-.1,7.2-.7,10.7-1.9,2.3-.8,4.4-1.9,6.1-3.6,3-2.8,3.8-6.6,2.4-10.4-.6-1.7-1.6-3.2-2.8-4.6-2.3-2.7-5-4.8-8-6.6-4.9-2.9-10.1-4.8-15.6-6.1Z"/>
          <path class="uuid-15a4b540-1387-442a-9908-bcc75e946add" d="M42.3,183.2c.1-.5,.2-1.1,.4-1.6,0,0,.2-.1,.2-.1,.3,0,.6,.1,.8,.2l1.5-6.6-1-.2,.4-1.8c0,0,.2,0,.2,0,1.3,.3,2.6,.6,4,.9,2.5,.6,3.8,2.3,3.6,4.9,0,1.2-.4,2.3-1,3.4-.9,1.6-2.4,2.4-4.2,2.1-1.6-.3-3.2-.7-4.8-1.1,0,0,0,0,0,0Zm5.1-7.7l-1.5,6.7c.4,.1,.9,.2,1.3,.3,1,.2,1.8-.1,2.3-1,.7-1.1,1-2.4,.9-3.7-.1-.8-.5-1.5-1.3-1.8-.5-.2-1.1-.3-1.6-.5Z"/>
          <path class="uuid-15a4b540-1387-442a-9908-bcc75e946add" d="M80.1,181.3c-.7,.4-1.3,.8-2,1.2,1.1,.7,1.6,1.6,1.8,2.8,.2,.9,0,1.8-.2,2.7l-5.7-1.3c-.4,1.4,.9,2.8,2.3,2.6,.6-.1,1.1-.4,1.6-.8,0,0,.2-.2,.3-.3,.5,.4,.9,.8,1.4,1.2-.5,.6-1.1,1.1-1.8,1.4-2.5,1.1-6-.5-5.9-4.1,0-1.6,.7-3,2-3.9,.6-.5,1.3-.7,2.1-.8,.1,0,.3-.1,.4-.2,.3-.3,.6-.7,.8-1,0,0,.2-.2,.3-.1,.9,.2,1.8,.4,2.7,.6,0,0,0,0,0,0Zm-2.1,4.5c0-.9-.6-1.7-1.5-1.9-.7-.1-1.6,.4-1.9,1.1l3.4,.8Z"/>
          <path class="uuid-15a4b540-1387-442a-9908-bcc75e946add" d="M89.8,190.3l-5.7-1.3c-.4,1.3,.8,2.8,2.1,2.6,.7,0,1.2-.4,1.7-.8,0,0,.2-.2,.3-.3,.5,.4,.9,.8,1.4,1.2-.9,1.1-2,1.7-3.3,1.7-2.7,0-4.7-2.2-4.4-4.9,.2-1.2,.6-2.2,1.4-3,1.1-1,2.4-1.5,3.9-1.1,1.6,.5,2.5,1.7,2.8,3.3,.1,.8,0,1.6-.1,2.3,0,0,0,.1,0,.2Zm-5.2-3l3.4,.8c0-.9-.6-1.7-1.4-1.9-.8-.2-1.6,.2-2.1,1.1Z"/>
          <path class="uuid-15a4b540-1387-442a-9908-bcc75e946add" d="M54,181.4c.3-1.1,.8-2,1.7-2.7,2-1.6,4.9-.9,6,1.4,.8,1.9,.3,4.4-1.3,5.8-2.2,1.9-5.6,.9-6.3-2-.2-.8-.2-1.7,0-2.5Zm5.8,1.4c.2-.7,.1-1.4,0-1.9-.4-1.3-1.8-1.7-2.7-.7-1,1-1.3,2.3-.9,3.6,.4,1.3,1.8,1.6,2.8,.6,.5-.5,.7-1.1,.8-1.6Z"/>
          <path class="uuid-15a4b540-1387-442a-9908-bcc75e946add" d="M67.9,181.1c.8-.7,1.7-.7,2.6-.4,.7,.2,.7,.2,.5,.9,0,.4-.2,.8-.3,1.2,0,0,0,0,0,0-.3,0-.5-.1-.8-.2-1.3-.4-1.9,.2-2.3,1.3-.3,1-.5,2.1-.8,3.2l1.1,.3-.4,1.6c0,0-.2,0-.2,0-1.3-.3-2.7-.6-4-.9-.2,0-.3-.1-.2-.4,.1-.4,.2-.9,.3-1.3l1.2,.3,1.2-5.1c-.4,0-.7-.2-1-.2-.2,0-.2-.1-.2-.3,.1-.4,.2-.8,.3-1.2,0-.2,.1-.2,.3-.2,.9,.2,1.8,.4,2.6,.6,.2,0,.2,.1,.2,.3,0,.2,0,.4-.1,.6Z"/>
          <path class="uuid-15a4b540-1387-442a-9908-bcc75e946add" d="M53.6,168.3c1.1,.8,1.3,1.9,.7,3-.4,.8-1.2,1.3-2.3,1.1-1.1-.2-2.2-.5-3.3-.7v-.5l.9,.2,1.7-7.2-.8-.2v-.5c.2,0,.3,0,.4,0,.9,.2,1.7,.4,2.6,.6,1.7,.4,2.2,2.2,1.1,3.5-.1,.1-.3,.3-.4,.4-.2,0-.3,.1-.5,.2Zm-3,3.3c.5,.1,.9,.2,1.3,.3,.6,0,1.1-.1,1.4-.7,.2-.4,.3-.8,.4-1.2,0-.5-.2-1-.7-1.3-.5-.3-1.1-.4-1.7-.5l-.8,3.5Zm.9-4c.4,0,.8,.2,1.2,.3,.6,0,1-.2,1.2-.7,.2-.4,.3-.8,.3-1.2,0-1-.8-1.4-2-1.4l-.7,3Z"/>
          <path class="uuid-15a4b540-1387-442a-9908-bcc75e946add" d="M77.8,178.4h-.3l-1.4-.4v-.5l.9,.2,1.7-7.5-.8-.2,.2-.8c.5,.1,1,.2,1.5,.4,0,0,0,.2,0,.3-.2,1-.5,2-.7,3v.4c0,0,.2-.1,.3-.2,.4-.2,.8-.4,1.2-.4,1.2-.2,2,.6,1.8,1.8-.2,1-.4,2-.7,2.9,0,.4-.2,.9-.3,1.3l.9,.2v.5l-1.8-.4v-.3c.4-1.2,.6-2.5,.9-3.7,0-.2,0-.5,0-.7,0-.5-.3-.8-.8-.8-.6,0-1.1,.2-1.6,.5,0,0-.1,.2-.2,.3-.3,1.3-.6,2.6-.9,3.9,0,.1,0,.2,0,.4Z"/>
          <path class="uuid-15a4b540-1387-442a-9908-bcc75e946add" d="M87.7,179.1c.2,.1,.3,.3,.5,.4-.7,.7-1.4,1-2.4,.9-2.1-.1-3.4-2-2.7-4.3,.2-.8,.7-1.4,1.4-1.8,1.5-1,3.4-.3,4,1.4,.2,.7,.2,1.4,0,2.1l-4.6-1.1c-.4,.8,0,2,.6,2.6,.8,.7,1.8,.6,3.1-.2Zm.2-2c.2-1.2-.5-2.2-1.5-2.5-.9-.2-2,.6-2.2,1.6l3.7,.9Z"/>
          <path class="uuid-15a4b540-1387-442a-9908-bcc75e946add" d="M69.8,173.4c-.2,.9-.6,1.6-1.4,2.1-1.3,.9-3,.6-3.8-.7-1-1.5-.4-3.9,1.1-4.8,1.6-1,3.5-.2,4,1.7,.2,.6,.2,1.2,0,1.8Zm-4.6-1.1c-.1,.6-.2,1.3,0,1.9,.5,1.2,1.8,1.5,2.8,.7,.9-.8,1.3-2.5,.8-3.6-.5-1.1-1.8-1.4-2.7-.6-.5,.4-.8,1-.9,1.7Z"/>
          <path class="uuid-15a4b540-1387-442a-9908-bcc75e946add" d="M75.2,175.9c.2,.1,.3,.3,.5,.4-.5,1-1.9,1.5-3,1.1-1.2-.4-1.8-1.4-1.8-2.9,0-1.3,.5-2.3,1.6-3.1,1.2-.8,2.7-.4,3.2,.7,0,0,0,0,.1,.1v-.6c.3,0,.5,0,.7,.1,0,0,.1,.1,.1,.2-.1,.6-.2,1.1-.4,1.7,0,0-.1,.1-.2,.1,0,0-.2,0-.3,0-.2,0-.2-.1-.2-.3,0-.3-.1-.6-.2-.9-.4-.9-1.4-1.2-2.3-.6-.5,.3-.8,.8-1,1.4-.3,.7-.3,1.5,0,2.3,.4,1.2,1.7,1.6,2.7,.8,.2-.2,.4-.4,.6-.6Z"/>
          <path class="uuid-15a4b540-1387-442a-9908-bcc75e946add" d="M58.2,167.6l-.3,1.1c.6-.8,1.4-1.1,2.4-.7l-.2,.8c0,0-.2,0-.3,0-1.4-.4-2,.4-2.3,1.3-.3,1-.5,2-.7,3,.2,0,.5,0,.8,.2,0,0,.1,.2,.1,.2,0,.1,0,.3-.2,.2-.9-.2-1.8-.4-2.7-.6v-.5l1.1,.2,1.1-5c-.3,0-.5-.1-.8-.2-.2,0-.2-.2-.2-.4,0-.2,.1-.3,.3-.2,.6,.1,1.1,.3,1.8,.4Z"/>
          <path class="uuid-15a4b540-1387-442a-9908-bcc75e946add" d="M61.6,169v-.6l1.8,.4-1.3,5.5c.2,0,.4,.1,.6,.1,.2,0,.2,.1,.1,.3,0,.1,0,.3-.3,.2-.7-.2-1.5-.3-2.3-.5v-.5l.9,.2,1.1-4.9-.8-.2Z"/>
          <path class="uuid-15a4b540-1387-442a-9908-bcc75e946add" d="M62.9,166.4c0-.3,.4-.5,.7-.5s.5,.4,.4,.7c0,.3-.4,.5-.7,.5-.3,0-.4-.4-.4-.7Z"/>
          <path class="uuid-15a4b540-1387-442a-9908-bcc75e946add" d="M92,186.1c0,.3-.4,.5-.7,.4-.3,0-.5-.4-.4-.7,0-.3,.4-.5,.7-.5,.3,0,.5,.4,.4,.7Zm-.1,0c0-.3-.1-.5-.4-.6-.2,0-.5,.1-.5,.4,0,.2,.1,.5,.3,.6,.2,0,.5-.1,.6-.4Z"/>
          <path class="uuid-15a4b540-1387-442a-9908-bcc75e946add" d="M91.9,186.1c0,.3-.3,.4-.6,.4-.2,0-.4-.3-.3-.6,0-.3,.3-.4,.5-.4,.3,0,.4,.3,.4,.6Zm-.4,.3s0,0,.1-.1c0-.1,.1-.2,.1-.3,0,0,0-.2,0-.3-.1,0-.3,0-.3,0,0,.2-.1,.4-.1,.6,0,0,0,0,0,0,0,0,.1-.1,.2-.2,0,.1,0,.2,0,.3Z"/>
          <path class="uuid-15a4b540-1387-442a-9908-bcc75e946add" d="M91.5,186.4c0-.1,0-.2,0-.3,0,0-.1,.1-.2,.2,0,0,0,0,0,0,0-.2,0-.4,.1-.6,0,0,.2,0,.3,0,0,0,0,.2,0,.3,0,.1,0,.2-.1,.3,0,0,0,0-.1,.1Z"/>
        </g>
        <g>
          <path class="uuid-3a76182a-87e0-4fbf-91e1-ea14b6a293d7" d="M300.5,129.3c.5-.7,1-1.3,1.5-2,4.1,3.4,8.2,6.8,12.3,10.2,.4-1,.9-1.9,1.4-2.9-3.9-3.3-7.9-6.6-11.8-9.8,.5-.7,1-1.3,1.5-2l-2.2-1.8c-1.7,2.1-3.4,4.2-5.2,6.3l2.4,2Z"/>
          <path class="uuid-3a76182a-87e0-4fbf-91e1-ea14b6a293d7" d="M319,122.1c-2.5-2.1-4.9-4.1-7.4-6.2-1.8-1.5-3.5-1.2-5.3,.9-1.7,2.1-1.6,3.9,.3,5.6,2.7,2.2,5.4,4.5,8,6.7,1.9,1.6,3.5,1.2,4.9-1.2,1.4-2.4,1.2-4.3-.5-5.8m-1.7,2.7c.5,.4,.6,.9,.2,1.4-.3,.5-.7,.6-1.2,.2-2.6-2.2-5.2-4.3-7.8-6.5-.5-.4-.5-.9-.2-1.3h0c.4-.5,.8-.5,1.3-.1,2.5,2.1,5.1,4.3,7.6,6.4"/>
          <path class="uuid-3a76182a-87e0-4fbf-91e1-ea14b6a293d7" d="M312.6,109.2c-1.7,2.1-1.7,3.9,0,5.3,.4,.3,.7,.6,1.1,.9,1.1,1,2.6,1.1,4.4,.3,1.7-.7,2.8-.8,3.3-.4,.4,.4,.9,.7,1.3,1.1,.4,.4,.5,.8,.1,1.3-.4,.5-.8,.6-1.2,.2l-1.7-1.4c-.6,.9-1.2,1.7-1.8,2.6,.6,.5,1.2,1,1.7,1.5,1.8,1.5,3.4,1,4.9-1.2,1.6-2.3,1.6-4-.1-5.5-.5-.4-1-.8-1.5-1.2-1.1-.9-2.5-1-4.3-.2-1.7,.7-2.8,.8-3.3,.4l-1.1-.9c-.5-.4-.5-.8-.1-1.3h0c.4-.5,.8-.5,1.3-.2,.6,.5,1.1,.9,1.7,1.4,.6-.8,1.3-1.7,2-2.5-.6-.5-1.1-.9-1.7-1.4-1.7-1.4-3.4-1.1-5.1,1"/>
          <path class="uuid-3a76182a-87e0-4fbf-91e1-ea14b6a293d7" d="M321.6,102.5c.5-.6,1.1-1.3,1.6-1.9l-1.9-1.5c-1.7,2.1-3.5,4.2-5.2,6.3,.6,.5,1.2,1,1.9,1.6,.5-.6,1.1-1.3,1.6-1.9,3.3,2.7,6.5,5.4,9.8,8.1,.7-.8,1.3-1.6,2-2.5-3.3-2.7-6.6-5.4-9.8-8.1"/>
          <path class="uuid-3a76182a-87e0-4fbf-91e1-ea14b6a293d7" d="M336.4,86.8c-1.9-1.6-3.7-1.4-5.3,.6-.9,1.1-1.9,2.2-2.8,3.4,4.1,3.4,8.3,6.8,12.4,10.1,1-1,2.1-1.9,3.1-2.9,2-1.8,2.1-3.4,.2-5-2.5-2.1-5.1-4.1-7.6-6.2m5.3,9.6c-.2,.2-.5,.4-.7,.6-2.9-2.4-5.8-4.7-8.7-7.1,.2-.2,.4-.5,.6-.7,.4-.5,.9-.5,1.4,0,2.5,2,4.9,4,7.4,6,.5,.4,.5,.8,0,1.2"/>
          <path class="uuid-3a76182a-87e0-4fbf-91e1-ea14b6a293d7" d="M337.1,79.6c-1.7,2.1-1.6,4,.4,5.6,2.7,2.2,5.5,4.5,8.2,6.7,2,1.6,4,1.5,6.3,0,2.2-1.6,2.3-3.3,.1-5.1l-9.1-7.5c-2.2-1.8-4.2-1.7-5.9,.4m12.6,10.3c-.5,.4-1,.4-1.5,0l-8.5-7c-.5-.4-.6-.9-.2-1.3h0c.4-.5,.9-.5,1.4,0,2.9,2.4,5.8,4.8,8.7,7.2,.5,.5,.6,.9,0,1.3"/>
          <path class="uuid-3a76182a-87e0-4fbf-91e1-ea14b6a293d7" d="M328.6,129.9c-.3,.4-.7,.1-.8,0l-1.2-1c0,0-.2-.2-.3-.4,0-.1,0-.3,.1-.4,.3-.4,.7,0,.8,0l.6-.7c-.3-.2-.7-.5-1.2-.4-.4,0-.6,.3-.8,.5-.6,.8-.5,1.5,.2,2.1l1,.8c.7,.5,1,.5,1.2,.5,.4,0,.7-.2,1-.6s.4-.5,.4-.9c0-.4-.2-.7-.3-.8-.1-.1-.1-.2-.4-.4l-.6,.7c.3,.3,.5,.6,.3,.9"/>
          <path class="uuid-3a76182a-87e0-4fbf-91e1-ea14b6a293d7" d="M328.1,125l2.5,3.6,.6-.7-.5-.7,.8-1,.8,.4,.6-.7-4-1.7-.7,.9Zm2.1,1.6l-1.2-1.6h0l1.8,.8-.6,.7Z"/>
          <polygon class="uuid-3a76182a-87e0-4fbf-91e1-ea14b6a293d7" points="332.5 120.9 331.9 120.4 330.1 122.6 333.4 125.2 334 124.5 332.6 123.4 333.4 122.4 332.8 121.9 332 122.9 331.3 122.3 332.5 120.9"/>
          <polygon class="uuid-3a76182a-87e0-4fbf-91e1-ea14b6a293d7" points="335 117.9 334.4 117.4 332.6 119.6 335.8 122.3 337.7 120 337.1 119.5 335.8 121.1 335 120.4 335.9 119.4 335.3 118.9 334.4 120 333.7 119.4 335 117.9"/>
          <path class="uuid-3a76182a-87e0-4fbf-91e1-ea14b6a293d7" d="M340.3,114.6l-.6,.7c.3,.3,.5,.6,.3,.9s-.7,.1-.8,0l-1.2-1c0,0-.2-.2-.3-.4,0-.1,0-.3,.1-.4,.3-.4,.7,0,.8,0l.6-.7c-.3-.2-.7-.5-1.2-.4-.4,0-.6,.3-.8,.5-.6,.8-.5,1.5,.2,2.1l1,.8c.7,.5,1,.5,1.2,.5,.4,0,.7-.2,1-.6s.4-.5,.4-.9c0-.4-.2-.7-.3-.8-.1-.1-.1-.2-.4-.4"/>
          <polygon class="uuid-3a76182a-87e0-4fbf-91e1-ea14b6a293d7" points="343.3 111.9 342.2 113.4 339.5 111.2 338.9 111.9 342.2 114.6 343.9 112.4 343.3 111.9"/>
          <path class="uuid-3a76182a-87e0-4fbf-91e1-ea14b6a293d7" d="M344.9,109.1c.6,.5,.3,.8,.2,.9-.4,.4-.8,.1-1,0l-2.1-1.8-.6,.7,2.1,1.7c.3,.2,.7,.5,1.2,.5,.3,0,.7-.3,1-.7s.4-.6,.4-1c0-.6-.5-.9-.7-1.1l-2.1-1.8-.6,.7,2.1,1.8Z"/>
          <path class="uuid-3a76182a-87e0-4fbf-91e1-ea14b6a293d7" d="M347.2,105.1h0c.2-.3,0-.7-.3-1s-.6-.3-1-.2c-.3,0-.5,.3-.7,.6l-.9,1.1,3.2,2.7,.9-1c.3-.4,.5-.7,.5-1.1,0-.4-.3-.6-.5-.8-.5-.4-1-.3-1.2,0m-1.9,.1l.3-.3c.1-.1,.4-.4,.7-.1s.3,.5-.2,1.1l-.8-.7Zm2.5,1.5l-.3,.4-.9-.7c.2-.3,.4-.5,.5-.6,.2-.1,.4,0,.6,.1,.3,.3,.3,.6,0,.8"/>
          <polygon class="uuid-3a76182a-87e0-4fbf-91e1-ea14b6a293d7" points="333.2 118.2 333.5 117.8 333.3 116.5 332.7 117.2 333.2 118.2"/>
          <path class="uuid-3a76182a-87e0-4fbf-91e1-ea14b6a293d7" d="M334.8,98.7c-3.1-1.7-6.1-3.3-9.1-4.9-.9,1-1.7,2.1-2.6,3.1,2.1,2.6,4.2,5.1,6.4,7.7,1.2,1.4,2.4,2.8,3.6,4.1,.7-.8,1.4-1.6,2.1-2.4-.7-.8-1.4-1.6-2.1-2.4,.5-.6,1.1-1.1,1.6-1.7,1,.6,1.9,1.1,2.9,1.7,.8-.8,1.5-1.5,2.3-2.3-1.7-1-3.4-2-5-3m-3.3,3.4l-3.4-3.8,4.4,2.6-1,1.1Z"/>
        </g>
        <g>
          <path class="uuid-3a76182a-87e0-4fbf-91e1-ea14b6a293d7" d="M79.2,350.6c.5-.7,1-1.3,1.5-2,4.1,3.4,8.2,6.8,12.3,10.2,.4-1,.9-1.9,1.4-2.9-3.9-3.3-7.9-6.6-11.8-9.8,.5-.7,1-1.3,1.5-2l-2.2-1.8c-1.7,2.1-3.4,4.2-5.2,6.3l2.4,2Z"/>
          <path class="uuid-3a76182a-87e0-4fbf-91e1-ea14b6a293d7" d="M97.7,343.4c-2.5-2.1-4.9-4.1-7.4-6.2-1.8-1.5-3.5-1.2-5.3,.9-1.7,2.1-1.6,3.9,.3,5.6,2.7,2.2,5.4,4.5,8,6.7,1.9,1.6,3.5,1.2,4.9-1.2,1.4-2.4,1.2-4.3-.5-5.8m-1.7,2.7c.5,.4,.6,.9,.2,1.4-.3,.5-.7,.6-1.2,.2-2.6-2.2-5.2-4.3-7.8-6.5-.5-.4-.5-.9-.2-1.3h0c.4-.5,.8-.5,1.3-.1,2.5,2.1,5.1,4.3,7.6,6.4"/>
          <path class="uuid-3a76182a-87e0-4fbf-91e1-ea14b6a293d7" d="M91.3,330.5c-1.7,2.1-1.7,3.9,0,5.3,.4,.3,.7,.6,1.1,.9,1.1,1,2.6,1.1,4.4,.3,1.7-.7,2.8-.8,3.3-.4,.4,.4,.9,.7,1.3,1.1,.4,.4,.5,.8,.1,1.3-.4,.5-.8,.6-1.2,.2l-1.7-1.4c-.6,.9-1.2,1.7-1.8,2.6,.6,.5,1.2,1,1.7,1.5,1.8,1.5,3.4,1,4.9-1.2,1.6-2.3,1.6-4-.1-5.5-.5-.4-1-.8-1.5-1.2-1.1-.9-2.5-1-4.3-.2-1.7,.7-2.8,.8-3.3,.4l-1.1-.9c-.5-.4-.5-.8-.1-1.3h0c.4-.5,.8-.5,1.3-.2,.6,.5,1.1,.9,1.7,1.4,.6-.8,1.3-1.7,2-2.5-.6-.5-1.1-.9-1.7-1.4-1.7-1.4-3.4-1.1-5.1,1"/>
          <path class="uuid-3a76182a-87e0-4fbf-91e1-ea14b6a293d7" d="M100.2,323.9c.5-.6,1.1-1.3,1.6-1.9l-1.9-1.5c-1.7,2.1-3.5,4.2-5.2,6.3,.6,.5,1.2,1,1.9,1.6,.5-.6,1.1-1.3,1.6-1.9,3.3,2.7,6.5,5.4,9.8,8.1,.7-.8,1.3-1.6,2-2.5-3.3-2.7-6.6-5.4-9.8-8.1"/>
          <path class="uuid-3a76182a-87e0-4fbf-91e1-ea14b6a293d7" d="M115.1,308.1c-1.9-1.6-3.7-1.4-5.3,.6-.9,1.1-1.9,2.2-2.8,3.4,4.1,3.4,8.3,6.8,12.4,10.1,1-1,2.1-1.9,3.1-2.9,2-1.8,2.1-3.4,.2-5-2.5-2.1-5.1-4.1-7.6-6.2m5.3,9.6c-.2,.2-.5,.4-.7,.6-2.9-2.4-5.8-4.7-8.7-7.1,.2-.2,.4-.5,.6-.7,.4-.5,.9-.5,1.4,0,2.5,2,4.9,4,7.4,6,.5,.4,.5,.8,0,1.2"/>
          <path class="uuid-3a76182a-87e0-4fbf-91e1-ea14b6a293d7" d="M115.7,301c-1.7,2.1-1.6,4,.4,5.6,2.7,2.2,5.5,4.5,8.2,6.7,2,1.6,4,1.5,6.3,0,2.2-1.6,2.3-3.3,.1-5.1l-9.1-7.5c-2.2-1.8-4.2-1.7-5.9,.4m12.6,10.3c-.5,.4-1,.4-1.5,0l-8.5-7c-.5-.4-.6-.9-.2-1.3h0c.4-.5,.9-.5,1.4,0,2.9,2.4,5.8,4.8,8.7,7.2,.5,.5,.6,.9,0,1.3"/>
          <path class="uuid-3a76182a-87e0-4fbf-91e1-ea14b6a293d7" d="M107.3,351.2c-.3,.4-.7,.1-.8,0l-1.2-1c0,0-.2-.2-.3-.4,0-.1,0-.3,.1-.4,.3-.4,.7,0,.8,0l.6-.7c-.3-.2-.7-.5-1.2-.4-.4,0-.6,.3-.8,.5-.6,.8-.5,1.5,.2,2.1l1,.8c.7,.5,1,.5,1.2,.5,.4,0,.7-.2,1-.6s.4-.5,.4-.9c0-.4-.2-.7-.3-.8-.1-.1-.1-.2-.4-.4l-.6,.7c.3,.3,.5,.6,.3,.9"/>
          <path class="uuid-3a76182a-87e0-4fbf-91e1-ea14b6a293d7" d="M106.8,346.4l2.5,3.6,.6-.7-.5-.7,.8-1,.8,.4,.6-.7-4-1.7-.7,.9Zm2.1,1.6l-1.2-1.6h0l1.8,.8-.6,.7Z"/>
          <polygon class="uuid-3a76182a-87e0-4fbf-91e1-ea14b6a293d7" points="111.2 342.2 110.6 341.7 108.8 343.9 112 346.5 112.6 345.8 111.3 344.7 112.1 343.8 111.5 343.3 110.7 344.2 110 343.7 111.2 342.2"/>
          <polygon class="uuid-3a76182a-87e0-4fbf-91e1-ea14b6a293d7" points="113.6 339.2 113 338.8 111.2 340.9 114.5 343.6 116.4 341.3 115.8 340.8 114.5 342.4 113.7 341.8 114.5 340.8 113.9 340.3 113.1 341.3 112.4 340.7 113.6 339.2"/>
          <path class="uuid-3a76182a-87e0-4fbf-91e1-ea14b6a293d7" d="M119,335.9l-.6,.7c.3,.3,.5,.6,.3,.9s-.7,.1-.8,0l-1.2-1c0,0-.2-.2-.3-.4,0-.1,0-.3,.1-.4,.3-.4,.7,0,.8,0l.6-.7c-.3-.2-.7-.5-1.2-.4-.4,0-.6,.3-.8,.5-.6,.8-.5,1.5,.2,2.1l1,.8c.7,.5,1,.5,1.2,.5,.4,0,.7-.2,1-.6s.4-.5,.4-.9c0-.4-.2-.7-.3-.8-.1-.1-.1-.2-.4-.4"/>
          <polygon class="uuid-3a76182a-87e0-4fbf-91e1-ea14b6a293d7" points="122 333.3 120.8 334.7 118.2 332.5 117.6 333.2 120.8 335.9 122.6 333.8 122 333.3"/>
          <path class="uuid-3a76182a-87e0-4fbf-91e1-ea14b6a293d7" d="M123.6,330.4c.6,.5,.3,.8,.2,.9-.4,.4-.8,.1-1,0l-2.1-1.8-.6,.7,2.1,1.7c.3,.2,.7,.5,1.2,.5,.3,0,.7-.3,1-.7s.4-.6,.4-1c0-.6-.5-.9-.7-1.1l-2.1-1.8-.6,.7,2.1,1.8Z"/>
          <path class="uuid-3a76182a-87e0-4fbf-91e1-ea14b6a293d7" d="M125.8,326.4h0c.2-.3,0-.7-.3-1s-.6-.3-1-.2c-.3,0-.5,.3-.7,.6l-.9,1.1,3.2,2.7,.9-1c.3-.4,.5-.7,.5-1.1,0-.4-.3-.6-.5-.8-.5-.4-1-.3-1.2,0m-1.9,.1l.3-.3c.1-.1,.4-.4,.7-.1s.3,.5-.2,1.1l-.8-.7Zm2.5,1.5l-.3,.4-.9-.7c.2-.3,.4-.5,.5-.6,.2-.1,.4,0,.6,.1,.3,.3,.3,.6,0,.8"/>
          <polygon class="uuid-3a76182a-87e0-4fbf-91e1-ea14b6a293d7" points="111.9 339.5 112.2 339.1 111.9 337.8 111.4 338.5 111.9 339.5"/>
          <path class="uuid-3a76182a-87e0-4fbf-91e1-ea14b6a293d7" d="M113.4,320.1c-3.1-1.7-6.1-3.3-9.1-4.9-.9,1-1.7,2.1-2.6,3.1,2.1,2.6,4.2,5.1,6.4,7.7,1.2,1.4,2.4,2.8,3.6,4.1,.7-.8,1.4-1.6,2.1-2.4-.7-.8-1.4-1.6-2.1-2.4,.5-.6,1.1-1.1,1.6-1.7,1,.6,1.9,1.1,2.9,1.7,.8-.8,1.5-1.5,2.3-2.3-1.7-1-3.4-2-5-3m-3.3,3.4l-3.4-3.8,4.4,2.6-1,1.1Z"/>
        </g>
        <g>
          <path class="uuid-3a76182a-87e0-4fbf-91e1-ea14b6a293d7" d="M402.6,181.2c.2,0,.3,0,.4,0,.8,.1,1.3,.5,1.5,1.3,0,.3,.2,.6,.2,1,0,.4,.1,.8,.2,1.2,0,.1,0,.3,.1,.4,.1,.3,.4,.3,.6,0,0,0,0-.2,.1-.2,0,0,0-.2,0-.3h.3c0,0,0,.1,0,.1,0,.6-.3,1.1-.9,1.4-.8,.4-1.5,.5-2.3,.1-.4-.2-.7-.5-.8-1-.1-.8-.2-1.6-.3-2.3,0-.2,0-.4-.2-.6-.1-.3-.3-.5-.7-.6-.4,0-.8,0-1.2,0,0,.3,.5,4.2,.7,4.6h.5v.2c-.2,.1-3.4,.6-3.8,.6v-.2c0,0,0,0,.2-.1,0,0,.2,0,.2,0,0-.4-1.3-8.9-1.4-9.2h-.4c-.1,0-.2-.2,0-.3,0,0,.1,0,.2,0,1.1-.2,2.2-.3,3.3-.5,.7,0,1.4-.2,2.1-.3,.5,0,1.1,0,1.6,0,.6,.1,1,.5,1.3,1.1,.3,.6,.3,1.2,.3,1.8,0,.6-.4,1-.9,1.3-.2,.1-.4,.2-.6,.3,0,0-.1,0-.2,.1Zm-3.6-4c0,.4,.1,.8,.2,1.1,0,.4,.1,.7,.2,1.1,0,.4,.1,.7,.2,1.1,0,.3,0,.7,.2,1.1,.3,0,.5-.1,.8-.2,.6-.2,1-.6,.9-1.2,0-.7-.2-1.4-.3-2.1-.1-.5-.5-.9-1-.9-.3,0-.6,0-1,0Z"/>
          <path class="uuid-3a76182a-87e0-4fbf-91e1-ea14b6a293d7" d="M355.3,188.4c.1,.9,.2,1.8,0,2.7-.3,1.3-1.1,2.2-2.3,2.8-1.1,.5-2.3,.6-3.4,.5-1.5-.2-2.5-1-3.2-2.3-.4-.9-.6-1.8-.7-2.7,0-.6,0-1.3,0-1.9,.2-.8,.5-1.6,1.1-2.2,.5-.5,1-.8,1.7-1,.9-.3,1.9-.4,2.9-.3,1.6,.2,2.7,1,3.3,2.4,.3,.7,.5,1.4,.6,2Zm-6.5,1c0,.3,0,.6,.1,1,0,.3,0,.7,.2,1,0,.6,.2,1.1,.5,1.7,.3,.6,.8,1,1.5,.9,.8,0,1.2-.3,1.5-1,0-.1,0-.2,0-.3,.1-.6,0-1.2,0-1.7-.2-1.6-.4-3.3-.8-4.9,0-.4-.2-.7-.4-1.1-.2-.3-.5-.6-.8-.6-.5,0-.9,0-1.3,.2-.5,.3-.7,.8-.7,1.3,0,.5,0,1.1,0,1.6,0,.6,.2,1.3,.3,1.9Z"/>
          <path class="uuid-3a76182a-87e0-4fbf-91e1-ea14b6a293d7" d="M360.3,188.7l.5,3.7h.8v.2s0,.1-.1,.1c-1.3,.2-2.6,.4-3.9,.6,0,0-.1,0-.2,0v-.3l.4-.2c0-.4-1.2-8.9-1.4-9.2h-.4c-.1,0-.2-.2,0-.3,0,0,.2,0,.3,0,1.3-.2,2.5-.4,3.8-.6,.8-.1,1.5-.1,2.3,0,1,.2,1.8,.7,2,2,0,.5,.2,.9,0,1.4-.1,.7-.5,1.3-1.1,1.7-.7,.4-1.4,.7-2.2,.8-.2,0-.5,0-.7,.1,0,0-.2,0-.3,0Zm0-.4c.3,0,.4,0,.7,0,.5-.2,.7-.5,.8-1,0-.2,0-.5,0-.7,0-.7-.2-1.3-.3-2,0-.2,0-.4-.2-.6-.3-.7-1-1-1.7-.6l.8,5.1Z"/>
          <path class="uuid-3a76182a-87e0-4fbf-91e1-ea14b6a293d7" d="M339.4,191.8c.2,1.2,.4,2.4,.5,3.7,.2,0,.3,0,.5,0,.1,0,.3,0,.5,0v.2l-4.3,.6v-.3l.4-.2c0-.3-1.2-8.8-1.4-9.2h-.5v-.2c0,0,0,0,0-.1,0,0,.2,0,.3,0,1.3-.2,2.5-.4,3.8-.6,.8-.1,1.6-.2,2.4,0,.3,0,.6,.2,.9,.3,.3,.2,.6,.5,.8,.8,.4,.8,.5,1.6,.3,2.4-.1,.6-.4,1-.9,1.3-.7,.5-1.6,.8-2.4,1-.3,0-.6,.1-.9,.2Zm0-.4c.3,0,.5,0,.8-.1,.4-.1,.6-.4,.7-.8,0-.3,0-.5,0-.8-.1-.7-.2-1.5-.3-2.2,0-.1,0-.3,0-.4-.2-.8-1-1.2-1.8-.8l.8,5.1Z"/>
          <path class="uuid-3a76182a-87e0-4fbf-91e1-ea14b6a293d7" d="M366.2,182.1h-.4v-.3c.2-.1,3.2-.6,3.7-.6,.1,0,.1,.2,0,.3h-.4c0,.2,0,.3,0,.4,.3,1.7,.5,3.4,.8,5.1,.1,.7,.3,1.4,.5,2,.5,1.2,1.3,1.8,2.8,1.3,.5-.2,.8-.5,1-.9,.1-.3,.2-.6,.2-1,0-.7,0-1.4,0-2.1-.2-1.6-.5-3.3-.7-4.9,0-.2,0-.3,0-.5h-.5c-.1,0-.2-.2,0-.3,.3-.1,1.3-.3,1.6-.2v.3l-.3,.2s0,.1,0,.1c0,.6,.2,1.1,.2,1.7,.2,1.5,.4,2.9,.7,4.4,0,.6,0,1.2,0,1.8-.2,.9-.7,1.5-1.5,1.8-1.1,.5-2.3,.6-3.5,.5-.4,0-.9-.2-1.2-.3-.5-.2-.9-.7-1.2-1.2-.3-.5-.4-1-.5-1.6-.3-1.9-.6-3.8-.8-5.6v-.4Z"/>
          <path class="uuid-3a76182a-87e0-4fbf-91e1-ea14b6a293d7" d="M376.4,180.6h-.5c0,0,0-.1,0-.2,0,0,0,0,0-.1,.3-.1,2.7-.5,4-.6,0,0,.2,0,.3,0v.3l-.9,.2c0,.2,0,.3,0,.4,.2,1.6,.5,3.2,.7,4.8,.2,1.2,.4,2.4,.5,3.7,0,0,0,.2,0,.3,1,0,1.8-.4,2.3-1.2,.4-.6,.6-1.2,.8-1.8,0-.2,.1-.3,.2-.6h.3c.1,.1,.3,3,.3,3.4,0,0-.2,0-.3,0-2.2,.3-4.3,.6-6.5,1-.1,0-.3,0-.4,0v-.3h.3c0-.3,0-.4,0-.6-.3-2-.6-3.9-.9-5.9-.1-.8-.2-1.6-.3-2.3v-.5Z"/>
          <path class="uuid-3a76182a-87e0-4fbf-91e1-ea14b6a293d7" d="M395.2,187.2c0,0,.1,0,.2,0,0,0,0,0,.2,0v.2c-.4,.1-3.7,.6-4,.6v-.3l.5-.2c0,0,0-.2,0-.3-.7-1.3-1.3-2.6-2-4-.3-.7-.7-1.4-1-2,0,0,0-.1-.2-.3l-1.4,7.2c.2,.1,.5-.1,.7,.1v.2l-1.7,.2v-.2l.2-.2,2.2-10.2c.5,0,.9-.1,1.4-.2,1.7,3.1,3.3,6.1,5,9.2Z"/>
          <path class="uuid-3a76182a-87e0-4fbf-91e1-ea14b6a293d7" d="M336.3,176c.4,0,.7,.1,.9,.3,.9,.4,1.5,1.1,1.8,2,.3,.8,.3,1.5,0,2.3-.1,.4-.2,.9-.2,1.3,0,.9,.3,1.7,.9,2.4,0,0,0,.1,.1,.2-.1,0-.2,0-.2,0-1.3-.3-2-1.2-2.5-2.4-.3-.7-.2-1.5,0-2.2,0-.3,.1-.6,.2-.9,.1-1.1-.2-2-.9-2.8,0,0,0-.1-.2-.2Z"/>
          <path class="uuid-3a76182a-87e0-4fbf-91e1-ea14b6a293d7" d="M371.1,176.9c0-.2,0-.5,0-.7,0-.1,0-.2,0-.3,0-.3,.1-.3,.4-.2,0,0,0,0,0,.1,0,.5,.1,.9,.2,1.3,0,.2-.3,.3-.4,.3-.8,.1-1.7,.2-2.5,.4-.1,0-.2,0-.4,0-.1,0-.3,0-.3-.2,0-.4,.5-.2,.7-.4,0-.3,0-.7-.1-1,0-.4,0-.7-.2-1.1,0-.3,0-.7-.2-1.1-.2,0-.3,0-.5,0-.2,0-.3,0-.3-.3,0,0,.2-.1,.3-.1,1-.2,2.1-.3,3.2-.5,0,0,.1,.2,.2,.2,0,.4,.1,.9,.2,1.3l-.3,.2c-.4-.4-.2-.8-.4-1.2-.3,0-1.4,.1-1.8,.3l.2,1.1c.3,0,.5,0,.8,0v-.7c.2-.2,.3-.2,.4,0,0,0,0,0,0,.1,0,.5,.1,.9,.2,1.4,0,0,0,0,0,.1,0,.2-.1,.3-.4,.2l-.2-.6h-.8c0,.4,0,1.3,.2,1.6l1.8-.3Z"/>
          <path class="uuid-3a76182a-87e0-4fbf-91e1-ea14b6a293d7" d="M376.7,176c.4-.1,.4-.2,.4-.4,0-.1,0-.3,0-.4,0-.1,0-.3,0-.4q.2-.1,.4-.1c.2,.4,.2,.8,.2,1.2,0,.4-.3,.6-.7,.7-.3,0-.7-.2-.8-.5,0-.2,0-.4-.1-.6,0-.2,0-.3,0-.5-.6-.3-1,0-1.6,0,0,.5,.1,.9,.2,1.4,.3,.1,.6-.2,.8,.2,0,.2,0,.3-.3,.3-.5,0-1,.2-1.5,.2-.1,0-.2,0-.3-.2v-.3h.8l-.5-3.3h-.8v-.4c0,0,.2,0,.3,0,.7-.1,1.4-.2,2.1-.3,.5,0,.9,.1,1.2,.5,.2,.4,.2,.8-.2,1.2,0,0,0,0-.1,.1,0,0,0,0,0,.1,.2,.2,.3,.4,.3,.7,0,.1,0,.3,0,.4,0,.1,.1,.2,.2,.3Zm-2.4-1.6c.5,0,.9,0,1.3-.2,.4,0,.5-.4,.4-.8,0-.3-.3-.5-.7-.5-.3,0-.7,0-1,.2,0,0-.1,0-.2,0l.2,1.2Z"/>
          <path class="uuid-3a76182a-87e0-4fbf-91e1-ea14b6a293d7" d="M387.7,174.7c0,.2-.1,.2-.3,.3-.5,0-1,.1-1.5,.2-.1,0-.3,0-.3-.2,0-.4,.5-.2,.8-.4-.1-.3-.3-.6-.5-.9l-1.5,.2c-.1,.3-.2,.7-.2,1,.3,0,.6-.2,.8,0,0,.3,0,.3-.2,.4,0,0-.2,0-.2,0-.4,0-.9,.1-1.3,.2-.3,0-.3,0-.4-.3,.1-.3,.4-.2,.7-.3,0-.2,.1-.5,.2-.7,.2-.8,.3-1.7,.5-2.5,0-.1,0-.3,0-.4,0-.2,.2-.3,.4-.3,.2,0,.3,0,.4,.2,0,0,.1,.2,.1,.3,.5,.9,1,1.8,1.4,2.7,0,0,.1,.2,.2,.3,.2,.1,.6-.2,.8,.2Zm-2.8-3h0c0,.6-.2,1.1-.3,1.7,.4-.1,.7,0,1.1-.2,0,0,0-.1,0-.2-.2-.4-.4-.8-.7-1.2Z"/>
          <path class="uuid-3a76182a-87e0-4fbf-91e1-ea14b6a293d7" d="M365.1,174.5l-1.9,.3c0,.4,.1,.8,0,1.2h-.3c0,0-.1,0-.1,0-.1-.5-.2-1-.2-1.5,.3-.1,2.4-.5,3-.5,.2,.1,.2,.3,0,.4-.1,.3-.3,.5-.4,.8-.4,.8-.8,1.5-1.3,2.3,0,.1-.1,.3-.2,.4,.3,0,1.5-.1,2-.3,0-.2,0-.4,0-.6,0-.2,0-.4,0-.6,0,0,.1,0,.2-.1,0,0,.1,0,.2,0,.2,.5,.2,1.1,.3,1.6-.1,0-.2,.1-.3,.1-.9,.1-1.7,.3-2.6,.4-.2,0-.3,0-.4-.2,.3-.6,.7-1.2,1-1.8,.3-.6,.7-1.2,1-1.9Z"/>
          <path class="uuid-3a76182a-87e0-4fbf-91e1-ea14b6a293d7" d="M358.3,175.6v1.1h-.2c-.2,0-.3-1-.3-1.6,0,0,0,0,.2,0,.9-.1,1.9-.3,2.8-.4,.2,0,.2,.2,.2,.4,0,0,0,.2-.1,.2-.5,1-1.1,2-1.6,3,0,.1-.1,.2-.2,.3,.2,0,1.3,0,1.9-.2,0-.2,0-.4,0-.6,0-.2,0-.4,0-.6h.3c0,0,.1,0,.1,0,0,.5,.2,1,.2,1.5-.1,0-.2,0-.3,0-.8,.1-1.7,.3-2.5,.4-.2,0-.3,0-.4-.2,0-.1,.1-.3,.2-.4,.5-1,1.1-2,1.6-3,0-.1,.1-.2,.2-.3-.3,0-1.5,0-1.9,.3Z"/>
          <path class="uuid-3a76182a-87e0-4fbf-91e1-ea14b6a293d7" d="M350.3,178.6l.2,1.3c.3,.1,.6-.2,.8,.2v.3c-.7,0-1.2,.2-1.8,.2-.1,0-.3,0-.3-.2,0-.5,.5-.2,.7-.4,0-.3-.3-2.7-.5-3.1-.2,0-.3,0-.5,0-.3,0-.3-.1-.2-.4,0,0,0,0,.1,0,.8-.1,1.5-.2,2.3-.3,.6,0,1.2,.4,1.3,1,0,.6-.3,1.2-.9,1.3-.3,0-.5,0-.8,.1-.1,0-.3,0-.4,0Zm0-.5c.5,0,.9,0,1.3-.2,.3,0,.5-.4,.5-.8,0-.3-.3-.6-.6-.6-.4,0-.9,0-1.3,.2,0,.5,0,.9,.2,1.4Z"/>
          <path class="uuid-3a76182a-87e0-4fbf-91e1-ea14b6a293d7" d="M380.5,175.4c.3,0,.6-.2,.8,.1,0,.3,0,.3-.2,.3-.6,0-1.1,.2-1.6,.2-.2,0-.2-.2-.2-.3,.2-.3,.5-.1,.7-.3-.1-1-.3-2-.4-3.1-.2,0-.4,0-.5,0-.3,0-.3-.1-.2-.4l1.8-.3c.2,0,.2,.2,.2,.3-.2,.2-.5,.1-.7,.3,.1,1,.3,2,.4,3.1Z"/>
          <path class="uuid-3a76182a-87e0-4fbf-91e1-ea14b6a293d7" d="M354,175.7l1.8-.3c.2,.3,.2,.4,0,.5-.1,0-.3,0-.5,0,.1,1.1,.3,2.1,.4,3.1,.2,0,.4,0,.5,0,.3,0,.3,.1,.2,.4-.6,.1-1.2,.2-1.8,.3,0,0-.1,0-.1,0,0,0,0,0,0-.1,.1-.4,.5-.2,.7-.4,0-.3-.3-2.8-.5-3.1-.2,0-.3,0-.5,0-.3,0-.3-.1-.2-.4Z"/>
          <path class="uuid-3a76182a-87e0-4fbf-91e1-ea14b6a293d7" d="M379,171.6c0-.2,0-.3,.1-.3,.4-.2,.6-.6,1-.8,.3,.2,.3,.4,0,.5-.3,.2-.6,.4-.9,.5-.1,0-.2,0-.3,0Z"/>
        </g>
        <g>
          <path class="uuid-3a76182a-87e0-4fbf-91e1-ea14b6a293d7" d="M100.7,253c.2,0,.3,0,.4,0,.8,0,1.3,.3,1.7,1,.1,.3,.3,.6,.4,.9,.1,.4,.3,.8,.4,1.1,0,.1,.1,.2,.2,.3,.2,.2,.4,.2,.6,0,0,0,0-.2,0-.3,0-.1,0-.2,0-.3h.3s0,0,0,0c.1,.6-.1,1.1-.6,1.5-.7,.5-1.4,.8-2.3,.6-.5-.1-.8-.4-.9-.8-.2-.7-.5-1.5-.8-2.2,0-.2-.2-.4-.3-.5-.2-.3-.4-.4-.7-.4-.4,0-.8,0-1.2,.3,0,.3,1.3,4,1.5,4.4h.6c-.3,.3-3.3,1.4-3.8,1.5l-.2-.2c.1,0,.2-.1,.3-.2,0,0,.2,0,.2-.1,0-.4-2.9-8.5-3-8.8h-.4c-.2,0-.2,0-.1-.2,0,0,0,0,.2,0,1.1-.4,2.1-.7,3.2-1.1,.7-.2,1.3-.4,2-.6,.5-.2,1-.2,1.6-.2,.6,0,1.1,.3,1.5,.8,.4,.5,.5,1.1,.6,1.7,0,.6-.2,1.1-.7,1.5-.2,.1-.3,.2-.5,.4,0,0,0,0-.2,.2Zm-4.3-3.3c.1,.4,.3,.7,.4,1.1,.1,.3,.2,.7,.3,1,.1,.3,.2,.7,.3,1,.1,.3,.2,.7,.4,1,.3-.1,.5-.2,.8-.3,.6-.3,.8-.7,.7-1.3-.2-.7-.4-1.4-.7-2-.2-.5-.6-.8-1.2-.7-.3,0-.6,.2-1,.3Z"/>
          <path class="uuid-3a76182a-87e0-4fbf-91e1-ea14b6a293d7" d="M55.5,268.6c.3,.9,.5,1.8,.4,2.7,0,1.3-.6,2.4-1.8,3.1-1,.7-2.1,1-3.3,1.1-1.5,.1-2.7-.5-3.5-1.7-.5-.8-.9-1.6-1.2-2.5-.2-.6-.3-1.2-.3-1.9,0-.8,.2-1.6,.7-2.3,.4-.5,.9-.9,1.5-1.2,.9-.5,1.8-.8,2.8-.9,1.6-.1,2.8,.5,3.7,1.8,.4,.6,.7,1.3,.9,1.9Zm-6.2,2.2c.1,.3,.2,.6,.3,.9,.1,.3,.2,.6,.3,1,.2,.5,.4,1.1,.8,1.5,.4,.6,.9,.8,1.6,.6,.8-.2,1.1-.6,1.3-1.2,0-.1,0-.2,0-.4,0-.6-.1-1.1-.3-1.7-.5-1.6-1-3.1-1.7-4.6-.2-.4-.4-.7-.6-1-.2-.3-.5-.5-.9-.5-.5,0-.9,.1-1.3,.4-.5,.4-.5,.9-.5,1.4,0,.5,.2,1.1,.3,1.6,.2,.6,.4,1.2,.6,1.8Z"/>
          <path class="uuid-3a76182a-87e0-4fbf-91e1-ea14b6a293d7" d="M60.5,268l1.2,3.5,.8-.2v.2c0,0,0,.1,0,.2-1.2,.4-2.5,.8-3.7,1.3,0,0-.1,0-.2,0v-.2l.4-.3c0-.4-2.8-8.5-3-8.8h-.4c-.1,0-.2,0-.1-.2,0,0,.2,0,.3-.1,1.2-.4,2.4-.8,3.6-1.2,.7-.2,1.5-.4,2.3-.4,1,0,1.9,.4,2.3,1.6,.2,.4,.3,.9,.3,1.3,0,.7-.2,1.4-.8,1.9-.6,.5-1.3,.9-2,1.2-.2,0-.4,.2-.7,.3,0,0-.2,0-.3,.1Zm-.1-.4c.3,0,.4,0,.7-.2,.4-.2,.6-.6,.6-1.1,0-.2,0-.5-.2-.7-.2-.6-.4-1.3-.7-1.9,0-.2-.2-.4-.3-.6-.4-.7-1.2-.8-1.8-.3l1.7,4.9Z"/>
          <path class="uuid-3a76182a-87e0-4fbf-91e1-ea14b6a293d7" d="M40.5,274.8c.4,1.2,.8,2.3,1.2,3.5,.2,0,.3,0,.5-.1,.1,0,.3-.2,.5,0v.2l-4.1,1.4v-.2l.4-.3c0-.3-2.8-8.4-3-8.8h-.6c0-.1,0-.2,0-.2,0,0,.2-.1,.3-.1,1.2-.4,2.4-.9,3.6-1.3,.8-.2,1.5-.4,2.4-.4,.3,0,.6,0,.9,.2,.4,.1,.7,.3,.9,.7,.5,.7,.8,1.5,.8,2.3,0,.6-.2,1.1-.6,1.5-.6,.6-1.4,1.1-2.2,1.4-.3,.1-.6,.2-.9,.3Zm-.1-.4c.3,0,.5-.2,.7-.3,.3-.2,.5-.5,.5-.9,0-.3,0-.5-.1-.8-.2-.7-.5-1.4-.7-2.1,0-.1,0-.3-.2-.4-.4-.8-1.2-1-1.9-.4l1.7,4.9Z"/>
          <path class="uuid-3a76182a-87e0-4fbf-91e1-ea14b6a293d7" d="M65.1,260.5h-.4v-.2c.2-.2,3-1.2,3.5-1.3,.2,0,.2,.2,0,.3l-.4,.2c0,0,0,.2,0,.3,.6,1.6,1.1,3.3,1.7,4.9,.2,.7,.5,1.3,.9,1.9,.7,1.1,1.6,1.5,2.9,.8,.4-.2,.7-.6,.8-1.1,0-.3,0-.7,0-1,0-.7-.2-1.4-.5-2-.5-1.6-1.1-3.1-1.6-4.7,0-.1-.1-.3-.2-.4h-.5c-.2,0-.2,0-.1-.2,.3-.2,1.2-.5,1.5-.5v.2l-.2,.2s0,.1,0,.1c.2,.5,.4,1.1,.5,1.6,.5,1.4,1,2.8,1.4,4.2,.2,.6,.3,1.2,.3,1.8,0,.9-.4,1.6-1.2,2-1,.7-2.1,1-3.3,1.1-.4,0-.9,0-1.3-.1-.6-.1-1-.5-1.4-.9-.4-.4-.6-1-.8-1.5-.6-1.8-1.2-3.6-1.9-5.4v-.4Z"/>
          <path class="uuid-3a76182a-87e0-4fbf-91e1-ea14b6a293d7" d="M74.9,257.1h-.4s0,0-.1,0c0,0,0-.1,0-.1,.3-.2,2.6-1,3.8-1.4,0,0,.2,0,.3,0v.3l-.8,.3c0,.1,0,.3,.1,.4,.5,1.5,1,3.1,1.6,4.6,.4,1.2,.8,2.3,1.2,3.5,0,0,0,.2,.1,.3,.9-.2,1.7-.7,2.1-1.6,.2-.6,.4-1.3,.5-1.9,0-.2,0-.4,0-.6h.3c.1,0,.9,2.8,.9,3.2,0,0-.2,0-.3,.1-2.1,.7-4.1,1.4-6.2,2.1-.1,0-.3,0-.4,.1v-.3l.3-.2c0-.2,0-.3,0-.5-.6-1.9-1.3-3.8-1.9-5.7-.3-.7-.5-1.5-.8-2.2v-.4Z"/>
          <path class="uuid-3a76182a-87e0-4fbf-91e1-ea14b6a293d7" d="M94.5,260.2c0,0,.1,0,.2,0,0,0,.1,0,.2,0v.2c-.4,.2-3.5,1.3-3.8,1.3v-.2l.4-.2c0,0,0-.2-.1-.2-.9-1.2-1.8-2.4-2.7-3.5-.5-.6-.9-1.2-1.4-1.8,0,0,0-.1-.2-.2v7.3c.2,0,.4-.2,.6,0v.2l-1.5,.5-.2-.2,.3-.3,.3-10.5c.4-.2,.9-.3,1.3-.5,2.2,2.7,4.4,5.4,6.6,8.1Z"/>
          <path class="uuid-3a76182a-87e0-4fbf-91e1-ea14b6a293d7" d="M34.5,259.9c.4,0,.7,0,.9,0,.9,.3,1.6,.8,2.1,1.7,.4,.7,.6,1.5,.5,2.3,0,.4,0,.9,0,1.3,.2,.9,.6,1.6,1.4,2.2,0,0,0,0,.2,.2-.1,0-.2,0-.2,0-1.3-.1-2.2-.8-2.9-1.9-.4-.7-.5-1.4-.5-2.2,0-.3,0-.6,0-.9,0-1.1-.6-1.9-1.4-2.6,0,0,0,0-.2-.2Z"/>
          <path class="uuid-3a76182a-87e0-4fbf-91e1-ea14b6a293d7" d="M68.9,254.4c0-.2-.1-.4-.2-.7,0,0,0-.2,0-.3,0-.3,0-.4,.4-.3,0,0,0,0,0,.1,.2,.4,.3,.9,.4,1.3,0,.3-.2,.3-.4,.3-.8,.3-1.6,.5-2.4,.8-.1,0-.2,0-.3,.1-.1,0-.3,0-.4-.1,0-.4,.4-.3,.6-.5,0-.3-.2-.7-.3-1-.1-.3-.2-.7-.3-1-.1-.3-.2-.7-.4-1-.2,0-.3,0-.5,.1-.2,0-.3,0-.4-.3,0,0,.1-.1,.2-.2,1-.4,2-.7,3-1,0,0,.2,.1,.2,.2,.2,.4,.3,.8,.4,1.3l-.3,.2c-.4-.3-.3-.8-.6-1.1-.3,0-1.4,.4-1.7,.6l.4,1c.3,0,.5,0,.8-.2l-.2-.7c.2-.2,.3-.2,.4,0,0,0,0,0,0,.1,.2,.4,.3,.9,.4,1.3,0,0,0,0,0,.1,0,.2,0,.3-.4,.3l-.3-.6-.7,.3c0,.3,.3,1.1,.5,1.4l1.7-.6Z"/>
          <path class="uuid-3a76182a-87e0-4fbf-91e1-ea14b6a293d7" d="M74.3,252.6c.3-.2,.4-.2,.3-.5,0-.1,0-.3-.1-.4,0-.1,0-.2-.1-.4q.2-.2,.4-.2c.2,.3,.4,.7,.4,1.1,0,.4-.2,.7-.5,.8-.3,0-.7,0-.9-.4,0-.2-.1-.4-.2-.5,0-.2-.1-.3-.2-.5-.6-.2-1,.1-1.6,.3,.1,.5,.3,.9,.4,1.3,.3,0,.6-.3,.8,0,0,.2,0,.3-.2,.3-.5,.2-1,.3-1.5,.5-.1,0-.2,0-.3-.1v-.3l.7-.3-1-3-.7,.2v-.4c0,0,0-.1,.2-.2,.7-.2,1.4-.5,2-.7,.5-.2,.9,0,1.2,.3,.3,.4,.3,.8,0,1.2,0,0,0,.1-.1,.2,0,0,0,0,0,.1,.3,.1,.4,.4,.5,.7,0,.1,0,.3,.1,.4,0,.1,.1,.2,.2,.3Zm-2.7-1.1c.5,0,.9-.2,1.3-.4,.4-.2,.4-.5,.3-.9-.1-.3-.4-.4-.8-.3-.3,.1-.6,.2-1,.3,0,0-.1,0-.2,.1l.4,1.1Z"/>
          <path class="uuid-3a76182a-87e0-4fbf-91e1-ea14b6a293d7" d="M84.8,249.3c0,.2,0,.3-.2,.3-.5,.2-.9,.3-1.4,.5-.1,0-.3,0-.4-.1,0-.4,.5-.3,.7-.5-.2-.3-.4-.5-.6-.8l-1.4,.5c0,.3,0,.7,0,1,.3,0,.5-.3,.8,0,0,.2,0,.3,0,.4,0,0-.1,0-.2,0-.4,.1-.8,.3-1.2,.4-.2,0-.3,0-.4-.2,0-.3,.4-.2,.6-.4,0-.2,0-.5,0-.8,0-.9,0-1.7,0-2.6,0-.1,0-.3,0-.4,0-.2,.1-.3,.3-.4,.2,0,.3,0,.4,.1,0,0,.1,.2,.2,.2,.6,.8,1.3,1.6,1.9,2.4,0,0,.1,.2,.2,.2,.3,0,.6-.3,.8,0Zm-3.3-2.4h0c0,.6,0,1.1,0,1.7,.4-.2,.7-.2,1-.4,0,0,0-.1-.1-.2-.3-.4-.6-.7-.9-1.1Z"/>
          <path class="uuid-3a76182a-87e0-4fbf-91e1-ea14b6a293d7" d="M62.6,253.2l-1.8,.6c0,.4,.3,.7,.3,1.2l-.2,.2c0,0-.1,0-.2-.1-.2-.5-.4-.9-.5-1.4,.3-.2,2.2-.9,2.8-1,.2,0,.2,.2,.2,.4,0,.3-.2,.6-.3,.9-.3,.8-.5,1.7-.8,2.5,0,.1,0,.3-.1,.4,.3,0,1.4-.4,1.9-.6,0-.2,0-.4-.1-.6,0-.2-.1-.4-.2-.6,0,0,.1-.1,.2-.2,0,0,0,0,.2,0,.3,.5,.4,1,.6,1.6-.1,0-.2,.1-.3,.2-.8,.3-1.6,.6-2.5,.8-.2,0-.3,0-.4-.1,.2-.7,.4-1.3,.6-2,.2-.7,.4-1.3,.7-2.1Z"/>
          <path class="uuid-3a76182a-87e0-4fbf-91e1-ea14b6a293d7" d="M56.1,255.5l.3,1.1h-.3c-.2,0-.5-.9-.6-1.4,0,0,0,0,.1-.1,.9-.3,1.8-.6,2.7-.9,.2,0,.3,.2,.2,.3,0,0,0,.2,0,.3-.3,1.1-.7,2.1-1,3.2,0,.1,0,.2-.1,.4,.3,0,1.3-.3,1.9-.6,0-.2,0-.4-.1-.6,0-.2-.2-.4-.1-.6h.2c0,0,.1,0,.2,0,.2,.5,.4,.9,.4,1.5-.1,0-.2,0-.2,.1-.8,.3-1.6,.6-2.4,.8-.2,0-.3,0-.5-.1,0-.1,0-.3,.1-.4,.3-1.1,.7-2.1,1-3.2,0-.1,0-.2,.1-.4-.3,0-1.5,.4-1.8,.6Z"/>
          <path class="uuid-3a76182a-87e0-4fbf-91e1-ea14b6a293d7" d="M48.8,260l.4,1.2c.3,0,.6-.3,.8,0v.3c-.6,.2-1.1,.4-1.7,.5-.1,0-.3,0-.4-.1,0-.5,.5-.3,.7-.5,0-.3-.8-2.6-1-3-.2,0-.3,.1-.5,.1-.3,0-.4,0-.3-.4,0,0,0,0,.1,0,.7-.3,1.5-.5,2.2-.8,.6-.2,1.2,.1,1.5,.7,.2,.6,0,1.3-.7,1.5-.3,.1-.5,.2-.8,.3-.1,0-.2,0-.4,.1Zm-.2-.5c.4-.1,.9-.2,1.2-.4,.3-.2,.4-.5,.3-.8-.1-.3-.4-.5-.7-.5-.4,0-.8,.3-1.3,.4,.1,.5,.3,.9,.4,1.3Z"/>
          <path class="uuid-3a76182a-87e0-4fbf-91e1-ea14b6a293d7" d="M77.9,251.3c.3,0,.6-.3,.8,0,0,.3,0,.3-.1,.4-.5,.2-1.1,.4-1.6,.5-.2,0-.3-.1-.3-.3,.1-.3,.4-.2,.7-.4-.3-1-.7-2-1-3-.2,0-.3,.1-.5,.1-.3,0-.4,0-.3-.4l1.7-.6c.2,0,.2,.1,.2,.3-.1,.3-.4,.2-.7,.4,.3,1,.7,2,1,3Z"/>
          <path class="uuid-3a76182a-87e0-4fbf-91e1-ea14b6a293d7" d="M51.9,256.4l1.8-.6c.2,.2,.2,.4,0,.5-.1,0-.3,.1-.5,.2,.3,1,.7,2,1,3,.2,0,.4,0,.5,0,.3,0,.4,0,.3,.4-.6,.2-1.1,.4-1.7,.6,0,0-.1,0-.2,0,0,0,0,0,0-.1,0-.4,.5-.3,.6-.5,0-.3-.8-2.6-1-3-.1,0-.3,.1-.5,.1-.3,0-.4,0-.3-.4Z"/>
          <path class="uuid-3a76182a-87e0-4fbf-91e1-ea14b6a293d7" d="M75.8,247.8c0-.1,0-.3,0-.3,.3-.3,.5-.7,.9-.9,.3,.2,.3,.3,.1,.5-.2,.2-.5,.5-.7,.7,0,0-.2,.1-.3,0Z"/>
        </g>
        <g>
          <path class="uuid-3a76182a-87e0-4fbf-91e1-ea14b6a293d7" d="M328.9,335.1c-.4,.4-.7,.8-1,1.3,0,0,0,.1-.1,.2-.3,.4-.5,.8-.6,1.3-.1,.4-.2,.9-.2,1.3,0,.2,0,.5,.1,.7,0,0,0,.2,0,.2,.2,.3,.5,.7,.8,.9,0,0,.1,.1,.2,.2,0,0,.1,0,.2,.1,.5,.2,1.1,.3,1.6,.2,.3,0,.7-.2,1-.4,0,0,.2-.1,.3-.2,.3-.1,.6-.3,.8-.6,.2-.3,.5-.5,.7-.7,.3-.2,.6-.4,.9-.6,.4-.2,.7-.3,1.1-.4,.4,0,.9-.2,1.3,0,.5,0,1,.2,1.5,.4,.3,.1,.6,.3,.9,.4,.2,0,.3,.2,.5,.3,.4,.3,.8,.7,1.2,1,.3,.2,.5,.5,.7,.8,.1,.2,.3,.4,.4,.6,0,0,.1,.2,.2,.3,.2,.3,.3,.6,.4,.9,.2,.3,.3,.6,.3,1,.2,.8,.1,1.7,0,2.5-.2,.7-.5,1.4-.9,2.1-.3,.5-.7,.9-1.2,1.2,0,0-.2,.1-.3,.2-.9,.6-1.8,.7-2.9,.6-.6,0-1.1-.2-1.7-.5-.3-.2-.7-.3-1-.6-.1-.1-.3-.2-.4-.3-.1,0-.3-.2-.4-.3-.7-.5-1.3-1.1-1.7-1.9,0-.1-.1-.2-.2-.3-.3-.4-.4-.8-.6-1.2-.1-.4-.2-.7-.3-1.1,0-.5,0-1,0-1.5,0,0,0-.1,0-.2,0,0,0-.1-.2-.1,0,0,0,0,0,0-.5,.2-1.1,.2-1.7,.1-.5,0-1-.3-1.5-.5-.4-.2-.9-.5-1.3-.7-.1,0-.2-.2-.3-.2-.4-.4-.7-.7-1.1-1.1-.2-.2-.3-.5-.5-.7,0-.1-.2-.3-.2-.4,0-.2-.2-.4-.3-.6-.2-.8-.3-1.7-.1-2.5,.1-.6,.4-1.2,.8-1.7,.1-.1,.2-.3,.3-.4,.3-.4,.7-.8,1.1-1.1,.5-.3,1-.6,1.6-.8,.4,0,.7-.1,1.1-.2,.6,0,1.2,0,1.7,.2,.6,.1,1.1,.3,1.6,.6,0,0,.1,0,.2,.1,.3,0,.5,.3,.7,.4,.1,.1,.3,.2,.4,.3,.3,.2,.6,.5,.8,.8,.2,.2,.3,.4,.5,.6,.2,.3,.4,.7,.6,1,0,.1,0,.3,0,.5,0,.1,0,.2-.2,.3-.2,.2-.4,.3-.6,.5-.4,.3-.7,.6-1.1,.9-.1,0-.2,.2-.3,.3-.2,.1-.3,.2-.6,.1-.3,0-.5-.4-.3-.6,0-.2,.2-.4,.3-.6,.2-.3,.4-.6,.5-.9,.1-.5,.1-.9-.1-1.4-.1-.2-.3-.4-.5-.6,0,0-.1,0-.2-.2-.3-.3-.7-.4-1-.4-.4,0-.8,.1-1.1,.3-.4,.2-.7,.5-1,.8Zm8.4,12.8c.2-.2,.4-.4,.5-.6,.2-.3,.5-.7,.6-1,.2-.4,.4-.8,.5-1.2,.3-.7,.4-1.4,.4-2.2,0-.7-.3-1.3-.9-1.7-.5-.3-.9-.3-1.4-.1-.5,.2-1,.5-1.3,.9-.5,.6-.9,1.3-1.3,2,0,0,0,.2-.1,.3-.2,.5-.4,1-.4,1.6,0,.2,0,.5,0,.7,0,.8,.5,1.3,1.1,1.7,0,0,.1,0,.2,0,.4,.1,.8,.2,1.2,0,0,0,0,0,0,0,.3-.1,.6-.3,.8-.5Z"/>
          <path class="uuid-3a76182a-87e0-4fbf-91e1-ea14b6a293d7" d="M336.6,332.2c0,0-.2,0-.2,0-.4,0-.9,0-1.3,0-.5,0-1-.2-1.4-.4-.4-.2-.7-.4-1.1-.6-.2-.1-.3-.2-.5-.4-.5-.4-.9-.8-1.2-1.3,0,0,0-.1-.1-.2-.3-.3-.5-.7-.7-1.1,0-.2-.1-.3-.2-.5-.3-.7-.3-1.4-.3-2.2,0-.4,0-.8,.2-1.2,.2-.5,.4-1,.8-1.5,.4-.5,.8-.9,1.3-1.2,.2-.1,.4-.2,.6-.3,.2-.1,.4-.2,.7-.3,.5-.2,1.1-.2,1.7-.2,.5,0,1.1,0,1.6,.2,.3,.1,.6,.2,.9,.4,.3,.2,.5,.3,.8,.5,.5,.4,1,.9,1.4,1.4,.2,.3,.4,.6,.5,1,.1,.3,.2,.5,.3,.8,.2,.9,.2,1.8-.1,2.7,0,0,0,0,0,0,0,0,0,.1,0,.1,0,0,.2,0,.2,0,.7-.2,1.3-.2,2-.1,.5,0,.9,.2,1.3,.3,.2,.1,.5,.2,.7,.3,.4,.2,.8,.5,1.1,.8,.3,.2,.5,.5,.7,.8,.1,.2,.3,.4,.4,.6,.2,.4,.4,.8,.5,1.2,.1,.4,.2,.8,.2,1.3,0,.9-.2,1.7-.5,2.6-.2,.4-.3,.5-.7,.3-.3-.2-.7-.3-1-.5,0,0,0,0,0,0-.6-.3-1.2-.5-1.8-.8-.3-.1-.6-.3-.8-.4,0,0-.1,0-.2,0-.4-.1-.7-.3-1-.5-.2-.1-.4-.2-.7-.3-.3,0-.3,0-.4,.2-.3,.8-.3,1.5-.1,2.3,0,0,0,.1,0,.2,0,.2,.2,.4,.3,.5,.2,.3,.4,.6,.7,.8,.4,.2,.8,.5,1.2,.6,.4,.1,.8,.2,1.1,.2,.2,0,.3,0,.5,0,.3,0,.4,.2,.4,.5,0,0,0,0,0,0,0,.2,0,.3-.3,.4-.3,.1-.6,.2-.8,.2-.7,0-1.5,0-2.2-.3-.3-.1-.6-.2-.8-.4-.2-.1-.5-.3-.7-.5,0,0-.2-.1-.2-.2-.4-.3-.8-.6-1.1-1-.2-.2-.3-.4-.5-.7,0,0-.1-.2-.2-.2-.1-.1-.2-.3-.3-.5-.2-.4-.4-.8-.5-1.3,0-.4-.2-.7-.2-1.1,0-.2,0-.5,0-.7,0,0,0-.1,0-.2Zm2.2-3.6s0,0-.1,0c0,0-.2,0-.3-.1-.4-.2-.7-.4-1.1-.5-.3-.2-.7-.3-1-.5-.1,0-.2-.1-.4-.2,0,0-.2,0-.2,0-.2,0-.3-.1-.5-.2-.1,0-.3-.1-.4-.2-.4-.2-.8-.4-1.2-.6-.2,0-.3,0-.3,.1,0,.1,0,.3-.1,.4-.2,.7-.2,1.4,0,2.1,0,0,0,0,0,.1,0,.2,.2,.4,.3,.6,.1,.2,.2,.4,.4,.6,.4,.3,.8,.5,1.3,.7,.3,.1,.6,.2,1,.2,.2,0,.3,0,.5,0,.3,0,.3,0,.4-.3,0-.1,.1-.2,.2-.4,.3-.5,.7-1,1.2-1.4,0,0,.2-.2,.3-.2,0,0,0-.1,0-.2Zm-3.8-5c-.2,.2-.4,.5-.6,.9,0,0,0,.1,0,.2,0,.1,0,.2,0,.3,.1,0,.2,.2,.3,.2,.3,.1,.5,.3,.8,.4,.4,.2,.8,.4,1.3,.6,0,0,.1,0,.2,0,.2,0,.3,0,.5-.2,0,0,0,0,0-.1,0-.1,.1-.3,.2-.4,.2-.5,.3-1.1,.1-1.6,0-.1,0-.2-.1-.3-.2-.2-.4-.4-.6-.6,0,0,0,0-.1,0-.3,0-.6,0-.9,0-.3,.2-.7,.4-.9,.6Zm7.1,7.1s0,0-.1,.1c-.2,.2-.4,.5-.6,.7-.2,.2-.1,.4,.1,.5,.1,0,.3,.2,.5,.2,.1,0,.2,0,.3,.1,.3,.2,.6,.3,1,.5,.2,0,.3,.2,.5,.2,0,0,.1,0,.2,0,.2,0,.4,0,.5-.2,0-.2,.2-.4,.3-.6,.2-.5,.3-1,.1-1.5-.1-.4-.4-.7-.8-.9,0,0,0,0-.1,0-.4,0-.7,0-1.1,.1-.3,.2-.6,.3-.8,.6Z"/>
          <path class="uuid-3a76182a-87e0-4fbf-91e1-ea14b6a293d7" d="M317.3,315.6c.4,.4,.8,.8,1.3,1.2,.2,.2,.5,.5,.7,.8,0,0,0,0,0,0,.3,.3,.5,.7,.6,1.1,.3,.7,.3,1.4,0,2-.2,.4-.4,.7-.7,.9-.4,.3-.8,.4-1.2,.5-.3,0-.7,0-1,0-.5,0-1-.3-1.5-.5-.4-.2-.8-.4-1.1-.6,0,0-.1,0-.2-.1-.4-.3-.7-.6-1.1-.8-.3-.2-.6-.5-.9-.7-.4-.4-.9-.9-1.3-1.3-.2-.2-.4-.5-.6-.8-.2-.3-.4-.5-.5-.8,0-.1-.1-.2-.2-.3-.2-.3-.4-.7-.5-1,0-.2-.1-.5-.2-.7,0-.2,0-.4,0-.6,0,0,0-.1,0-.1,.2-.4,.5-.7,.9-.9,.2,0,.3,0,.5,0,.4,0,.7,.1,1.1,.2,0,0,0,0,.1,0,.2,0,.4,0,.3-.3,0-.2,0-.5,0-.7,0-.3,.2-.5,.4-.7,.3-.2,.7-.4,1.1-.5,.5-.1,1.1-.1,1.7-.1,.2,0,.5,0,.7,0,0,0,0,0,.1,0,.1,0,.2,0,.2-.2,0-.3-.2-.6-.2-.9-.1-.7-.2-1.4,0-2.1,.1-.4,.3-.7,.6-.9,.3-.2,.5-.4,.8-.5,0,0,.1,0,.2,0,.6-.2,1.3-.2,1.9-.1,.3,0,.6,.1,.9,.3,.3,.2,.7,.3,1,.5,.2,.1,.3,.2,.5,.3,.2,.1,.3,.2,.5,.3,.4,.3,.8,.7,1.1,1.1,0,0,0,0,.1,.1,.2,.2,.3,.2,.6,.1,.2,0,.4-.1,.6-.2,.6-.2,1.2-.3,1.8,0,0,0,.1,0,.2,0,.3,0,.5,.2,.7,.4,.1,.2,.3,.3,.5,.5,.1,.1,.2,.3,.3,.5,0,0,0,.2,0,.3,.1,.4,0,.7-.1,1-.2,.3-.5,.4-.9,.4-.5,0-.9-.4-1.1-.9-.1-.3-.3-.5-.5-.8-.1-.2-.4-.3-.6-.3-.2,0-.3,.1-.3,.3,0,.1,0,.3,.2,.4,.2,.3,.3,.6,.5,.9,0,.2,.2,.4,.2,.7,.2,.7,.2,1.5,0,2.2-.2,.5-.5,1-1.1,1.4-.8,.5-1.7,.6-2.6,.4-.5-.1-.9-.3-1.4-.5,0,0,0,0-.1,0-.3-.2-.5-.3-.8-.5-.2-.1-.4-.3-.6-.4-.6-.5-1.2-1.1-1.7-1.7,0,0-.2-.2-.3-.3-.1-.1-.3-.2-.4-.2-.4,0-.8,0-1.1,.2-.2,0-.3,.3-.3,.5,0,.2,0,.3,.1,.5,.2,.3,.3,.6,.6,.8,.5,.4,.9,.9,1.4,1.3,0,0,.1,0,.2,.1h0Zm2-6.1h0c0,0-.1,.1-.2,.2-.3,.3-.5,.6-.6,1-.1,.4-.1,.9,0,1.3,.1,.2,.2,.4,.4,.5,.3,.3,.7,.5,1.1,.5,.6,0,1-.2,1.5-.5,.4-.4,.8-.8,1.1-1.3,.1-.2,.2-.5,.2-.8,0-.2,0-.3,0-.5,0-.3-.3-.6-.5-.8-.2-.2-.4-.3-.6-.4-.4-.2-.8-.2-1.2,0-.4,.1-.7,.3-1,.6,0,0-.1,.1-.2,.2Zm-6.4,8.2h0c.1,.1,.2,.2,.4,.4,.4,.4,.8,.8,1.3,1,0,0,0,0,0,0,.2,.2,.5,.3,.8,.3,.4,0,.7,0,.9-.3,.2-.2,.2-.5,.1-.7,0-.2-.2-.4-.3-.5-.2-.2-.3-.4-.5-.5-.9-.9-1.8-1.8-2.6-2.7,0-.1-.2-.2-.3-.2-.3,0-.6,0-.9,0-.2,0-.3,.2-.4,.3,0,.2-.2,.4-.1,.7,0,.3,.1,.5,.3,.7,0,0,0,0,0,.1,.1,.2,.2,.4,.4,.6,.3,.3,.6,.6,.8,.9Z"/>
          <path class="uuid-3a76182a-87e0-4fbf-91e1-ea14b6a293d7" d="M350.6,348.8c-.6-.6-1.2-1.2-1.8-1.8-.1-.1-.2-.2-.3-.4,0-.2,0-.4,0-.6,0,0,.2-.1,.3-.2,.1,0,.3,0,.4,0,.1,0,.2,0,.3,.1,.2,0,.4,0,.5-.1,0,0,.1-.1,.2-.2,.3-.3,.5-.6,.7-1,0-.2,.2-.3,.3-.4,.3-.4,.5-.8,.8-1.2,.2-.3,.4-.6,.6-1,.2-.3,.3-.6,.3-1,0-.2,0-.4-.2-.5-.1-.1-.2-.3-.4-.4-.2-.2-.5-.3-.8-.3-.3,0-.7,0-.9,.3-.2,.2-.5,.3-.7,.5-.8,.8-1.5,1.5-2.3,2.3-.1,.1-.2,.2-.3,.4,0,.1,0,.3,0,.4,0,.2,0,.3,.2,.5,0,.1,.1,.3,.1,.4,0,.3-.4,.5-.7,.4-.1,0-.2-.2-.3-.3-.3-.3-.5-.5-.8-.8-.6-.6-1.3-1.3-1.9-1.9-.3-.3-.5-.5-.8-.8-.1-.1-.2-.2-.3-.4,0-.2,0-.4,.2-.6,.1-.1,.3-.2,.5,0,.2,0,.4,.2,.6,.2,.3,0,.5,0,.8-.2,0,0,.2-.1,.2-.2,1-1,2-2,3-3,.1-.1,.2-.3,.3-.4,.1-.2,.1-.4,0-.7,0-.2-.1-.4-.2-.5,0-.2,0-.3,.2-.5,.2-.1,.4-.1,.6,0,.3,.2,.7,.3,1.1,.5,.5,.3,1,.5,1.5,.7,.2,0,.4,.2,.7,.3,.2,0,.4,.2,.6,.3,0,0,.2,0,.3,.2,.1,0,.2,.2,0,.4,0,0,0,.1-.1,.2-.3,.3-.6,.6-.9,.9,0,0,0,0-.1,.1,0,0,0,.2,0,.2,0,0,.2,0,.2,0,.2,0,.4,0,.6,0,.4,0,.7,0,1,0,.3,0,.5,.2,.8,.3,.1,0,.3,.2,.4,.2,.2,.1,.4,.3,.5,.4,.2,.2,.4,.4,.5,.7,.2,.3,.3,.5,.3,.8,0,.2,0,.4,0,.6,0,.3-.1,.6-.2,1-.1,.3-.3,.6-.4,.9,0,0,0,.2-.1,.2-.2,.3-.4,.6-.5,.9-.2,.3-.4,.6-.6,.9,0,.1-.2,.3-.3,.4-.3,.5-.7,1-.9,1.5,0,0,0,0,0,.1-.2,.2-.4,.5-.5,.8-.2,.4-.2,.8,0,1.2,0,0,0,.1,.1,.2,.2,.4,0,.8-.5,.8-.2,0-.3,0-.4-.2-.2-.1-.3-.3-.4-.4-.5-.5-1-1-1.5-1.5h0Z"/>
          <path class="uuid-3a76182a-87e0-4fbf-91e1-ea14b6a293d7" d="M321.4,328.4c0,0,0,.2,0,.3,0,.6-.1,1.3-.2,1.9,0,.1,0,.2,0,.3,0,0,0,.2,.1,.3,0,0,.2,0,.2,0,.6,0,1.1-.2,1.6-.3,.3,0,.6-.2,.9-.3,.5-.2,.9-.5,1.1-1.1,.1-.3,.3-.6,.6-.8,.4-.3,1-.1,1.2,.3,.1,.3,.2,.7,0,1,0,0,0,.2,0,.2,0,.1-.1,.2-.2,.3-.3,.3-.5,.5-.8,.7,0,0-.2,0-.2,.1-.2,.2-.5,.3-.8,.4-1,.4-1.9,.6-3,.7-.1,0-.2,0-.3,0-.1,0-.2,.1-.2,.2,0,0,0,.2,0,.3,0,.4,0,.7,0,1.1,0,.3,0,.6,.1,.9,0,.2,.1,.4,.2,.6,.1,.2,0,.3,0,.4-.2,.2-.3,.2-.5,0,0,0-.1-.1-.2-.2-.8-.8-1.6-1.6-2.4-2.4,0,0,0,0,0,0-.2-.1-.2-.3-.2-.5,0-.1,0-.2,0-.4,0-.2,0-.3-.3-.4-.1,0-.2,0-.3,0-.4-.1-.7-.2-1-.4,0,0-.2-.1-.3-.2-.3-.1-.5-.3-.7-.5-.3-.3-.6-.5-.8-.9-.2-.3-.4-.6-.6-1-.2-.4-.3-.8-.3-1.2,0-.9,.4-1.6,1-2.2,.3-.2,.6-.4,1-.5,.5-.2,1,0,1.6,0,.2,0,.4,0,.6,.1,0,0,.2,0,.3,0,.3,0,.4,0,.4-.3,0-.4,.2-.8,.4-1.1,0-.1,.1-.2,.2-.3,.2-.3,.5-.6,.8-.7,.2-.1,.5-.2,.7-.3,.5-.2,1.1-.1,1.6,0,.3,.1,.7,.3,1,.4,.1,0,.2,.1,.3,.2,.4,.3,.8,.6,1.1,1,0,.1,.2,.2,.3,.4,0,0,.1,.2,.2,.2,.2,.5,.4,.9,.4,1.5,0,.2,0,.3-.1,.5,0,0,0,.1,0,.2-.1,.4-.4,.6-.6,.9-.2,.2-.4,.3-.6,.4-.5,.2-1,.2-1.5,.2-.3,0-.7-.1-1-.2,0,0-.1,0-.2,0Zm-4.3-.7c-.3,.2-.4,.5-.5,.8,0,.3,0,.5,0,.8,0,.4,.2,.8,.6,1.1,0,0,.2,.1,.3,.2,.1,0,.3,.2,.5,.2,.1,0,.2,0,.2-.2,0,0,0,0,0,0,0-.4,0-.7,0-1,0-.6,.1-1.2,.2-1.7,0,0,0-.1,0-.2,0-.1,0-.2-.2-.2-.4,0-.8,.1-1,.4Zm4.4-1.1c0,0,.1,0,.2,0,.5,.1,.9,0,1.4-.2,.3-.2,.4-.4,.5-.7,0-.3,0-.5,0-.8,0,0,0-.1-.1-.1-.4-.2-.7-.2-1,0-.2,.2-.4,.4-.6,.6-.2,.3-.3,.6-.3,.9,0,0,0,.1,0,.2Z"/>
          <path class="uuid-3a76182a-87e0-4fbf-91e1-ea14b6a293d7" d="M323.5,321.8c-.6-.6-1.2-1.2-1.8-1.8-.1-.1-.2-.2-.3-.4-.1-.2,0-.5,.2-.7,.2-.1,.4-.1,.5,0,.2,.1,.4,.2,.6,.2,.3,0,.6,0,.8-.2,.9-.9,1.8-1.8,2.7-2.7,.2-.2,.4-.5,.6-.7,.2-.2,.3-.5,.2-.7,0-.2,0-.3-.2-.5,0-.2,0-.4,.2-.5,.1-.1,.4-.2,.6,0,.4,.2,.8,.4,1.3,.6,.2,.1,.5,.2,.7,.4,.2,0,.4,.2,.6,.3,.3,.1,.6,.3,.8,.4,.2,0,.4,.2,.5,.2,.1,0,.2,0,.3,.2,.1,0,.1,.2,0,.4,0,0,0,.1-.2,.2-.3,.2-.5,.5-.8,.7,0,0,0,.1-.1,.2,0,0,0,.1,0,.1,0,0,0,0,.1,0,0,0,.2,0,.3,0,.6-.2,1.2-.1,1.8,0,.4,.1,.7,.3,1,.6,0,0,.2,.2,.3,.3,.2,.2,.3,.5,.3,.7,0,.2,0,.3-.2,.3-.2,.1-.5,.2-.7,.3,0,0-.1,0-.2,0-.3,.2-.6,.3-.9,.5,0,0-.2,0-.3,.1-.2,0-.3,.1-.4,.2-.1,.1-.2,.1-.4,.1-.4,0-.6-.4-.4-.7,0-.2,.2-.3,.2-.5,0-.4-.1-.8-.5-.9-.2-.1-.5-.2-.8-.2,0,0-.1,0-.2,0-.4,.2-.7,.3-1,.6-.4,.4-.8,.8-1.2,1.2-.4,.5-.9,.9-1.3,1.4,0,0-.1,.1-.2,.2-.2,.2-.2,.5,0,.8,0,.2,.2,.4,.3,.6,0,.2,0,.4,0,.6-.2,.3-.4,.3-.6,.2-.2,0-.3-.2-.4-.3-.6-.6-1.2-1.2-1.8-1.8Z"/>
        </g>
        <g>
          <path class="uuid-3a76182a-87e0-4fbf-91e1-ea14b6a293d7" d="M106.3,110.5c-.4,.4-.7,.8-1,1.3,0,0,0,.1-.1,.2-.3,.4-.5,.8-.6,1.3-.1,.4-.2,.9-.2,1.3,0,.2,0,.5,.1,.7,0,0,0,.2,0,.2,.2,.3,.5,.7,.8,.9,0,0,.1,.1,.2,.2,0,0,.1,0,.2,.1,.5,.2,1.1,.3,1.6,.2,.3,0,.7-.2,1-.4,0,0,.2-.1,.3-.2,.3-.1,.6-.3,.8-.6,.2-.3,.5-.5,.7-.7,.3-.2,.6-.4,.9-.6,.4-.2,.7-.3,1.1-.4,.4,0,.9-.2,1.3,0,.5,0,1,.2,1.5,.4,.3,.1,.6,.3,.9,.4,.2,0,.3,.2,.5,.3,.4,.3,.8,.7,1.2,1,.3,.2,.5,.5,.7,.8,.1,.2,.3,.4,.4,.6,0,0,.1,.2,.2,.3,.2,.3,.3,.6,.4,.9,.2,.3,.3,.6,.3,1,.2,.8,.1,1.7,0,2.5-.2,.7-.5,1.4-.9,2.1-.3,.5-.7,.9-1.2,1.2,0,0-.2,.1-.3,.2-.9,.6-1.8,.7-2.9,.6-.6,0-1.1-.2-1.7-.5-.3-.2-.7-.3-1-.6-.1-.1-.3-.2-.4-.3-.1,0-.3-.2-.4-.3-.7-.5-1.3-1.1-1.7-1.9,0-.1-.1-.2-.2-.3-.3-.4-.4-.8-.6-1.2-.1-.4-.2-.7-.3-1.1,0-.5,0-1,0-1.5,0,0,0-.1,0-.2,0,0,0-.1-.2-.1,0,0,0,0,0,0-.5,.2-1.1,.2-1.7,.1-.5,0-1-.3-1.5-.5-.4-.2-.9-.5-1.3-.7-.1,0-.2-.2-.3-.2-.4-.4-.7-.7-1.1-1.1-.2-.2-.3-.5-.5-.7,0-.1-.2-.3-.2-.4,0-.2-.2-.4-.3-.6-.2-.8-.3-1.7-.1-2.5,.1-.6,.4-1.2,.8-1.7,.1-.1,.2-.3,.3-.4,.3-.4,.7-.8,1.1-1.1,.5-.3,1-.6,1.6-.8,.4,0,.7-.1,1.1-.2,.6,0,1.2,0,1.7,.2,.6,.1,1.1,.3,1.6,.6,0,0,.1,0,.2,.1,.3,0,.5,.3,.7,.4,.1,.1,.3,.2,.4,.3,.3,.2,.6,.5,.8,.8,.2,.2,.3,.4,.5,.6,.2,.3,.4,.7,.6,1,0,.1,0,.3,0,.5,0,.1,0,.2-.2,.3-.2,.2-.4,.3-.6,.5-.4,.3-.7,.6-1.1,.9-.1,0-.2,.2-.3,.3-.2,.1-.3,.2-.6,.1-.3,0-.5-.4-.3-.6,0-.2,.2-.4,.3-.6,.2-.3,.4-.6,.5-.9,.1-.5,.1-.9-.1-1.4-.1-.2-.3-.4-.5-.6,0,0-.1,0-.2-.2-.3-.3-.7-.4-1-.4-.4,0-.8,.1-1.1,.3-.4,.2-.7,.5-1,.8Zm8.4,12.8c.2-.2,.4-.4,.5-.6,.2-.3,.5-.7,.6-1,.2-.4,.4-.8,.5-1.2,.3-.7,.4-1.4,.4-2.2,0-.7-.3-1.3-.9-1.7-.5-.3-.9-.3-1.4-.1-.5,.2-1,.5-1.3,.9-.5,.6-.9,1.3-1.3,2,0,0,0,.2-.1,.3-.2,.5-.4,1-.4,1.6,0,.2,0,.5,0,.7,0,.8,.5,1.3,1.1,1.7,0,0,.1,0,.2,0,.4,.1,.8,.2,1.2,0,0,0,0,0,0,0,.3-.1,.6-.3,.8-.5Z"/>
          <path class="uuid-3a76182a-87e0-4fbf-91e1-ea14b6a293d7" d="M113.9,107.6c0,0-.2,0-.2,0-.4,0-.9,0-1.3,0-.5,0-1-.2-1.4-.4-.4-.2-.7-.4-1.1-.6-.2-.1-.3-.2-.5-.4-.5-.4-.9-.8-1.2-1.3,0,0,0-.1-.1-.2-.3-.3-.5-.7-.7-1.1,0-.2-.1-.3-.2-.5-.3-.7-.3-1.4-.3-2.2,0-.4,0-.8,.2-1.2,.2-.5,.4-1,.8-1.5,.4-.5,.8-.9,1.3-1.2,.2-.1,.4-.2,.6-.3,.2-.1,.4-.2,.7-.3,.5-.2,1.1-.2,1.7-.2,.5,0,1.1,0,1.6,.2,.3,.1,.6,.2,.9,.4,.3,.2,.5,.3,.8,.5,.5,.4,1,.9,1.4,1.4,.2,.3,.4,.6,.5,1,.1,.3,.2,.5,.3,.8,.2,.9,.2,1.8-.1,2.7,0,0,0,0,0,0,0,0,0,.1,0,.1,0,0,.2,0,.2,0,.7-.2,1.3-.2,2-.1,.5,0,.9,.2,1.3,.3,.2,.1,.5,.2,.7,.3,.4,.2,.8,.5,1.1,.8,.3,.2,.5,.5,.7,.8,.1,.2,.3,.4,.4,.6,.2,.4,.4,.8,.5,1.2,.1,.4,.2,.8,.2,1.3,0,.9-.2,1.7-.5,2.6-.2,.4-.3,.5-.7,.3-.3-.2-.7-.3-1-.5,0,0,0,0,0,0-.6-.3-1.2-.5-1.8-.8-.3-.1-.6-.3-.8-.4,0,0-.1,0-.2,0-.4-.1-.7-.3-1-.5-.2-.1-.4-.2-.7-.3-.3,0-.3,0-.4,.2-.3,.8-.3,1.5-.1,2.3,0,0,0,.1,0,.2,0,.2,.2,.4,.3,.5,.2,.3,.4,.6,.7,.8,.4,.2,.8,.5,1.2,.6,.4,.1,.8,.2,1.1,.2,.2,0,.3,0,.5,0,.3,0,.4,.2,.4,.5,0,0,0,0,0,0,0,.2,0,.3-.3,.4-.3,.1-.6,.2-.8,.2-.7,0-1.5,0-2.2-.3-.3-.1-.6-.2-.8-.4-.2-.1-.5-.3-.7-.5,0,0-.2-.1-.2-.2-.4-.3-.8-.6-1.1-1-.2-.2-.3-.4-.5-.7,0,0-.1-.2-.2-.2-.1-.1-.2-.3-.3-.5-.2-.4-.4-.8-.5-1.3,0-.4-.2-.7-.2-1.1,0-.2,0-.5,0-.7,0,0,0-.1,0-.2Zm2.2-3.6s0,0-.1,0c0,0-.2,0-.3-.1-.4-.2-.7-.4-1.1-.5-.3-.2-.7-.3-1-.5-.1,0-.2-.1-.4-.2,0,0-.2,0-.2,0-.2,0-.3-.1-.5-.2-.1,0-.3-.1-.4-.2-.4-.2-.8-.4-1.2-.6-.2,0-.3,0-.3,.1,0,.1,0,.3-.1,.4-.2,.7-.2,1.4,0,2.1,0,0,0,0,0,.1,0,.2,.2,.4,.3,.6,.1,.2,.2,.4,.4,.6,.4,.3,.8,.5,1.3,.7,.3,.1,.6,.2,1,.2,.2,0,.3,0,.5,0,.3,0,.3,0,.4-.3,0-.1,.1-.2,.2-.4,.3-.5,.7-1,1.2-1.4,0,0,.2-.2,.3-.2,0,0,0-.1,0-.2Zm-3.8-5c-.2,.2-.4,.5-.6,.9,0,0,0,.1,0,.2,0,.1,0,.2,0,.3,.1,0,.2,.2,.3,.2,.3,.1,.5,.3,.8,.4,.4,.2,.8,.4,1.3,.6,0,0,.1,0,.2,0,.2,0,.3,0,.5-.2,0,0,0,0,0-.1,0-.1,.1-.3,.2-.4,.2-.5,.3-1.1,.1-1.6,0-.1,0-.2-.1-.3-.2-.2-.4-.4-.6-.6,0,0,0,0-.1,0-.3,0-.6,0-.9,0-.3,.2-.7,.4-.9,.6Zm7.1,7.1s0,0-.1,.1c-.2,.2-.4,.5-.6,.7-.2,.2-.1,.4,.1,.5,.1,0,.3,.2,.5,.2,.1,0,.2,0,.3,.1,.3,.2,.6,.3,1,.5,.2,0,.3,.2,.5,.2,0,0,.1,0,.2,0,.2,0,.4,0,.5-.2,0-.2,.2-.4,.3-.6,.2-.5,.3-1,.1-1.5-.1-.4-.4-.7-.8-.9,0,0,0,0-.1,0-.4,0-.7,0-1.1,.1-.3,.2-.6,.3-.8,.6Z"/>
          <path class="uuid-3a76182a-87e0-4fbf-91e1-ea14b6a293d7" d="M94.6,91.1c.4,.4,.8,.8,1.3,1.2,.2,.2,.5,.5,.7,.8,0,0,0,0,0,0,.3,.3,.5,.7,.6,1.1,.3,.7,.3,1.4,0,2-.2,.4-.4,.7-.7,.9-.4,.3-.8,.4-1.2,.5-.3,0-.7,0-1,0-.5,0-1-.3-1.5-.5-.4-.2-.8-.4-1.1-.6,0,0-.1,0-.2-.1-.4-.3-.7-.6-1.1-.8-.3-.2-.6-.5-.9-.7-.4-.4-.9-.9-1.3-1.3-.2-.2-.4-.5-.6-.8-.2-.3-.4-.5-.5-.8,0-.1-.1-.2-.2-.3-.2-.3-.4-.7-.5-1,0-.2-.1-.5-.2-.7,0-.2,0-.4,0-.6,0,0,0-.1,0-.1,.2-.4,.5-.7,.9-.9,.2,0,.3,0,.5,0,.4,0,.7,.1,1.1,.2,0,0,0,0,.1,0,.2,0,.4,0,.3-.3,0-.2,0-.5,0-.7,0-.3,.2-.5,.4-.7,.3-.2,.7-.4,1.1-.5,.5-.1,1.1-.1,1.7-.1,.2,0,.5,0,.7,0,0,0,0,0,.1,0,.1,0,.2,0,.2-.2,0-.3-.2-.6-.2-.9-.1-.7-.2-1.4,0-2.1,.1-.4,.3-.7,.6-.9,.3-.2,.5-.4,.8-.5,0,0,.1,0,.2,0,.6-.2,1.3-.2,1.9-.1,.3,0,.6,.1,.9,.3,.3,.2,.7,.3,1,.5,.2,.1,.3,.2,.5,.3,.2,.1,.3,.2,.5,.3,.4,.3,.8,.7,1.1,1.1,0,0,0,0,.1,.1,.2,.2,.3,.2,.6,.1,.2,0,.4-.1,.6-.2,.6-.2,1.2-.3,1.8,0,0,0,.1,0,.2,0,.3,0,.5,.2,.7,.4,.1,.2,.3,.3,.5,.5,.1,.1,.2,.3,.3,.5,0,0,0,.2,0,.3,.1,.4,0,.7-.1,1-.2,.3-.5,.4-.9,.4-.5,0-.9-.4-1.1-.9-.1-.3-.3-.5-.5-.8-.1-.2-.4-.3-.6-.3-.2,0-.3,.1-.3,.3,0,.1,0,.3,.2,.4,.2,.3,.3,.6,.5,.9,0,.2,.2,.4,.2,.7,.2,.7,.2,1.5,0,2.2-.2,.5-.5,1-1.1,1.4-.8,.5-1.7,.6-2.6,.4-.5-.1-.9-.3-1.4-.5,0,0,0,0-.1,0-.3-.2-.5-.3-.8-.5-.2-.1-.4-.3-.6-.4-.6-.5-1.2-1.1-1.7-1.7,0,0-.2-.2-.3-.3-.1-.1-.3-.2-.4-.2-.4,0-.8,0-1.1,.2-.2,0-.3,.3-.3,.5,0,.2,0,.3,.1,.5,.2,.3,.3,.6,.6,.8,.5,.4,.9,.9,1.4,1.3,0,0,.1,0,.2,.1h0Zm2-6.1h0c0,0-.1,.1-.2,.2-.3,.3-.5,.6-.6,1-.1,.4-.1,.9,0,1.3,.1,.2,.2,.4,.4,.5,.3,.3,.7,.5,1.1,.5,.6,0,1-.2,1.5-.5,.4-.4,.8-.8,1.1-1.3,.1-.2,.2-.5,.2-.8,0-.2,0-.3,0-.5,0-.3-.3-.6-.5-.8-.2-.2-.4-.3-.6-.4-.4-.2-.8-.2-1.2,0-.4,.1-.7,.3-1,.6,0,0-.1,.1-.2,.2Zm-6.4,8.2h0c.1,.1,.2,.2,.4,.4,.4,.4,.8,.8,1.3,1,0,0,0,0,0,0,.2,.2,.5,.3,.8,.3,.4,0,.7,0,.9-.3,.2-.2,.2-.5,.1-.7,0-.2-.2-.4-.3-.5-.2-.2-.3-.4-.5-.5-.9-.9-1.8-1.8-2.6-2.7,0-.1-.2-.2-.3-.2-.3,0-.6,0-.9,0-.2,0-.3,.2-.4,.3,0,.2-.2,.4-.1,.7,0,.3,.1,.5,.3,.7,0,0,0,0,0,.1,.1,.2,.2,.4,.4,.6,.3,.3,.6,.6,.8,.9Z"/>
          <path class="uuid-3a76182a-87e0-4fbf-91e1-ea14b6a293d7" d="M127.9,124.3c-.6-.6-1.2-1.2-1.8-1.8-.1-.1-.2-.2-.3-.4,0-.2,0-.4,0-.6,0,0,.2-.1,.3-.2,.1,0,.3,0,.4,0,.1,0,.2,0,.3,.1,.2,0,.4,0,.5-.1,0,0,.1-.1,.2-.2,.3-.3,.5-.6,.7-1,0-.2,.2-.3,.3-.4,.3-.4,.5-.8,.8-1.2,.2-.3,.4-.6,.6-1,.2-.3,.3-.6,.3-1,0-.2,0-.4-.2-.5-.1-.1-.2-.3-.4-.4-.2-.2-.5-.3-.8-.3-.3,0-.7,0-.9,.3-.2,.2-.5,.3-.7,.5-.8,.8-1.5,1.5-2.3,2.3-.1,.1-.2,.2-.3,.4,0,.1,0,.3,0,.4,0,.2,0,.3,.2,.5,0,.1,.1,.3,.1,.4,0,.3-.4,.5-.7,.4-.1,0-.2-.2-.3-.3-.3-.3-.5-.5-.8-.8-.6-.6-1.3-1.3-1.9-1.9-.3-.3-.5-.5-.8-.8-.1-.1-.2-.2-.3-.4,0-.2,0-.4,.2-.6,.1-.1,.3-.2,.5,0,.2,0,.4,.2,.6,.2,.3,0,.5,0,.8-.2,0,0,.2-.1,.2-.2,1-1,2-2,3-3,.1-.1,.2-.3,.3-.4,.1-.2,.1-.4,0-.7,0-.2-.1-.4-.2-.5,0-.2,0-.3,.2-.5,.2-.1,.4-.1,.6,0,.3,.2,.7,.3,1.1,.5,.5,.3,1,.5,1.5,.7,.2,0,.4,.2,.7,.3,.2,0,.4,.2,.6,.3,0,0,.2,0,.3,.2,.1,0,.2,.2,0,.4,0,0,0,.1-.1,.2-.3,.3-.6,.6-.9,.9,0,0,0,0-.1,.1,0,0,0,.2,0,.2,0,0,.2,0,.2,0,.2,0,.4,0,.6,0,.4,0,.7,0,1,0,.3,0,.5,.2,.8,.3,.1,0,.3,.2,.4,.2,.2,.1,.4,.3,.5,.4,.2,.2,.4,.4,.5,.7,.2,.3,.3,.5,.3,.8,0,.2,0,.4,0,.6,0,.3-.1,.6-.2,1-.1,.3-.3,.6-.4,.9,0,0,0,.2-.1,.2-.2,.3-.4,.6-.5,.9-.2,.3-.4,.6-.6,.9,0,.1-.2,.3-.3,.4-.3,.5-.7,1-.9,1.5,0,0,0,0,0,.1-.2,.2-.4,.5-.5,.8-.2,.4-.2,.8,0,1.2,0,0,0,.1,.1,.2,.2,.4,0,.8-.5,.8-.2,0-.3,0-.4-.2-.2-.1-.3-.3-.4-.4-.5-.5-1-1-1.5-1.5h0Z"/>
          <path class="uuid-3a76182a-87e0-4fbf-91e1-ea14b6a293d7" d="M98.7,103.9c0,0,0,.2,0,.3,0,.6-.1,1.3-.2,1.9,0,.1,0,.2,0,.3,0,0,0,.2,.1,.3,0,0,.2,0,.2,0,.6,0,1.1-.2,1.6-.3,.3,0,.6-.2,.9-.3,.5-.2,.9-.5,1.1-1.1,.1-.3,.3-.6,.6-.8,.4-.3,1-.1,1.2,.3,.1,.3,.2,.7,0,1,0,0,0,.2,0,.2,0,.1-.1,.2-.2,.3-.3,.3-.5,.5-.8,.7,0,0-.2,0-.2,.1-.2,.2-.5,.3-.8,.4-1,.4-1.9,.6-3,.7-.1,0-.2,0-.3,0-.1,0-.2,.1-.2,.2,0,0,0,.2,0,.3,0,.4,0,.7,0,1.1,0,.3,0,.6,.1,.9,0,.2,.1,.4,.2,.6,.1,.2,0,.3,0,.4-.2,.2-.3,.2-.5,0,0,0-.1-.1-.2-.2-.8-.8-1.6-1.6-2.4-2.4,0,0,0,0,0,0-.2-.1-.2-.3-.2-.5,0-.1,0-.2,0-.4,0-.2,0-.3-.3-.4-.1,0-.2,0-.3,0-.4-.1-.7-.2-1-.4,0,0-.2-.1-.3-.2-.3-.1-.5-.3-.7-.5-.3-.3-.6-.5-.8-.9-.2-.3-.4-.6-.6-1-.2-.4-.3-.8-.3-1.2,0-.9,.4-1.6,1-2.2,.3-.2,.6-.4,1-.5,.5-.2,1,0,1.6,0,.2,0,.4,0,.6,.1,0,0,.2,0,.3,0,.3,0,.4,0,.4-.3,0-.4,.2-.8,.4-1.1,0-.1,.1-.2,.2-.3,.2-.3,.5-.6,.8-.7,.2-.1,.5-.2,.7-.3,.5-.2,1.1-.1,1.6,0,.3,.1,.7,.3,1,.4,.1,0,.2,.1,.3,.2,.4,.3,.8,.6,1.1,1,0,.1,.2,.2,.3,.4,0,0,.1,.2,.2,.2,.2,.5,.4,.9,.4,1.5,0,.2,0,.3-.1,.5,0,0,0,.1,0,.2-.1,.4-.4,.6-.6,.9-.2,.2-.4,.3-.6,.4-.5,.2-1,.2-1.5,.2-.3,0-.7-.1-1-.2,0,0-.1,0-.2,0Zm-4.3-.7c-.3,.2-.4,.5-.5,.8,0,.3,0,.5,0,.8,0,.4,.2,.8,.6,1.1,0,0,.2,.1,.3,.2,.1,0,.3,.2,.5,.2,.1,0,.2,0,.2-.2,0,0,0,0,0,0,0-.4,0-.7,0-1,0-.6,.1-1.2,.2-1.7,0,0,0-.1,0-.2,0-.1,0-.2-.2-.2-.4,0-.8,.1-1,.4Zm4.4-1.1c0,0,.1,0,.2,0,.5,.1,.9,0,1.4-.2,.3-.2,.4-.4,.5-.7,0-.3,0-.5,0-.8,0,0,0-.1-.1-.1-.4-.2-.7-.2-1,0-.2,.2-.4,.4-.6,.6-.2,.3-.3,.6-.3,.9,0,0,0,.1,0,.2Z"/>
          <path class="uuid-3a76182a-87e0-4fbf-91e1-ea14b6a293d7" d="M100.8,97.3c-.6-.6-1.2-1.2-1.8-1.8-.1-.1-.2-.2-.3-.4-.1-.2,0-.5,.2-.7,.2-.1,.4-.1,.5,0,.2,.1,.4,.2,.6,.2,.3,0,.6,0,.8-.2,.9-.9,1.8-1.8,2.7-2.7,.2-.2,.4-.5,.6-.7,.2-.2,.3-.5,.2-.7,0-.2,0-.3-.2-.5,0-.2,0-.4,.2-.5,.1-.1,.4-.2,.6,0,.4,.2,.8,.4,1.3,.6,.2,.1,.5,.2,.7,.4,.2,0,.4,.2,.6,.3,.3,.1,.6,.3,.8,.4,.2,0,.4,.2,.5,.2,.1,0,.2,0,.3,.2,.1,0,.1,.2,0,.4,0,0,0,.1-.2,.2-.3,.2-.5,.5-.8,.7,0,0,0,.1-.1,.2,0,0,0,.1,0,.1,0,0,0,0,.1,0,0,0,.2,0,.3,0,.6-.2,1.2-.1,1.8,0,.4,.1,.7,.3,1,.6,0,0,.2,.2,.3,.3,.2,.2,.3,.5,.3,.7,0,.2,0,.3-.2,.3-.2,.1-.5,.2-.7,.3,0,0-.1,0-.2,0-.3,.2-.6,.3-.9,.5,0,0-.2,0-.3,.1-.2,0-.3,.1-.4,.2-.1,.1-.2,.1-.4,.1-.4,0-.6-.4-.4-.7,0-.2,.2-.3,.2-.5,0-.4-.1-.8-.5-.9-.2-.1-.5-.2-.8-.2,0,0-.1,0-.2,0-.4,.2-.7,.3-1,.6-.4,.4-.8,.8-1.2,1.2-.4,.5-.9,.9-1.3,1.4,0,0-.1,.1-.2,.2-.2,.2-.2,.5,0,.8,0,.2,.2,.4,.3,.6,0,.2,0,.4,0,.6-.2,.3-.4,.3-.6,.2-.2,0-.3-.2-.4-.3-.6-.6-1.2-1.2-1.8-1.8Z"/>
        </g>
        <g>
          <path class="uuid-3a76182a-87e0-4fbf-91e1-ea14b6a293d7" d="M234.9,372.8c0-14,11.3-25.4,25.3-25.4s25.3,11.4,25.3,25.4-11.3,25.4-25.3,25.4-25.3-11.4-25.3-25.4Zm50.1,0c0-13.8-11.1-25-24.8-25s-24.8,11.2-24.8,25,11.1,25,24.8,25,24.8-11.2,24.8-25Z"/>
          <path class="uuid-3a76182a-87e0-4fbf-91e1-ea14b6a293d7" d="M236.7,372.8c0-12.9,10.5-23.4,23.4-23.4s23.4,10.5,23.4,23.4-10.5,23.4-23.4,23.4-23.4-10.5-23.4-23.4Zm46.5,0c0-12.7-10.3-23-23-23s-23,10.3-23,23,10.3,23,23,23,23-10.3,23-23Z"/>
          <polygon class="uuid-3a76182a-87e0-4fbf-91e1-ea14b6a293d7" points="276.2 373.3 276.5 372.5 276 371.8 276.8 371.9 277.3 371.2 277.5 372 278.3 372.2 277.7 372.7 277.7 373.5 277 373 276.2 373.3"/>
          <polygon class="uuid-3a76182a-87e0-4fbf-91e1-ea14b6a293d7" points="275.6 377.1 276.1 376.5 275.9 375.7 276.6 376 277.3 375.5 277.3 376.3 277.9 376.8 277.1 377 276.9 377.8 276.4 377.1 275.6 377.1"/>
          <polygon class="uuid-3a76182a-87e0-4fbf-91e1-ea14b6a293d7" points="274.1 380.7 274.8 380.2 274.7 379.4 275.4 379.9 276.2 379.6 275.9 380.4 276.4 381 275.6 381 275.1 381.7 274.9 380.9 274.1 380.7"/>
          <polygon class="uuid-3a76182a-87e0-4fbf-91e1-ea14b6a293d7" points="272 383.5 272.7 383.2 272.9 382.4 273.4 383 274.2 383 273.8 383.6 274.1 384.4 273.3 384.2 272.7 384.7 272.7 383.9 272 383.5"/>
          <polygon class="uuid-3a76182a-87e0-4fbf-91e1-ea14b6a293d7" points="275.6 369.4 275.8 368.6 275.3 368 276.1 367.9 276.5 367.2 276.8 368 277.6 368.2 277 368.7 277.1 369.5 276.4 369.1 275.6 369.4"/>
          <polygon class="uuid-3a76182a-87e0-4fbf-91e1-ea14b6a293d7" points="274.4 365.8 274.3 365 273.6 364.6 274.4 364.2 274.5 363.4 275.1 364 275.9 363.9 275.5 364.6 275.8 365.4 275 365.2 274.4 365.8"/>
          <polygon class="uuid-3a76182a-87e0-4fbf-91e1-ea14b6a293d7" points="272.2 362.6 271.8 361.9 270.9 361.9 271.5 361.2 271.3 360.4 272 360.8 272.7 360.3 272.6 361.1 273.3 361.7 272.5 361.8 272.2 362.6"/>
          <polygon class="uuid-3a76182a-87e0-4fbf-91e1-ea14b6a293d7" points="252.1 386.3 251.3 386.1 250.9 385.4 250.5 386.1 249.7 386.2 250.3 386.8 250.1 387.6 250.9 387.2 251.6 387.6 251.5 386.8 252.1 386.3"/>
          <polygon class="uuid-3a76182a-87e0-4fbf-91e1-ea14b6a293d7" points="244.8 366.3 244.7 365.4 245.4 364.9 244.6 364.7 244.3 364 243.8 364.7 243 364.7 243.6 365.3 243.3 366.1 244.1 365.8 244.8 366.3"/>
          <g>
            <g>
              <path class="uuid-3a76182a-87e0-4fbf-91e1-ea14b6a293d7" d="M246.7,373.2c0,.6-.2,1.1-.6,1.5-.4,.4-1,.7-1.7,.7-.7,0-1.3-.1-1.7-.5-.5-.4-.8-.9-.8-1.5,0-.6,.2-1.1,.6-1.6,.4-.5,1-.7,1.7-.7,.7,0,1.3,.1,1.7,.5,.5,.4,.8,.9,.8,1.5Zm-1.4,0c0-.3-.1-.5-.3-.6-.2-.2-.5-.2-.8-.2-.3,0-.5,.1-.7,.3-.2,.2-.3,.4-.3,.7,0,.3,.1,.5,.3,.6,.2,.2,.5,.2,.8,.2s.5-.1,.7-.3c.2-.2,.3-.4,.3-.7Z"/>
              <path class="uuid-3a76182a-87e0-4fbf-91e1-ea14b6a293d7" d="M247.7,377.6c.2,.5,.2,1.1,0,1.7-.3,.6-.7,1-1.3,1.2-.6,.3-1.2,.3-1.8,0-.6-.2-1-.6-1.3-1.1-.2-.6-.2-1.1,0-1.7,.3-.6,.7-1,1.3-1.3,.6-.3,1.2-.3,1.8,0,.6,.2,1,.6,1.3,1.2Zm-1.3,.5c0-.2-.3-.4-.5-.5-.3,0-.5,0-.8,0s-.5,.3-.6,.5c-.1,.2-.1,.5,0,.7,0,.2,.3,.4,.5,.5,.3,0,.5,0,.8,0,.3-.1,.5-.3,.6-.5s.1-.5,0-.7Z"/>
              <path class="uuid-3a76182a-87e0-4fbf-91e1-ea14b6a293d7" d="M248.7,381.8l-2.4,2.2-.8-.9,3.4-3.1,1.1,1.2c.5,.5,.7,1,.7,1.6,0,.6-.3,1.2-.8,1.7-.5,.5-1.1,.7-1.7,.7-.6,0-1.1-.2-1.5-.7,0,0-.1-.1-.2-.3l1-.9h.1c.5,.7,1,.7,1.5,.3,.5-.4,.5-.9,0-1.4l-.3-.3Z"/>
            </g>
            <path class="uuid-3a76182a-87e0-4fbf-91e1-ea14b6a293d7" d="M243.9,369.4l-1.2,.3v-.4l-1.3,.3-.3-1.2,2.8-.7c.5-.1,1,0,1.4,.1,.4,.2,.7,.6,.8,1,.1,.5,0,1-.4,1.4l-1.1-.8c.2-.1,.2-.2,.2-.4,0-.2-.2-.3-.5-.2h-.6v.6Z"/>
          </g>
          <g>
            <path class="uuid-37fe945f-e57a-4631-ae3c-facf8b5c7321" d="M259.2,399.5c-1.5,0-2.9-1.3-3-2.4l-8.9-51.3h14.4c1.1,0,2.5,1.2,2.7,2.4l8.9,51.3h-14Z"/>
            <path class="uuid-3a76182a-87e0-4fbf-91e1-ea14b6a293d7" d="M247.1,345.7c0,0,0,0,0-.1,0,0,.1,0,.2,0h14.4c1.3,0,2.7,1.3,2.9,2.6l8.9,51.3c0,0,0,.1,0,.2,0,0-.1,0-.2,0h-14c-1.7,0-3.1-1.4-3.2-2.6l-8.9-51.3s0,0,0,0Zm25.9,53.5l-8.8-51.1c-.2-1.2-1.5-2.3-2.5-2.3h-14.1l8.8,51.1c.1,1,1.4,2.3,2.8,2.3h13.8Z"/>
          </g>
          <path class="uuid-3a76182a-87e0-4fbf-91e1-ea14b6a293d7" d="M274,379.4l-19.4-7.6,1.8,6.7-5.8-1.4-3.2-13.8,18.7,8.1s-2.8-6.1-3.2-7.2l7.6-.6,3.4,15.8Z"/>
          <path class="uuid-3a76182a-87e0-4fbf-91e1-ea14b6a293d7" d="M268.8,380.9c-.9-.2-1.2,.2-.8,.6,.4,.4,2.9,1.2,3.5,.1,.5-.9-.7-1.7-1.5-1.5-1.1,.2-1.2,.8-1.2,.8Z"/>
          <polygon class="uuid-3a76182a-87e0-4fbf-91e1-ea14b6a293d7" points="258.6 357.3 258.4 355.6 259.7 354.6 258.1 354.2 257.5 352.6 256.7 354 255 354.1 256.1 355.4 255.7 357 257.2 356.4 258.6 357.3"/>
          <polygon class="uuid-3a76182a-87e0-4fbf-91e1-ea14b6a293d7" points="264.3 392.1 264.2 390.4 265.5 389.4 263.9 389 263.3 387.4 262.5 388.8 260.8 388.9 261.9 390.2 261.4 391.8 263 391.1 264.3 392.1"/>
        </g>
        <g>
          <path class="uuid-3a76182a-87e0-4fbf-91e1-ea14b6a293d7" d="M159.1,62.5c0-14,11.3-25.4,25.3-25.4s25.3,11.4,25.3,25.4-11.3,25.4-25.3,25.4-25.3-11.4-25.3-25.4Zm50.1,0c0-13.8-11.1-25-24.8-25s-24.8,11.2-24.8,25,11.1,25,24.8,25,24.8-11.2,24.8-25Z"/>
          <path class="uuid-3a76182a-87e0-4fbf-91e1-ea14b6a293d7" d="M161,62.5c0-12.9,10.5-23.4,23.4-23.4s23.4,10.5,23.4,23.4-10.5,23.4-23.4,23.4-23.4-10.5-23.4-23.4Zm46.5,0c0-12.7-10.3-23-23-23s-23,10.3-23,23,10.3,23,23,23,23-10.3,23-23Z"/>
          <polygon class="uuid-3a76182a-87e0-4fbf-91e1-ea14b6a293d7" points="200.5 63 200.8 62.2 200.3 61.6 201.1 61.6 201.6 60.9 201.8 61.7 202.6 62 201.9 62.4 201.9 63.2 201.3 62.8 200.5 63"/>
          <polygon class="uuid-3a76182a-87e0-4fbf-91e1-ea14b6a293d7" points="199.9 66.8 200.4 66.2 200.2 65.4 200.9 65.7 201.6 65.2 201.6 66.1 202.2 66.6 201.4 66.8 201.1 67.5 200.7 66.9 199.9 66.8"/>
          <polygon class="uuid-3a76182a-87e0-4fbf-91e1-ea14b6a293d7" points="198.4 70.4 199 69.9 199 69.1 199.7 69.6 200.4 69.3 200.2 70.1 200.7 70.8 199.9 70.8 199.4 71.4 199.2 70.7 198.4 70.4"/>
          <polygon class="uuid-3a76182a-87e0-4fbf-91e1-ea14b6a293d7" points="196.2 73.2 197 72.9 197.2 72.1 197.7 72.8 198.5 72.7 198.1 73.4 198.4 74.1 197.6 73.9 197 74.5 196.9 73.6 196.2 73.2"/>
          <polygon class="uuid-3a76182a-87e0-4fbf-91e1-ea14b6a293d7" points="199.9 59.1 200.1 58.3 199.5 57.7 200.4 57.7 200.8 57 201.1 57.7 201.9 57.9 201.2 58.4 201.3 59.2 200.6 58.8 199.9 59.1"/>
          <polygon class="uuid-3a76182a-87e0-4fbf-91e1-ea14b6a293d7" points="198.7 55.5 198.6 54.7 197.9 54.3 198.6 54 198.8 53.2 199.3 53.8 200.1 53.7 199.7 54.4 200.1 55.1 199.3 54.9 198.7 55.5"/>
          <polygon class="uuid-3a76182a-87e0-4fbf-91e1-ea14b6a293d7" points="196.5 52.3 196 51.6 195.2 51.6 195.8 51 195.5 50.2 196.3 50.5 197 50.1 196.9 50.9 197.6 51.4 196.8 51.6 196.5 52.3"/>
          <polygon class="uuid-3a76182a-87e0-4fbf-91e1-ea14b6a293d7" points="176.3 76 175.5 75.8 175.2 75.1 174.8 75.8 174 75.9 174.6 76.5 174.4 77.3 175.1 76.9 175.8 77.4 175.7 76.5 176.3 76"/>
          <polygon class="uuid-3a76182a-87e0-4fbf-91e1-ea14b6a293d7" points="169.1 56 169 55.2 169.6 54.7 168.8 54.5 168.5 53.7 168.1 54.4 167.3 54.5 167.8 55.1 167.6 55.9 168.4 55.6 169.1 56"/>
          <g>
            <g>
              <path class="uuid-3a76182a-87e0-4fbf-91e1-ea14b6a293d7" d="M171,63c0,.6-.2,1.1-.6,1.5-.4,.4-1,.7-1.7,.7-.7,0-1.3-.1-1.7-.5-.5-.4-.8-.9-.8-1.5,0-.6,.2-1.1,.6-1.6,.4-.5,1-.7,1.7-.7,.7,0,1.3,.1,1.7,.5,.5,.4,.8,.9,.8,1.5Zm-1.4,0c0-.3-.1-.5-.3-.6-.2-.2-.5-.2-.8-.2-.3,0-.5,.1-.7,.3-.2,.2-.3,.4-.3,.7,0,.3,.1,.5,.3,.6,.2,.2,.5,.2,.8,.2s.5-.1,.7-.3c.2-.2,.3-.4,.3-.7Z"/>
              <path class="uuid-3a76182a-87e0-4fbf-91e1-ea14b6a293d7" d="M172,67.3c.2,.5,.2,1.1,0,1.7-.3,.6-.7,1-1.3,1.2-.6,.3-1.2,.3-1.8,0-.6-.2-1-.6-1.3-1.1-.2-.6-.2-1.1,0-1.7,.3-.6,.7-1,1.3-1.3,.6-.3,1.2-.3,1.8,0,.6,.2,1,.6,1.3,1.2Zm-1.3,.5c0-.2-.3-.4-.5-.5-.3,0-.5,0-.8,0s-.5,.3-.6,.5c-.1,.2-.1,.5,0,.7,0,.2,.3,.4,.5,.5,.3,0,.5,0,.8,0,.3-.1,.5-.3,.6-.5s.1-.5,0-.7Z"/>
              <path class="uuid-3a76182a-87e0-4fbf-91e1-ea14b6a293d7" d="M172.9,71.5l-2.4,2.2-.8-.9,3.4-3.1,1.1,1.2c.5,.5,.7,1,.7,1.6,0,.6-.3,1.2-.8,1.7-.5,.5-1.1,.7-1.7,.7-.6,0-1.1-.2-1.5-.7,0,0-.1-.1-.2-.3l1-.9h.1c.5,.7,1,.7,1.5,.3,.5-.4,.5-.9,0-1.4l-.3-.3Z"/>
            </g>
            <path class="uuid-3a76182a-87e0-4fbf-91e1-ea14b6a293d7" d="M168.2,59.1l-1.2,.3v-.4l-1.3,.3-.3-1.2,2.8-.7c.5-.1,1,0,1.4,.1,.4,.2,.7,.6,.8,1,.1,.5,0,1-.4,1.4l-1.1-.8c.2-.1,.2-.2,.2-.4,0-.2-.2-.3-.5-.2h-.6v.6Z"/>
          </g>
          <g>
            <path class="uuid-37fe945f-e57a-4631-ae3c-facf8b5c7321" d="M183.4,89.2c-1.5,0-2.9-1.3-3-2.4l-8.9-51.3h14.4c1.1,0,2.5,1.2,2.7,2.4l8.9,51.3h-14Z"/>
            <path class="uuid-3a76182a-87e0-4fbf-91e1-ea14b6a293d7" d="M171.3,35.5c0,0,0,0,0-.1,0,0,.1,0,.2,0h14.4c1.3,0,2.7,1.3,2.9,2.6l8.9,51.3c0,0,0,.1,0,.2,0,0-.1,0-.2,0h-14c-1.7,0-3.1-1.4-3.2-2.6l-8.9-51.3s0,0,0,0Zm25.9,53.5l-8.8-51.1c-.2-1.2-1.5-2.3-2.5-2.3h-14.1l8.8,51.1c.1,1,1.4,2.3,2.8,2.3h13.8Z"/>
          </g>
          <path class="uuid-3a76182a-87e0-4fbf-91e1-ea14b6a293d7" d="M198.2,69.1l-19.4-7.6,1.8,6.7-5.8-1.4-3.2-13.8,18.7,8.1s-2.8-6.1-3.2-7.2l7.6-.6,3.4,15.8Z"/>
          <path class="uuid-3a76182a-87e0-4fbf-91e1-ea14b6a293d7" d="M193.1,70.6c-.9-.2-1.2,.2-.8,.6,.4,.4,2.9,1.2,3.5,.1,.5-.9-.7-1.7-1.5-1.5-1.1,.2-1.2,.8-1.2,.8Z"/>
          <polygon class="uuid-3a76182a-87e0-4fbf-91e1-ea14b6a293d7" points="182.8 47 182.7 45.4 184 44.3 182.4 43.9 181.8 42.4 180.9 43.8 179.3 43.9 180.4 45.1 179.9 46.7 181.5 46.1 182.8 47"/>
          <polygon class="uuid-3a76182a-87e0-4fbf-91e1-ea14b6a293d7" points="188.6 81.8 188.5 80.1 189.8 79.1 188.2 78.7 187.6 77.2 186.7 78.6 185.1 78.7 186.1 79.9 185.7 81.5 187.2 80.9 188.6 81.8"/>
        </g>
      </g>
    </g>
  </g>
</svg>